<svg xmlns="http://www.w3.org/2000/svg" width="36" height="30" viewBox="0 0 36 30" fill="none"><path fill-rule="evenodd" clip-rule="evenodd" d="M12.6784 0.262555C5.14837 5.09855 0.965369 10.7266 0.128369 17.1496C-1.17463 27.1466 7.76537 32.0396 12.2954 27.6436C16.8254 23.2466 14.1104 17.6666 10.8304 16.1406C7.55037 14.6156 5.54437 15.1466 5.89437 13.1076C6.24437 11.0696 10.9104 5.41755 15.0104 2.78555C15.1557 2.66201 15.2484 2.48769 15.2695 2.29815C15.2907 2.10861 15.2388 1.91813 15.1244 1.76555L14.1104 0.446555C13.6704 -0.125445 13.2484 -0.103446 12.6784 0.261554M32.5044 0.262555C24.9744 5.09855 20.7904 10.7276 19.9544 17.1496C18.6514 27.1466 27.5914 32.0396 32.1214 27.6436C36.6514 23.2466 33.9364 17.6666 30.6554 16.1406C27.3754 14.6156 25.3694 15.1466 25.7194 13.1076C26.0694 11.0696 30.7364 5.41755 34.8364 2.78555C34.9815 2.66187 35.074 2.48748 35.095 2.29795C35.116 2.10842 35.0639 1.91801 34.9494 1.76555L33.9354 0.446555C33.4954 -0.125445 33.0734 -0.103446 32.5044 0.261554" fill="#FF184E"></path></svg>