<?xml version="1.0"?>
<svg xmlns="http://www.w3.org/2000/svg" width="240" height="50" viewBox="0 0 240 50" fill="none">
<g clip-path="url(#clip0_12534_169)">
<path d="M98.885 8.115C98.9583 8.225 98.995 8.39 98.995 8.61C98.995 9.78333 98.5733 10.81 97.73 11.69C96.9233 12.57 95.915 13.23 94.705 13.67C94.4483 13.8533 94.0817 14.0367 93.605 14.22C93.165 14.3667 92.8533 14.5133 92.67 14.66C92.4867 14.8067 92.3033 15.1367 92.12 15.65C91.9367 16.1633 91.845 16.8967 91.845 17.85V18.565C91.845 19.7017 91.9183 20.4717 92.065 20.875C91.9917 21.1683 91.955 21.3517 91.955 21.425C91.955 21.535 91.955 21.6633 91.955 21.81C91.9917 21.9567 92.01 22.085 92.01 22.195C92.01 22.3783 91.9917 22.525 91.955 22.635C91.955 22.745 91.955 22.8917 91.955 23.075C91.9917 23.2583 92.01 23.3867 92.01 23.46C92.01 23.68 91.9917 24.01 91.955 24.45C91.955 24.8533 91.955 25.1467 91.955 25.33V25.825C91.9183 25.8983 91.9 26.0267 91.9 26.21C91.9 26.3933 91.9183 26.5217 91.955 26.595C91.9183 26.6317 91.9 26.705 91.9 26.815C91.9 26.9617 91.9183 27.2367 91.955 27.64C92.0283 28.0067 92.065 28.2267 92.065 28.3V28.685C92.065 28.9417 92.0283 29.1433 91.955 29.29C91.955 34.2033 92.3583 37.4117 93.165 38.915C93.2017 39.2083 93.44 39.6483 93.88 40.235C94.3567 40.8217 94.595 41.225 94.595 41.445C94.595 41.7017 94.4117 41.83 94.045 41.83C93.825 41.83 93.55 41.7017 93.22 41.445C92.89 41.1883 92.615 41.06 92.395 41.06L92.175 41.28C92.175 42.5267 92.1567 43.425 92.12 43.975C92.12 44.0483 92.0833 44.085 92.01 44.085C91.79 44.085 91.5333 43.9933 91.24 43.81C90.9467 43.59 90.8 43.315 90.8 42.985C90.8 42.9483 90.8367 42.82 90.91 42.6C90.8733 42.5267 90.855 42.435 90.855 42.325C90.855 42.2517 90.855 42.1417 90.855 41.995C90.8917 41.8483 90.91 41.7567 90.91 41.72C90.91 41.4267 90.8 41.2433 90.58 41.17C90.4333 41.17 90.2317 41.3167 89.975 41.61C89.755 41.8667 89.535 41.995 89.315 41.995C89.2783 41.995 89.1867 42.0133 89.04 42.05C88.8933 42.05 88.8017 42.05 88.765 42.05C88.5083 42.05 88.38 41.9217 88.38 41.665C88.38 41.445 88.6183 41.06 89.095 40.51C89.5717 39.9233 89.81 39.4283 89.81 39.025C90.3233 38.3283 90.58 37.0633 90.58 35.23V33.36C90.58 32.8833 90.5983 32.535 90.635 32.315C90.635 32.0583 90.6167 31.6367 90.58 31.05C90.58 30.4633 90.58 30.0417 90.58 29.785C90.1767 29.785 89.81 29.73 89.48 29.62C89.26 29.62 88.8933 29.675 88.38 29.785C87.9033 29.8583 87.5367 29.895 87.28 29.895C86.9867 29.895 86.6933 29.84 86.4 29.73C85.96 29.8033 85.63 29.84 85.41 29.84V36.55C85.41 39.7033 85.2083 41.6467 84.805 42.38C84.475 42.6733 84.1267 43.0583 83.76 43.535C83.3933 44.0117 83.045 44.3967 82.715 44.69C82.2017 45.13 81.3217 45.68 80.075 46.34C78.8283 46.9633 77.765 47.385 76.885 47.605C75.895 48.1183 74.0983 48.3933 71.495 48.43C70.9817 48.2833 70.3217 48.045 69.515 47.715C68.7083 47.385 67.9567 47.1467 67.26 47C66.5633 46.8167 65.7567 46.725 64.84 46.725C63.8867 46.725 62.9517 46.9633 62.035 47.44L60.66 48.1C60.5867 48.1 60.55 47.99 60.55 47.77C60.55 46.8167 61.1 45.7533 62.2 44.58C63.8867 42.7833 66.2517 41.885 69.295 41.885C69.3683 41.885 69.515 41.9217 69.735 41.995C69.955 42.0317 70.1383 42.05 70.285 42.05C70.505 42.05 70.835 42.215 71.275 42.545C71.715 42.875 71.99 43.0583 72.1 43.095C72.32 43.1317 72.705 43.3333 73.255 43.7C73.805 44.03 74.3917 44.4333 75.015 44.91C75.6383 45.35 75.9867 45.5883 76.06 45.625C76.39 45.6983 76.72 45.9 77.05 46.23C77.7833 46.1567 78.3883 45.8083 78.865 45.185C79.7083 44.5617 80.2217 44.0117 80.405 43.535C80.625 43.0583 80.735 42.4167 80.735 41.61V41.39C80.735 40.84 80.6983 40.2717 80.625 39.685C80.5517 39.0617 80.515 38.5667 80.515 38.2C80.515 37.76 80.5517 36.99 80.625 35.89C80.6983 34.79 80.735 34.075 80.735 33.745C80.735 33.7083 80.7167 33.58 80.68 33.36C80.68 33.1033 80.6617 32.6633 80.625 32.04C80.625 31.4167 80.625 30.665 80.625 29.785C80.625 28.8317 80.6433 28.3367 80.68 28.3C80.68 27.7867 80.625 27.0533 80.515 26.1C80.4417 25.1467 80.405 24.1383 80.405 23.075C80.405 22.2317 80.4417 21.7367 80.515 21.59C80.4417 21.4067 80.405 21.15 80.405 20.82C80.405 18.6933 80.735 17.1167 81.395 16.09C81.4317 15.6867 81.7617 15.1733 82.385 14.55C83.0083 13.89 83.595 13.3583 84.145 12.955C84.1817 12.9183 84.42 12.6433 84.86 12.13C85.3 11.6167 85.7767 11.085 86.29 10.535C86.8033 9.94833 87.335 9.435 87.885 8.995C88.4717 8.51833 88.9117 8.28 89.205 8.28C90.0483 9.19666 91.3133 9.655 93 9.655C93.2933 9.655 93.7333 9.61833 94.32 9.545C94.9433 9.47166 95.4017 9.435 95.695 9.435C96.0983 9.435 96.6117 9.215 97.235 8.775C97.895 8.29833 98.39 8.06 98.72 8.06H98.775C98.8117 8.09667 98.8483 8.115 98.885 8.115ZM90.635 23.625C90.745 23.2217 90.8 22.8183 90.8 22.415C90.8 22.1583 90.7633 21.7367 90.69 21.15C90.6533 20.5633 90.635 20.1233 90.635 19.83V19.445C90.635 18.9683 90.6167 18.235 90.58 17.245C90.58 16.2183 90.58 15.485 90.58 15.045C90.3967 14.825 90.085 14.715 89.645 14.715H89.095C88.765 14.715 88.2883 14.495 87.665 14.055C87.0783 13.615 86.6933 13.395 86.51 13.395C86.4 13.395 86.29 13.505 86.18 13.725C86.1067 13.9083 86.0517 14.0183 86.015 14.055C85.575 14.7517 85.355 15.815 85.355 17.245C85.355 17.685 85.3733 18.1617 85.41 18.675C85.4467 19.1517 85.465 19.4817 85.465 19.665C85.465 19.9583 85.4467 20.3983 85.41 20.985C85.41 21.5717 85.41 21.9933 85.41 22.25C85.41 22.3233 85.4283 22.4883 85.465 22.745C85.5017 22.965 85.52 23.185 85.52 23.405C85.52 23.4783 85.5017 23.625 85.465 23.845C85.465 24.0283 85.465 24.175 85.465 24.285C85.465 24.2483 85.6117 24.23 85.905 24.23C86.895 24.23 87.72 24.285 88.38 24.395C88.4533 24.4317 88.6 24.45 88.82 24.45C90.03 24.45 90.635 24.175 90.635 23.625ZM67.755 13.285C67.205 13.395 66.6183 13.6517 65.995 14.055C65.4083 14.4217 65.0783 14.605 65.005 14.605C64.9683 14.605 64.95 14.495 64.95 14.275C64.95 13.175 65.5 12.1117 66.6 11.085C66.8933 10.755 67.2967 10.425 67.81 10.095C68.36 9.72833 68.7633 9.39833 69.02 9.105C69.3133 8.95833 69.8267 8.84833 70.56 8.775C71.2933 8.665 71.7883 8.555 72.045 8.445H72.32C72.5033 8.445 72.7233 8.445 72.98 8.445C73.2367 8.40833 73.42 8.39 73.53 8.39C73.6767 8.39 73.8783 8.40833 74.135 8.445C74.4283 8.48166 74.6483 8.5 74.795 8.5C74.9417 8.5 75.1433 8.57333 75.4 8.72C75.6567 8.83 75.8583 8.885 76.005 8.885C76.9583 9.215 77.9667 9.38 79.03 9.38C79.9467 9.38 80.8633 9.14167 81.78 8.665C82.6967 8.15167 83.1733 7.895 83.21 7.895C83.2833 7.895 83.32 7.98667 83.32 8.17C83.32 9.08666 82.77 10.1683 81.67 11.415C81.3767 11.745 80.955 12.0933 80.405 12.46C79.855 12.79 79.4517 13.1017 79.195 13.395C78.9017 13.5417 78.3883 13.67 77.655 13.78C76.9217 13.8533 76.4267 13.945 76.17 14.055H75.07C74.4467 14.055 73.9883 14.0183 73.695 13.945C73.6217 13.9817 73.53 14 73.42 14C73.2733 14 73.0717 13.945 72.815 13.835C72.5583 13.6883 72.375 13.615 72.265 13.615C71.275 13.3217 70.1933 13.175 69.02 13.175C68.4333 13.175 68.0117 13.2117 67.755 13.285ZM79.525 15.045C79.525 15.0817 79.2317 15.65 78.645 16.75C78.095 17.8133 77.82 18.895 77.82 19.995C77.82 20.3983 77.8383 20.8567 77.875 21.37C77.9117 21.8467 77.93 22.1583 77.93 22.305C77.93 22.5617 77.9117 23.0017 77.875 23.625C77.8383 24.2117 77.82 24.6517 77.82 24.945C77.82 25.2017 77.8383 25.495 77.875 25.825C77.9483 26.155 77.985 26.4667 77.985 26.76C77.985 27.2 77.9483 27.8783 77.875 28.795C77.8383 29.7117 77.82 30.28 77.82 30.5V30.83C77.8567 31.16 77.875 32.4983 77.875 34.845C77.765 35.1017 77.6733 35.5967 77.6 36.33C77.5633 37.0267 77.4533 37.5033 77.27 37.76C76.9767 38.0167 76.6283 38.4017 76.225 38.915C75.8583 39.3917 75.51 39.7767 75.18 40.07C74.0067 41.06 72.925 41.555 71.935 41.555C71.7517 41.555 71.6417 41.5367 71.605 41.5C71.605 41.4267 71.7333 41.1883 71.99 40.785C72.2833 40.3817 72.5583 39.8317 72.815 39.135C73.1083 38.4017 73.255 37.6317 73.255 36.825C73.255 36.2383 73.2183 35.6517 73.145 35.065C73.0717 34.4417 73.035 33.91 73.035 33.47C73.035 31.93 73.09 30.4083 73.2 28.905H72.925C72.1917 28.905 71.55 29.07 71 29.4C70.45 29.73 70.0467 30.0967 69.79 30.5C69.57 30.8667 69.35 31.215 69.13 31.545C68.91 31.8383 68.7083 31.985 68.525 31.985L68.415 31.71C68.195 30.94 68.085 30.1333 68.085 29.29C68.085 28.5567 68.1767 27.9883 68.36 27.585C68.58 27.1817 68.8733 26.815 69.24 26.485C69.6067 26.1183 69.8817 25.7517 70.065 25.385C71.055 24.615 72.0267 24.23 72.98 24.23C72.9067 24.0467 72.87 23.79 72.87 23.46C72.87 21.4067 73.2 19.8483 73.86 18.785C74.1533 18.5283 74.4833 18.1617 74.85 17.685C75.2533 17.1717 75.62 16.7683 75.95 16.475C77.1233 15.485 78.205 14.99 79.195 14.99C79.3417 14.99 79.4517 15.0083 79.525 15.045ZM111.868 24.505C112.602 25.165 113.738 26.045 115.278 27.145C116.012 27.585 116.452 27.805 116.598 27.805C117.075 27.805 117.68 27.4933 118.413 26.87C119.183 26.21 119.697 25.88 119.953 25.88C120.613 26.0633 120.98 26.2283 121.053 26.375C121.017 26.705 120.54 27.1267 119.623 27.64C118.743 28.1167 118.285 28.6667 118.248 29.29C117.918 29.73 117.753 29.9683 117.753 30.005C117.753 30.0417 117.772 30.1333 117.808 30.28C117.882 30.4267 117.918 30.5367 117.918 30.61C117.918 30.72 117.9 30.885 117.863 31.105C117.827 31.2883 117.808 31.4167 117.808 31.49C117.808 31.6 117.845 31.765 117.918 31.985C117.882 32.2783 117.827 32.7733 117.753 33.47C117.68 34.13 117.625 34.6067 117.588 34.9C117.735 35.8533 117.808 36.5683 117.808 37.045C117.808 37.3383 117.772 37.705 117.698 38.145C117.735 38.5117 117.753 39.0617 117.753 39.795V41.39C117.827 41.61 117.863 41.995 117.863 42.545C117.863 43.0217 117.68 43.4067 117.313 43.7C116.983 43.9567 116.525 44.195 115.938 44.415C115.388 44.5983 115.003 44.8 114.783 45.02C114.453 45.0567 114.013 45.24 113.463 45.57C112.95 45.9 112.583 46.1017 112.363 46.175C112.07 46.285 111.538 46.67 110.768 47.33C110.035 47.99 109.338 48.32 108.678 48.32C108.018 48.32 107.45 48.1183 106.973 47.715C106.497 47.3483 106.093 46.9633 105.763 46.56C105.433 46.12 105.177 45.8817 104.993 45.845C103.087 44.2317 101.913 43.425 101.473 43.425C101.253 43.425 101.033 43.5717 100.813 43.865C100.593 44.1583 100.41 44.3417 100.263 44.415C100.08 44.525 99.8051 44.7267 99.4384 45.02C99.1084 45.3133 98.7968 45.57 98.5034 45.79C98.2101 45.9733 97.9718 46.065 97.7884 46.065C97.6051 46.065 97.4034 45.9733 97.1834 45.79C97.0001 45.57 96.9084 45.3867 96.9084 45.24C96.9084 44.7267 97.5318 43.9933 98.7784 43.04C100.062 42.05 100.703 41.5 100.703 41.39C100.703 41.3167 100.685 41.2067 100.648 41.06C100.648 40.8767 100.648 40.7483 100.648 40.675C100.648 40.5283 100.685 40.345 100.758 40.125C100.832 39.8683 100.868 39.685 100.868 39.575C100.868 39.3917 100.85 39.135 100.813 38.805C100.777 38.475 100.758 38.2367 100.758 38.09V35.285C100.722 35.1017 100.703 34.8083 100.703 34.405C100.703 34.0383 100.74 33.7633 100.813 33.58C100.813 33.4333 100.795 33.2317 100.758 32.975C100.758 32.6817 100.758 32.4617 100.758 32.315C100.758 32.0583 100.777 31.8567 100.813 31.71C100.813 31.6367 100.777 31.5083 100.703 31.325C100.63 31.105 100.593 30.94 100.593 30.83C100.593 30.72 100.612 30.6283 100.648 30.555L100.593 30.5C100.593 30.4267 100.593 30.3717 100.593 30.335C100.593 30.225 100.63 30.06 100.703 29.84C100.813 29.62 100.868 29.4367 100.868 29.29C100.868 29.1433 100.832 29.015 100.758 28.905C100.905 28.465 101.455 28.1533 102.408 27.97C103.362 27.7867 104.003 27.5483 104.333 27.255H104.553C104.92 27.255 105.378 27.09 105.928 26.76C106.515 26.43 106.918 26.2467 107.138 26.21C107.652 26.1 108.165 25.8433 108.678 25.44C109.228 25 109.668 24.615 109.998 24.285C110.328 23.955 110.512 23.79 110.548 23.79C110.732 23.79 110.952 23.9183 111.208 24.175C111.465 24.395 111.685 24.505 111.868 24.505ZM107.358 27.53C107.065 27.7133 106.863 27.97 106.753 28.3C106.643 28.5933 106.588 28.96 106.588 29.4C106.588 29.84 106.552 30.17 106.478 30.39C106.588 30.61 106.643 30.8117 106.643 30.995C106.643 31.105 106.625 31.2517 106.588 31.435C106.588 31.6183 106.588 31.765 106.588 31.875C106.588 32.1683 106.643 32.37 106.753 32.48C106.643 32.59 106.588 32.81 106.588 33.14V33.47C106.588 33.58 106.552 33.7267 106.478 33.91C106.442 34.0933 106.423 34.2217 106.423 34.295C106.423 34.405 106.478 34.57 106.588 34.79C106.698 35.01 106.753 35.1933 106.753 35.34V35.45L106.698 35.56C106.735 35.67 106.753 35.835 106.753 36.055C106.753 36.1283 106.735 36.2567 106.698 36.44C106.698 36.5867 106.698 36.6967 106.698 36.77C106.698 36.8433 106.735 36.99 106.808 37.21C106.808 37.3567 106.772 37.65 106.698 38.09C106.625 38.53 106.588 38.8783 106.588 39.135C106.588 39.8317 106.772 40.3817 107.138 40.785C107.505 41.1517 107.927 41.4633 108.403 41.72C108.917 41.94 109.247 42.1967 109.393 42.49C109.613 42.5633 109.98 42.82 110.493 43.26C111.007 43.7 111.392 43.92 111.648 43.92C111.868 43.92 111.978 43.7917 111.978 43.535C111.978 43.4617 111.96 43.3517 111.923 43.205C111.923 43.0217 111.923 42.875 111.923 42.765C111.923 42.655 111.942 42.5083 111.978 42.325C112.052 42.1417 112.088 41.995 112.088 41.885C112.088 41.7383 112.07 41.5183 112.033 41.225C111.997 40.9317 111.978 40.73 111.978 40.62C112.125 40.4367 112.198 40.1617 112.198 39.795C112.198 39.5383 112.162 39.2267 112.088 38.86V37.54C112.088 37.21 112.107 36.9533 112.143 36.77C112.07 36.6233 112.033 36.5133 112.033 36.44C112.033 36.3667 112.052 36.2567 112.088 36.11C112.125 35.9633 112.143 35.835 112.143 35.725C112.143 35.6517 112.107 35.5417 112.033 35.395C111.997 35.2117 111.978 35.065 111.978 34.955C111.978 34.7717 112.015 34.4967 112.088 34.13C112.198 33.7633 112.253 33.4883 112.253 33.305C112.253 33.195 112.198 33.03 112.088 32.81C112.015 32.59 111.978 32.425 111.978 32.315C111.978 32.2417 111.997 32.1317 112.033 31.985C112.107 31.8017 112.143 31.6733 112.143 31.6C112.107 31.38 111.667 30.9033 110.823 30.17C110.017 29.4 109.467 28.9233 109.173 28.74C108.513 27.9333 107.908 27.53 107.358 27.53ZM128.319 24.065C128.502 24.2117 128.832 24.505 129.309 24.945C129.822 25.3483 130.262 25.6783 130.629 25.935C130.996 26.155 131.381 26.3383 131.784 26.485C132.297 26.485 132.921 26.265 133.654 25.825C134.387 25.385 134.827 25.1283 134.974 25.055C135.121 24.9817 135.304 24.7433 135.524 24.34C135.781 23.9 136.019 23.68 136.239 23.68C136.349 23.68 136.514 23.735 136.734 23.845C137.321 25.165 138.531 25.825 140.364 25.825C140.401 25.825 140.859 25.77 141.739 25.66C141.996 25.66 142.142 25.7517 142.179 25.935C142.179 26.4117 141.739 26.98 140.859 27.64C140.016 28.3 139.429 28.6483 139.099 28.685C138.952 28.905 138.659 29.0883 138.219 29.235C137.779 29.345 137.376 29.4 137.009 29.4L136.514 29.455C136.257 29.455 135.872 29.4 135.359 29.29C134.882 29.18 134.497 29.125 134.204 29.125C134.167 29.125 134.094 29.1433 133.984 29.18C133.911 29.18 133.837 29.18 133.764 29.18C133.727 29.1433 133.599 29.0333 133.379 28.85C133.196 28.63 133.031 28.52 132.884 28.52C132.627 28.52 132.499 28.63 132.499 28.85C132.499 28.9233 132.499 29.015 132.499 29.125C132.536 29.235 132.554 29.3083 132.554 29.345C132.554 29.3817 132.536 29.455 132.499 29.565C132.499 29.6383 132.499 29.7117 132.499 29.785C132.499 29.8583 132.499 29.9867 132.499 30.17C132.536 30.3167 132.554 30.445 132.554 30.555V38.915C132.591 39.0617 132.609 39.2633 132.609 39.52C132.609 39.6667 132.591 39.8683 132.554 40.125C132.554 40.3817 132.554 40.5833 132.554 40.73C132.554 41.72 133.324 42.71 134.864 43.7C135.047 43.7 135.286 43.59 135.579 43.37C135.909 43.15 136.276 42.8933 136.679 42.6C137.082 42.27 137.394 42.0317 137.614 41.885C138.201 41.9583 138.567 42.16 138.714 42.49C138.714 42.7833 138.622 43.04 138.439 43.26C138.256 43.4433 137.999 43.645 137.669 43.865C137.376 44.0483 137.174 44.2133 137.064 44.36C136.587 44.69 135.982 45.2033 135.249 45.9C134.552 46.5967 133.929 47.1833 133.379 47.66C132.829 48.1733 132.389 48.43 132.059 48.43C131.839 48.43 131.344 48.0817 130.574 47.385C129.804 46.6883 129.162 46.0467 128.649 45.46C128.539 45.13 127.916 44.5433 126.779 43.7C126.449 43.7 125.881 44.0667 125.074 44.8C124.304 45.4967 123.736 45.9367 123.369 46.12C122.526 46.01 122.104 45.7167 122.104 45.24C122.104 44.8733 123.607 43.7 126.614 41.72C126.687 41.6467 126.724 41.5 126.724 41.28C126.724 41.2067 126.706 41.0967 126.669 40.95C126.669 40.7667 126.669 40.6383 126.669 40.565C126.669 40.3083 126.761 40.1067 126.944 39.96C126.944 39.74 126.926 39.41 126.889 38.97C126.889 38.53 126.889 38.2 126.889 37.98C126.889 37.54 126.907 37.21 126.944 36.99C126.907 36.88 126.889 36.6967 126.889 36.44V36C126.889 35.67 126.852 35.4317 126.779 35.285C126.852 34.9183 126.889 34.6433 126.889 34.46C126.889 34.2767 126.852 33.8367 126.779 33.14C126.742 32.4433 126.724 31.985 126.724 31.765C126.724 31.5817 126.742 31.325 126.779 30.995C126.852 30.6283 126.889 30.335 126.889 30.115C126.889 29.345 126.724 28.795 126.394 28.465L125.184 27.585C124.854 27.585 124.432 27.7867 123.919 28.19C123.442 28.5567 123.057 28.74 122.764 28.74C122.434 28.74 122.159 28.5383 121.939 28.135C121.939 27.7683 122.251 27.42 122.874 27.09C123.497 26.7233 124.194 26.3383 124.964 25.935C125.771 25.495 126.302 25.0183 126.559 24.505C126.706 23.955 126.999 23.625 127.439 23.515C127.659 23.515 127.952 23.6983 128.319 24.065ZM159.166 43.15L159.716 42.6C160.046 42.27 160.431 41.9217 160.871 41.555C161.311 41.1883 161.641 41.005 161.861 41.005C162.155 41.005 162.338 41.0783 162.411 41.225C162.485 41.335 162.521 41.555 162.521 41.885C162.521 42.3617 161.971 43.0767 160.871 44.03C159.808 44.9467 158.781 45.5883 157.791 45.955C157.571 46.065 157.04 46.4683 156.196 47.165C155.353 47.8983 154.62 48.265 153.996 48.265C153.3 48.265 152.713 47.99 152.236 47.44C151.76 46.9267 151.411 46.6333 151.191 46.56C151.081 46.4867 150.843 46.23 150.476 45.79C150.11 45.35 149.706 45.0567 149.266 44.91C149.01 44.6167 148.625 44.2683 148.111 43.865C147.635 43.425 147.305 43.205 147.121 43.205C146.938 43.205 146.425 43.6817 145.581 44.635C144.738 45.5517 144.133 46.01 143.766 46.01C143.583 46.01 143.381 45.9183 143.161 45.735C142.941 45.515 142.831 45.3133 142.831 45.13C142.831 44.8 143.033 44.4517 143.436 44.085C143.84 43.7183 144.115 43.37 144.261 43.04C144.371 42.9667 144.555 42.8383 144.811 42.655C145.068 42.4717 145.27 42.325 145.416 42.215C145.563 42.105 145.71 41.9767 145.856 41.83C146.04 41.6833 146.168 41.555 146.241 41.445C146.351 41.2983 146.406 41.17 146.406 41.06C146.406 40.9867 146.388 40.8767 146.351 40.73C146.351 40.5833 146.351 40.4733 146.351 40.4C146.351 40.2533 146.388 40.0517 146.461 39.795C146.535 39.5017 146.571 39.3 146.571 39.19C146.571 38.97 146.535 38.6583 146.461 38.255C146.425 37.8517 146.406 37.54 146.406 37.32V34.625C146.37 34.4417 146.351 34.1483 146.351 33.745C146.351 33.3417 146.388 33.0483 146.461 32.865C146.461 32.7183 146.443 32.4983 146.406 32.205C146.406 31.9117 146.406 31.6917 146.406 31.545C146.406 31.2517 146.425 31.0317 146.461 30.885C146.461 30.775 146.425 30.6283 146.351 30.445C146.278 30.2617 146.241 30.1333 146.241 30.06C146.241 29.9133 146.26 29.8033 146.296 29.73C146.26 29.6567 146.241 29.565 146.241 29.455C146.241 29.3083 146.278 29.125 146.351 28.905C146.461 28.685 146.516 28.52 146.516 28.41C146.516 28.3367 146.48 28.19 146.406 27.97C146.626 27.6767 147.14 27.3283 147.946 26.925C148.753 26.485 149.395 26.265 149.871 26.265C150.238 26.265 150.678 26.1 151.191 25.77C151.741 25.4033 152.126 25.1833 152.346 25.11C152.823 25 153.428 24.56 154.161 23.79C154.931 22.9833 155.408 22.58 155.591 22.58C155.885 22.58 156.82 23.2767 158.396 24.67C159.973 26.0633 161.036 26.76 161.586 26.76C162.136 26.1733 162.613 25.88 163.016 25.88C163.566 25.9533 163.896 26.1183 164.006 26.375C164.006 26.5583 163.713 26.8883 163.126 27.365C162.54 27.8417 161.898 28.3733 161.201 28.96C160.505 29.51 160.046 29.9317 159.826 30.225L159.496 30.445C159.313 30.5917 159.056 30.7567 158.726 30.94C158.396 31.1233 158.103 31.215 157.846 31.215C157.773 31.215 157.626 31.1783 157.406 31.105C157.26 30.8117 157.076 30.555 156.856 30.335C156.673 30.0783 156.508 29.895 156.361 29.785C156.251 29.675 156.05 29.5283 155.756 29.345C155.5 29.1617 155.298 29.015 155.151 28.905C155.151 28.575 154.84 28.0983 154.216 27.475C153.63 26.8517 153.135 26.54 152.731 26.54C152.401 26.54 152.163 26.7233 152.016 27.09C151.906 27.4567 151.851 27.9333 151.851 28.52C151.851 29.07 151.833 29.4 151.796 29.51C151.906 29.73 151.961 29.9317 151.961 30.115C151.961 30.225 151.943 30.39 151.906 30.61C151.87 30.83 151.851 30.9767 151.851 31.05C151.851 31.3067 151.925 31.5267 152.071 31.71C151.961 31.82 151.906 32.04 151.906 32.37V32.755C151.906 32.865 151.87 33.0117 151.796 33.195C151.76 33.3783 151.741 33.5067 151.741 33.58C151.741 33.69 151.796 33.8733 151.906 34.13C152.016 34.35 152.071 34.5333 152.071 34.68C152.071 34.79 152.053 34.8817 152.016 34.955C152.09 35.175 152.126 35.3583 152.126 35.505C152.126 35.615 152.108 35.7433 152.071 35.89C152.071 36.0367 152.071 36.165 152.071 36.275C152.071 36.4583 152.09 36.5867 152.126 36.66C152.126 36.6967 152.09 36.99 152.016 37.54C151.98 38.09 151.961 38.4933 151.961 38.75C151.961 39.7033 152.383 40.4733 153.226 41.06C154.07 41.61 154.528 41.9767 154.601 42.16C154.785 42.2333 155.206 42.5817 155.866 43.205C156.563 43.8283 157.003 44.14 157.186 44.14C157.443 44.14 157.828 44.0117 158.341 43.755C158.891 43.4617 159.166 43.26 159.166 43.15ZM191.017 40.29C191.127 40.3267 191.219 40.4 191.292 40.51C191.366 40.5833 191.421 40.7117 191.457 40.895C191.531 41.0783 191.586 41.1883 191.622 41.225C191.622 41.7017 191.329 42.215 190.742 42.765C190.156 43.315 189.569 43.6633 188.982 43.81C188.652 44.03 188.176 44.5617 187.552 45.405C186.966 46.2117 186.361 46.6333 185.737 46.67C185.334 47.33 184.784 47.66 184.087 47.66C183.721 47.66 183.281 47.385 182.767 46.835C182.254 46.2483 181.887 45.9 181.667 45.79C181.521 45.68 181.337 45.46 181.117 45.13C180.897 44.7633 180.677 44.47 180.457 44.25C180.237 43.9933 179.981 43.865 179.687 43.865C179.541 44.0117 179.229 44.2683 178.752 44.635C178.276 44.965 177.964 45.24 177.817 45.46C177.707 45.46 177.506 45.6067 177.212 45.9C176.956 46.1933 176.791 46.3583 176.717 46.395C176.461 46.4683 175.911 46.7067 175.067 47.11C174.261 47.55 173.821 47.8067 173.747 47.88C173.674 47.88 173.344 47.6417 172.757 47.165C172.207 46.6883 171.914 46.45 171.877 46.45C170.337 45.35 169.531 44.8 169.457 44.8C169.237 44.8 168.706 45.0567 167.862 45.57C167.056 46.0467 166.506 46.285 166.212 46.285C165.846 46.285 165.662 46.12 165.662 45.79C165.662 45.46 166.231 44.8183 167.367 43.865C168.541 42.9117 169.127 42.1417 169.127 41.555V41.06C169.127 40.8033 169.182 40.5833 169.292 40.4V40.125C169.292 39.2817 169.366 38.64 169.512 38.2C169.586 37.9433 169.732 37.6683 169.952 37.375C170.172 37.045 170.301 36.715 170.337 36.385C170.374 36.165 170.741 35.7983 171.437 35.285C172.171 34.735 172.776 34.3867 173.252 34.24C173.399 34.0567 173.674 33.91 174.077 33.8C174.481 33.6533 174.756 33.5067 174.902 33.36C173.986 32.37 173.527 31.8567 173.527 31.82C173.271 31.4533 172.812 30.9217 172.152 30.225C171.529 29.4917 171.107 28.9783 170.887 28.685C170.447 28.245 170.081 27.64 169.787 26.87C169.531 26.1 169.402 25.4767 169.402 25C169.402 24.1567 169.476 23.5517 169.622 23.185C169.806 22.8183 170.172 22.47 170.722 22.14H170.942C171.199 22.14 171.327 22.2317 171.327 22.415C171.327 22.6717 171.162 22.9283 170.832 23.185C170.796 23.2583 170.777 23.35 170.777 23.46C170.777 24.12 171.089 24.6517 171.712 25.055C172.372 25.4583 173.124 25.66 173.967 25.66H174.352C174.572 25.66 174.902 25.6783 175.342 25.715C175.782 25.715 176.094 25.715 176.277 25.715C177.121 25.715 177.817 25.5683 178.367 25.275C178.917 24.9817 179.376 24.6517 179.742 24.285C180.109 23.8817 180.421 23.625 180.677 23.515C181.301 23.515 182.071 24.1383 182.987 25.385C183.941 26.595 184.527 27.2 184.747 27.2C185.041 27.2 185.627 26.8333 186.507 26.1C187.424 25.3667 188.194 25 188.817 25C189.001 25 189.202 25.0917 189.422 25.275C189.642 25.4583 189.752 25.66 189.752 25.88C189.752 26.1367 189.477 26.4483 188.927 26.815C188.377 27.1817 187.956 27.4017 187.662 27.475C187.516 27.6583 187.021 28.0433 186.177 28.63C185.334 29.2167 184.912 29.8217 184.912 30.445C184.912 30.7017 184.949 31.05 185.022 31.49C184.912 32.81 184.857 33.4883 184.857 33.525C184.857 33.9283 184.912 34.295 185.022 34.625C184.949 34.845 184.894 35.1567 184.857 35.56C184.857 35.9267 184.839 36.2017 184.802 36.385C184.802 36.495 184.857 36.6967 184.967 36.99C185.077 37.2467 185.132 37.4483 185.132 37.595C185.096 37.595 185.059 37.54 185.022 37.43C185.022 37.4667 185.041 37.5583 185.077 37.705C185.114 37.8517 185.132 37.9617 185.132 38.035C185.132 38.1083 185.077 38.2183 184.967 38.365C184.894 38.5117 184.857 38.6217 184.857 38.695C184.857 38.7683 184.894 38.915 184.967 39.135C185.041 39.355 185.077 39.52 185.077 39.63C185.077 39.7033 185.041 39.8317 184.967 40.015C184.931 40.1617 184.912 40.29 184.912 40.4C184.912 40.5467 185.022 40.7483 185.242 41.005C185.499 41.225 185.847 41.5183 186.287 41.885C186.764 42.2517 187.076 42.49 187.222 42.6C187.516 42.5267 187.754 42.4533 187.937 42.38C188.157 42.3067 188.359 42.215 188.542 42.105C188.726 41.9583 188.854 41.8483 188.927 41.775C189.001 41.7017 189.129 41.5733 189.312 41.39C189.532 41.17 189.679 41.0233 189.752 40.95L191.017 40.29ZM173.362 30.225C173.362 30.3717 173.381 30.5183 173.417 30.665C173.491 30.775 173.582 30.9033 173.692 31.05C173.802 31.16 173.876 31.27 173.912 31.38C173.986 31.4533 174.114 31.5633 174.297 31.71C174.481 31.82 174.591 31.8933 174.627 31.93C174.701 31.9667 174.829 32.0583 175.012 32.205C175.232 32.315 175.361 32.3883 175.397 32.425L175.892 33.25C176.332 33.1767 176.644 33.14 176.827 33.14H177.047C177.231 32.9567 177.854 32.865 178.917 32.865C178.734 31.3983 178.642 30.5367 178.642 30.28C178.642 30.06 178.679 29.73 178.752 29.29C178.716 29.07 178.532 28.7583 178.202 28.355C177.909 27.9517 177.707 27.75 177.597 27.75C177.414 27.75 177.121 27.8967 176.717 28.19C176.314 28.4833 176.002 28.6667 175.782 28.74C175.526 29.1433 174.591 29.345 172.977 29.345C172.977 29.4917 173.032 29.675 173.142 29.895C173.289 30.0783 173.362 30.1883 173.362 30.225ZM174.902 41.115C174.902 41.1517 174.884 41.2067 174.847 41.28C174.847 41.3167 174.847 41.3533 174.847 41.39C174.847 41.72 175.049 42.105 175.452 42.545C175.892 42.9483 176.149 43.2233 176.222 43.37L176.552 43.59C176.956 43.1867 177.341 42.875 177.707 42.655C178.111 42.435 178.367 42.2883 178.477 42.215C178.624 42.1417 178.752 41.94 178.862 41.61C178.972 41.2433 179.082 40.6383 179.192 39.795C179.192 39.6483 179.137 39.41 179.027 39.08C178.954 38.7133 178.917 38.4383 178.917 38.255C178.917 38.0717 178.936 37.925 178.972 37.815C178.972 37.705 178.936 37.65 178.862 37.65C178.826 37.6133 178.807 37.54 178.807 37.43C178.807 37.32 178.826 37.2283 178.862 37.155V36.715C178.862 36.4583 178.881 36.0733 178.917 35.56C178.991 35.0467 179.027 34.6617 179.027 34.405C179.027 33.965 178.972 33.745 178.862 33.745C177.872 34.1483 177.194 34.625 176.827 35.175C176.791 35.5417 176.479 36.1467 175.892 36.99C175.342 37.7967 175.067 38.4383 175.067 38.915V39.905C175.067 40.3817 175.012 40.785 174.902 41.115ZM211.493 22.8C211.456 22.8733 211.438 22.9833 211.438 23.13C211.438 23.24 211.474 23.4233 211.548 23.68C211.621 23.9 211.658 24.0833 211.658 24.23C211.658 26.0633 210.796 27.915 209.073 29.785C209.036 29.8583 208.816 30.0967 208.413 30.5C208.009 30.8667 207.808 31.1417 207.808 31.325C207.808 31.4717 208.156 31.82 208.853 32.37C209.549 32.92 210.099 33.25 210.503 33.36L211.713 34.625C212.006 35.175 212.153 35.945 212.153 36.935C212.153 37.155 212.134 37.485 212.098 37.925C212.098 38.365 212.098 38.6767 212.098 38.86C212.098 38.97 212.116 39.1717 212.153 39.465C212.189 39.7217 212.208 39.9233 212.208 40.07C212.208 40.2533 212.171 40.4917 212.098 40.785C212.208 41.0417 212.263 41.3167 212.263 41.61C212.263 41.7567 212.244 41.9767 212.208 42.27C212.171 42.5633 212.153 42.765 212.153 42.875C212.153 42.9483 212.153 43.0217 212.153 43.095C212.189 43.1683 212.208 43.2233 212.208 43.26C211.658 43.9933 210.961 44.3967 210.118 44.47C209.861 44.5067 209.513 44.6533 209.073 44.91C208.633 45.13 208.284 45.2583 208.028 45.295C207.551 45.625 206.726 46.01 205.553 46.45C204.416 46.89 203.628 47.275 203.188 47.605H202.913C202.656 47.605 202.161 47.4033 201.428 47C201.318 46.9267 201.043 46.8533 200.603 46.78C200.163 46.7067 199.851 46.5783 199.668 46.395C199.631 46.395 199.576 46.4133 199.503 46.45C199.429 46.45 199.374 46.45 199.338 46.45C199.044 46.45 198.659 46.395 198.183 46.285C197.706 46.1383 197.339 46.065 197.083 46.065C196.386 46.065 195.708 46.23 195.048 46.56C194.388 46.89 194.003 47.2933 193.893 47.77C193.893 47.8067 193.893 47.8617 193.893 47.935C193.929 48.0083 193.948 48.0633 193.948 48.1C193.984 48.54 194.021 48.87 194.058 49.09C194.131 49.3467 194.314 49.585 194.608 49.805C194.938 50.0617 195.396 50.19 195.983 50.19C196.093 50.19 196.184 50.1717 196.258 50.135C196.368 50.245 196.423 50.41 196.423 50.63C196.423 51.1433 196.313 51.4 196.093 51.4C195.616 51.3633 195.048 51.1617 194.388 50.795C193.728 50.465 193.288 50.0983 193.068 49.695C192.774 49.5483 192.609 49.2183 192.573 48.705C192.573 48.1917 192.499 47.8617 192.353 47.715C192.353 47.6783 192.334 47.6233 192.298 47.55C192.298 47.4767 192.298 47.4217 192.298 47.385C192.298 46.835 192.609 46.2117 193.233 45.515C193.893 44.7817 194.278 44.2683 194.388 43.975C194.644 43.7917 194.956 43.4617 195.323 42.985C195.689 42.4717 196.019 42.1233 196.313 41.94C196.459 41.6833 196.753 41.39 197.193 41.06C197.633 40.73 197.926 40.4917 198.073 40.345C198.109 40.125 198.311 39.9233 198.678 39.74C199.081 39.52 199.283 39.3 199.283 39.08C199.283 38.9333 199.228 38.7867 199.118 38.64C198.934 38.64 198.604 38.365 198.128 37.815C197.688 37.2283 197.119 36.8983 196.423 36.825C196.313 36.7517 196.203 36.5867 196.093 36.33C195.983 36.0733 195.891 35.835 195.818 35.615L195.653 35.285C195.653 35.2117 195.671 35.0283 195.708 34.735C195.744 34.4417 195.763 34.2217 195.763 34.075V33.855C195.763 33.6717 195.708 33.4883 195.598 33.305C195.524 33.085 195.488 32.92 195.488 32.81C195.488 32.59 195.543 32.26 195.653 31.82C195.763 31.38 195.818 31.0683 195.818 30.885C195.818 30.5183 195.744 30.2067 195.598 29.95C195.671 29.18 195.946 28.685 196.423 28.465C196.679 28.4283 197.009 28.245 197.413 27.915C197.853 27.585 198.183 27.4017 198.403 27.365C198.623 27.035 199.044 26.7417 199.668 26.485C200.291 26.2283 200.713 25.99 200.933 25.77C201.189 25.6233 201.611 25.4217 202.198 25.165C202.784 24.8717 203.261 24.615 203.628 24.395C204.031 24.1383 204.343 23.8633 204.563 23.57C204.673 23.5333 204.801 23.4233 204.948 23.24C205.131 23.02 205.278 22.91 205.388 22.91C205.718 22.91 205.938 23.0933 206.048 23.46C206.158 23.8267 206.304 24.0467 206.488 24.12C207.734 24.6333 208.449 24.89 208.633 24.89C209.146 24.89 209.586 24.7433 209.953 24.45C210.319 24.1567 210.503 23.7533 210.503 23.24C210.503 23.13 210.411 22.965 210.228 22.745C210.044 22.525 209.953 22.3417 209.953 22.195C209.953 22.0483 210.081 21.975 210.338 21.975C210.521 21.975 210.741 22.0667 210.998 22.25C211.291 22.3967 211.456 22.58 211.493 22.8ZM201.648 28.355C201.501 28.465 201.409 28.6117 201.373 28.795C201.336 28.9417 201.299 29.125 201.263 29.345C201.263 29.565 201.244 29.73 201.208 29.84C201.318 29.9867 201.373 30.17 201.373 30.39L201.208 31.215C201.318 31.3983 201.373 31.5633 201.373 31.71C201.373 31.82 201.354 31.985 201.318 32.205C201.281 32.425 201.263 32.5717 201.263 32.645C201.263 32.7917 201.556 33.1217 202.143 33.635C202.766 34.1483 203.243 34.405 203.573 34.405C203.683 34.405 203.811 34.35 203.958 34.24C204.141 34.13 204.324 33.965 204.508 33.745C204.691 33.525 204.856 33.3233 205.003 33.14C205.149 32.92 205.333 32.6633 205.553 32.37C205.773 32.0767 205.919 31.875 205.993 31.765C207.569 30.5917 208.358 29.62 208.358 28.85C208.321 28.74 208.193 28.685 207.973 28.685C207.716 28.685 207.331 28.795 206.818 29.015C206.304 29.235 205.864 29.345 205.498 29.345C204.948 29.345 204.251 29.1983 203.408 28.905C202.601 28.6117 202.014 28.4283 201.648 28.355ZM205.333 36.825L204.453 36.055C204.379 36.0183 204.288 36 204.178 36C203.994 36 203.389 36.5317 202.363 37.595C201.373 38.6217 200.859 39.2083 200.823 39.355C200.603 39.7217 200.053 40.125 199.173 40.565C198.329 41.005 197.908 41.3717 197.908 41.665C197.981 41.8117 198.091 41.9033 198.238 41.94C198.384 41.9767 198.549 41.995 198.733 41.995C198.953 41.9583 199.118 41.9583 199.228 41.995C199.448 41.8117 199.759 41.72 200.163 41.72C200.273 41.72 200.438 41.7383 200.658 41.775C200.878 41.775 201.043 41.775 201.153 41.775C201.263 41.7383 201.446 41.72 201.703 41.72C202.033 41.72 202.509 41.83 203.133 42.05C203.756 42.27 204.251 42.38 204.618 42.38C205.241 42.8567 205.718 43.095 206.048 43.095C206.341 43.095 206.488 42.8933 206.488 42.49C206.488 42.4167 206.469 42.3067 206.433 42.16C206.433 42.0133 206.433 41.885 206.433 41.775C206.433 41.7383 206.433 41.665 206.433 41.555C206.469 41.445 206.488 41.3533 206.488 41.28C206.488 41.2067 206.469 41.0783 206.433 40.895C206.433 40.675 206.433 40.51 206.433 40.4C206.433 40.3267 206.433 40.235 206.433 40.125C206.469 40.015 206.488 39.9233 206.488 39.85C206.488 39.7033 206.451 39.4833 206.378 39.19C206.341 38.8967 206.323 38.6767 206.323 38.53C206.323 38.31 206.378 38.09 206.488 37.87C206.488 37.7233 206.433 37.595 206.323 37.485C206.249 37.3383 206.176 37.2467 206.103 37.21C206.029 37.1367 205.883 37.0633 205.663 36.99C205.479 36.88 205.369 36.825 205.333 36.825ZM233.162 42.05C233.162 42.6 232.851 43.15 232.227 43.7C231.641 44.2133 231.072 44.5433 230.522 44.69C230.192 44.8733 229.734 45.3867 229.147 46.23C228.561 47.0367 227.937 47.4767 227.277 47.55C226.874 48.21 226.342 48.54 225.682 48.54C225.389 48.54 225.096 48.43 224.802 48.21C224.509 47.99 224.216 47.6967 223.922 47.33C223.629 46.9633 223.409 46.725 223.262 46.615C223.189 46.5417 222.914 46.2117 222.437 45.625C221.997 45.0383 221.576 44.745 221.172 44.745C220.659 44.745 220.091 45.1667 219.467 46.01C218.844 46.8167 218.404 47.22 218.147 47.22C217.927 47.22 217.689 47.11 217.432 46.89C217.176 46.67 216.956 46.45 216.772 46.23C216.626 46.01 216.552 45.8817 216.552 45.845C216.589 45.845 216.717 45.6983 216.937 45.405C217.194 45.1117 217.524 44.7817 217.927 44.415C218.331 44.0483 218.752 43.7917 219.192 43.645C219.266 43.5717 219.522 43.4067 219.962 43.15C220.402 42.8933 220.641 42.6183 220.677 42.325C220.677 41.5917 220.696 41.0417 220.732 40.675C220.732 40.565 220.696 40.345 220.622 40.015C220.549 39.6483 220.512 39.3733 220.512 39.19C220.512 38.97 220.531 38.805 220.567 38.695L220.512 36.66C220.439 35.3033 220.402 34.2217 220.402 33.415C220.402 32.865 220.421 32.5533 220.457 32.48C220.421 32.37 220.402 31.985 220.402 31.325C220.402 30.4817 220.421 29.785 220.457 29.235C220.457 29.1983 220.439 29.1433 220.402 29.07C220.402 28.96 220.402 28.8683 220.402 28.795C220.402 28.5383 220.457 28.2817 220.567 28.025C220.494 27.805 220.457 27.6583 220.457 27.585C220.127 27.6217 219.651 27.64 219.027 27.64C218.441 27.64 218.001 27.6217 217.707 27.585C217.451 27.5483 217.212 27.42 216.992 27.2C216.772 26.98 216.662 26.65 216.662 26.21C216.662 25.2933 217.139 24.835 218.092 24.835H218.752C219.229 24.835 219.632 24.7433 219.962 24.56C220.109 24.7067 220.292 24.78 220.512 24.78C220.512 24.6333 220.512 24.4317 220.512 24.175C220.549 23.9183 220.567 23.735 220.567 23.625C220.567 21.975 220.531 20.6 220.457 19.5C220.641 19.06 221.062 18.4733 221.722 17.74C222.382 16.4567 223.427 15.1917 224.857 13.945C225.114 13.945 225.444 14.0733 225.847 14.33C226.251 14.5867 226.452 14.77 226.452 14.88C226.452 14.9167 226.416 15.0083 226.342 15.155C226.306 15.265 226.287 15.3567 226.287 15.43C226.287 15.54 226.324 15.705 226.397 15.925C226.507 16.1083 226.562 16.2733 226.562 16.42C226.562 16.4933 226.544 16.64 226.507 16.86C226.507 17.0433 226.507 17.19 226.507 17.3C226.507 17.4467 226.526 17.5567 226.562 17.63C226.379 18.18 226.287 18.565 226.287 18.785C226.287 18.9317 226.324 19.115 226.397 19.335C226.507 19.555 226.562 19.7017 226.562 19.775C226.562 19.8483 226.544 19.9583 226.507 20.105C226.507 20.215 226.507 20.2883 226.507 20.325C226.581 20.765 226.617 21.095 226.617 21.315C226.617 22.7817 226.544 23.8083 226.397 24.395C226.397 24.4317 226.397 24.5233 226.397 24.67C226.434 24.8167 226.471 24.9083 226.507 24.945C226.581 24.945 226.727 24.945 226.947 24.945C227.057 24.945 227.222 24.945 227.442 24.945C227.699 24.9083 227.882 24.89 227.992 24.89C228.139 24.89 228.396 24.9267 228.762 25C228.946 25 229.349 24.945 229.972 24.835C230.632 24.6883 231.036 24.56 231.182 24.45C231.586 24.45 231.787 24.89 231.787 25.77C231.787 26.9067 231.476 27.53 230.852 27.64H230.302C230.046 27.64 229.697 27.6583 229.257 27.695C228.817 27.695 228.506 27.695 228.322 27.695H227.937C227.754 27.7317 227.497 27.75 227.167 27.75C226.837 27.75 226.599 27.7317 226.452 27.695L226.617 27.915C226.581 28.025 226.562 28.1717 226.562 28.355C226.562 28.3917 226.544 28.52 226.507 28.74C226.471 28.9233 226.452 29.1617 226.452 29.455C226.452 29.8583 226.507 30.5917 226.617 31.655C226.617 32.0583 226.636 32.9017 226.672 34.185C226.709 35.4683 226.727 36.5133 226.727 37.32C226.727 37.8333 226.709 38.255 226.672 38.585C226.636 38.915 226.599 39.1167 226.562 39.19C226.562 39.2633 226.544 39.3367 226.507 39.41C226.471 39.4467 226.452 39.5017 226.452 39.575C226.452 39.685 226.489 39.85 226.562 40.07C226.636 40.2533 226.672 40.4 226.672 40.51C226.672 40.5833 226.636 40.7117 226.562 40.895C226.489 41.0417 226.452 41.17 226.452 41.28C226.452 41.5367 227.241 42.2517 228.817 43.425C229.001 43.3883 229.184 43.3517 229.367 43.315C229.551 43.2417 229.697 43.1867 229.807 43.15C229.917 43.0767 230.046 42.985 230.192 42.875C230.376 42.7283 230.486 42.6367 230.522 42.6C230.596 42.5267 230.724 42.3983 230.907 42.215C231.127 41.995 231.256 41.8667 231.292 41.83L232.557 41.115C232.704 41.1517 232.796 41.225 232.832 41.335C232.906 41.445 232.961 41.5917 232.997 41.775C233.071 41.9217 233.126 42.0133 233.162 42.05Z" fill="white"/>
<rect x="-1" y="2" width="48" height="46" rx="11" fill="#C90301"/>
<path d="M14 25.0003V31.9673C14 34.2773 16.534 35.7363 18.597 34.6153L21.8 32.8733M14 21.0003V18.0333C14 15.7233 16.534 14.2643 18.597 15.3853L31.409 22.3533C31.8893 22.6087 32.291 22.99 32.5712 23.4563C32.8514 23.9226 32.9994 24.4563 32.9994 25.0003C32.9994 25.5443 32.8514 26.078 32.5712 26.5443C32.291 27.0106 31.8893 27.3919 31.409 27.6473L25.003 31.1313" fill="white"/>
<path d="M14 25.0003V31.9673C14 34.2773 16.534 35.7363 18.597 34.6153L21.8 32.8733M14 21.0003V18.0333C14 15.7233 16.534 14.2643 18.597 15.3853L31.409 22.3533C31.8893 22.6087 32.291 22.99 32.5712 23.4563C32.8514 23.9226 32.9994 24.4563 32.9994 25.0003C32.9994 25.5443 32.8514 26.078 32.5712 26.5443C32.291 27.0106 31.8893 27.3919 31.409 27.6473L25.003 31.1313" stroke="white" stroke-width="1.5" stroke-linecap="round"/>
</g>
<defs>
<clipPath id="clip0_12534_169">
<rect width="240" height="50" fill="white"/>
</clipPath>
</defs>
</svg>
