<svg xmlns="http://www.w3.org/2000/svg" width="424" height="530" viewBox="0 0 424 530" fill="none"><rect width="424" height="530" rx="5" fill="#F8EAD8"></rect><mask id="mask0_9416_1040" style="mask-type:alpha" maskUnits="userSpaceOnUse" x="0" y="0" width="424" height="530"><rect width="424" height="530" rx="5" fill="#F8EAD8"></rect></mask><g mask="url(#mask0_9416_1040)"><path d="M63.7124 450.894L53.332 452.65L19.6973 414.103L30.0776 412.348L63.7124 450.894Z" fill="#FFC401"></path><path d="M29.6174 403.613L12.8111 406.455L-41.4009 344.44L-24.5945 341.598L29.6174 403.613Z" fill="#FFC401"></path><path d="M126.704 484.647L95.3979 489.94L-5.8916 374.027L25.4143 368.733L126.704 484.647Z" fill="#102153"></path><path d="M99.7182 539.545L68.4123 544.839L-32.7124 428.897L-1.40649 423.604L99.7182 539.545Z" fill="#102153"></path><path d="M161.015 507.148L129.709 512.441L28.4194 396.528L59.7253 391.234L161.015 507.148Z" fill="#FB015A"></path><path d="M51.2695 463.506L19.9636 468.8L-81.1611 352.858L-49.8552 347.565L51.2695 463.506Z" fill="#FB015A"></path><path d="M154.55 550.102L139.391 552.665L90.4131 496.545L105.572 493.982L154.55 550.102Z" fill="white"></path><path d="M64.9277 383.914L49.7691 386.477L0.625977 330.385L15.7846 327.822L64.9277 383.914Z" fill="#FB015A"></path><path d="M193.493 532.84L173.721 536.183L110.032 463.23L129.64 459.914L193.493 532.84Z" fill="#FFC401"></path><path d="M119.347 545.378L99.575 548.721L35.8867 475.768L55.4941 472.452L119.347 545.378Z" fill="#FFC401"></path><path d="M418.722 90.7699L409.257 92.3704L378.587 57.2216L388.052 55.621L418.722 90.7699Z" fill="#FFC401"></path><path d="M387.633 47.6559L372.308 50.2473L322.875 -6.30066L338.2 -8.89203L387.633 47.6559Z" fill="#FFC401"></path><path d="M476.162 121.547L447.615 126.374L355.254 20.6777L383.8 15.8507L476.162 121.547Z" fill="#102153"></path><path d="M451.554 171.606L423.008 176.433L330.797 70.7117L359.343 65.8846L451.554 171.606Z" fill="#102153"></path><path d="M507.448 142.065L478.901 146.892L386.54 41.1953L415.086 36.3682L507.448 142.065Z" fill="#FB015A"></path><path d="M407.377 102.27L378.83 107.097L286.619 1.37549L315.166 -3.45158L407.377 102.27Z" fill="#FB015A"></path><path d="M419.83 29.6937L406.008 32.031L361.196 -19.1169L375.019 -21.4542L419.83 29.6937Z" fill="#FB015A"></path><path d="M350.104 56.9382L332.074 59.9869L274 -6.53589L292.029 -9.58457L350.104 56.9382Z" fill="white"></path><path d="M469.453 176.925L451.424 179.973L393.35 113.451L411.229 110.427L469.453 176.925Z" fill="#FFC401"></path></g><mask id="mask1_9416_1040" style="mask-type:luminance" maskUnits="userSpaceOnUse" x="160" y="321" width="105" height="30"><path d="M261.955 351H163.081C161.377 351 160 349.627 160 347.928V324.072C160 322.373 161.377 321 163.081 321H261.919C263.622 321 264.999 322.373 264.999 324.072V347.928C265.036 349.627 263.658 351 261.955 351Z" fill="white"></path></mask><g mask="url(#mask1_9416_1040)"><path d="M143.871 306.615L165.183 362.241" stroke="url(#paint0_linear_9416_1040)" stroke-width="0.986" stroke-miterlimit="10"></path><path d="M146.046 306.578L167.357 362.205" stroke="url(#paint1_linear_9416_1040)" stroke-width="0.986" stroke-miterlimit="10"></path><path d="M148.221 306.542L169.532 362.169" stroke="url(#paint2_linear_9416_1040)" stroke-width="0.986" stroke-miterlimit="10"></path><path d="M150.396 306.506L171.707 362.133" stroke="url(#paint3_linear_9416_1040)" stroke-width="0.986" stroke-miterlimit="10"></path><path d="M152.569 306.47L173.881 362.096" stroke="url(#paint4_linear_9416_1040)" stroke-width="0.986" stroke-miterlimit="10"></path><path d="M154.744 306.434L176.056 362.06" stroke="url(#paint5_linear_9416_1040)" stroke-width="0.986" stroke-miterlimit="10"></path><path d="M156.919 306.398L178.231 362.024" stroke="url(#paint6_linear_9416_1040)" stroke-width="0.986" stroke-miterlimit="10"></path><path d="M159.13 306.361L180.441 362.024" stroke="url(#paint7_linear_9416_1040)" stroke-width="0.986" stroke-miterlimit="10"></path><path d="M161.305 306.325L182.616 361.988" stroke="url(#paint8_linear_9416_1040)" stroke-width="0.986" stroke-miterlimit="10"></path><path d="M163.479 306.289L184.791 361.952" stroke="url(#paint9_linear_9416_1040)" stroke-width="0.986" stroke-miterlimit="10"></path><path d="M165.653 306.253L186.965 361.916" stroke="url(#paint10_linear_9416_1040)" stroke-width="0.986" stroke-miterlimit="10"></path><path d="M167.828 306.217L189.14 361.88" stroke="url(#paint11_linear_9416_1040)" stroke-width="0.986" stroke-miterlimit="10"></path><path d="M170.003 306.181L191.314 361.843" stroke="url(#paint12_linear_9416_1040)" stroke-width="0.986" stroke-miterlimit="10"></path><path d="M172.178 306.145L193.489 361.807" stroke="url(#paint13_linear_9416_1040)" stroke-width="0.986" stroke-miterlimit="10"></path><path d="M174.389 306.108L195.7 361.771" stroke="url(#paint14_linear_9416_1040)" stroke-width="0.986" stroke-miterlimit="10"></path><path d="M176.563 306.072L197.875 361.735" stroke="url(#paint15_linear_9416_1040)" stroke-width="0.986" stroke-miterlimit="10"></path><path d="M178.738 306.036L200.05 361.699" stroke="url(#paint16_linear_9416_1040)" stroke-width="0.986" stroke-miterlimit="10"></path><path d="M180.912 306L202.224 361.663" stroke="url(#paint17_linear_9416_1040)" stroke-width="0.986" stroke-miterlimit="10"></path><path d="M183.087 305.964L204.398 361.627" stroke="url(#paint18_linear_9416_1040)" stroke-width="0.986" stroke-miterlimit="10"></path><path d="M185.262 305.928L206.573 361.59" stroke="url(#paint19_linear_9416_1040)" stroke-width="0.986" stroke-miterlimit="10"></path><path d="M187.437 305.892L208.784 361.554" stroke="url(#paint20_linear_9416_1040)" stroke-width="0.986" stroke-miterlimit="10"></path><path d="M189.647 305.855L210.959 361.518" stroke="url(#paint21_linear_9416_1040)" stroke-width="0.986" stroke-miterlimit="10"></path><path d="M191.822 305.819L213.134 361.482" stroke="url(#paint22_linear_9416_1040)" stroke-width="0.986" stroke-miterlimit="10"></path><path d="M193.997 305.819L215.309 361.446" stroke="url(#paint23_linear_9416_1040)" stroke-width="0.986" stroke-miterlimit="10"></path><path d="M196.171 305.783L217.482 361.41" stroke="url(#paint24_linear_9416_1040)" stroke-width="0.986" stroke-miterlimit="10"></path><path d="M198.346 305.747L219.657 361.374" stroke="url(#paint25_linear_9416_1040)" stroke-width="0.986" stroke-miterlimit="10"></path><path d="M200.521 305.711L221.832 361.337" stroke="url(#paint26_linear_9416_1040)" stroke-width="0.986" stroke-miterlimit="10"></path><path d="M202.731 305.675L224.043 361.301" stroke="url(#paint27_linear_9416_1040)" stroke-width="0.986" stroke-miterlimit="10"></path><path d="M204.906 305.639L226.218 361.265" stroke="url(#paint28_linear_9416_1040)" stroke-width="0.986" stroke-miterlimit="10"></path><path d="M207.081 305.602L228.393 361.229" stroke="url(#paint29_linear_9416_1040)" stroke-width="0.986" stroke-miterlimit="10"></path><path d="M209.256 305.566L230.567 361.229" stroke="url(#paint30_linear_9416_1040)" stroke-width="0.986" stroke-miterlimit="10"></path><path d="M211.43 305.53L232.741 361.193" stroke="url(#paint31_linear_9416_1040)" stroke-width="0.986" stroke-miterlimit="10"></path><path d="M213.604 305.494L234.916 361.157" stroke="url(#paint32_linear_9416_1040)" stroke-width="0.986" stroke-miterlimit="10"></path><path d="M215.779 305.458L237.091 361.121" stroke="url(#paint33_linear_9416_1040)" stroke-width="0.986" stroke-miterlimit="10"></path><path d="M217.99 305.422L239.302 361.084" stroke="url(#paint34_linear_9416_1040)" stroke-width="0.986" stroke-miterlimit="10"></path><path d="M220.165 305.385L241.477 361.048" stroke="url(#paint35_linear_9416_1040)" stroke-width="0.986" stroke-miterlimit="10"></path><path d="M222.34 305.349L243.651 361.012" stroke="url(#paint36_linear_9416_1040)" stroke-width="0.986" stroke-miterlimit="10"></path><path d="M224.515 305.313L245.826 360.976" stroke="url(#paint37_linear_9416_1040)" stroke-width="0.986" stroke-miterlimit="10"></path><path d="M226.688 305.277L248 360.94" stroke="url(#paint38_linear_9416_1040)" stroke-width="0.986" stroke-miterlimit="10"></path><path d="M228.863 305.241L250.175 360.904" stroke="url(#paint39_linear_9416_1040)" stroke-width="0.986" stroke-miterlimit="10"></path><path d="M231.038 305.205L252.35 360.867" stroke="url(#paint40_linear_9416_1040)" stroke-width="0.986" stroke-miterlimit="10"></path><path d="M233.249 305.169L254.561 360.831" stroke="url(#paint41_linear_9416_1040)" stroke-width="0.986" stroke-miterlimit="10"></path><path d="M235.424 305.133L256.735 360.795" stroke="url(#paint42_linear_9416_1040)" stroke-width="0.986" stroke-miterlimit="10"></path><path d="M237.599 305.096L258.91 360.759" stroke="url(#paint43_linear_9416_1040)" stroke-width="0.986" stroke-miterlimit="10"></path><path d="M239.773 305.06L261.085 360.723" stroke="url(#paint44_linear_9416_1040)" stroke-width="0.986" stroke-miterlimit="10"></path><path d="M241.947 305.024L263.259 360.687" stroke="url(#paint45_linear_9416_1040)" stroke-width="0.986" stroke-miterlimit="10"></path><path d="M244.122 304.988L265.434 360.651" stroke="url(#paint46_linear_9416_1040)" stroke-width="0.986" stroke-miterlimit="10"></path><path d="M246.297 304.988L267.608 360.614" stroke="url(#paint47_linear_9416_1040)" stroke-width="0.986" stroke-miterlimit="10"></path><path d="M248.508 304.952L269.819 360.578" stroke="url(#paint48_linear_9416_1040)" stroke-width="0.986" stroke-miterlimit="10"></path><path d="M250.683 304.916L271.994 360.542" stroke="url(#paint49_linear_9416_1040)" stroke-width="0.986" stroke-miterlimit="10"></path><path d="M252.857 304.88L274.169 360.506" stroke="url(#paint50_linear_9416_1040)" stroke-width="0.986" stroke-miterlimit="10"></path><path d="M255.032 304.843L276.344 360.47" stroke="url(#paint51_linear_9416_1040)" stroke-width="0.986" stroke-miterlimit="10"></path><path d="M257.206 304.807L278.518 360.434" stroke="#8600BF" stroke-width="0.986" stroke-miterlimit="10"></path></g><rect x="162" y="308" width="100" height="40" rx="5" fill="#FFC401"></rect><path d="M181.948 333V322.091H186.316C187.119 322.091 187.788 322.21 188.324 322.448C188.86 322.686 189.263 323.016 189.533 323.439C189.803 323.858 189.938 324.341 189.938 324.887C189.938 325.314 189.853 325.688 189.683 326.011C189.512 326.331 189.278 326.594 188.979 326.8C188.685 327.002 188.347 327.146 187.967 327.231V327.338C188.383 327.355 188.772 327.473 189.134 327.689C189.5 327.906 189.796 328.21 190.023 328.6C190.251 328.987 190.364 329.449 190.364 329.985C190.364 330.564 190.221 331.081 189.933 331.535C189.649 331.986 189.228 332.343 188.67 332.606C188.113 332.869 187.426 333 186.609 333H181.948ZM184.255 331.114H186.135C186.778 331.114 187.246 330.992 187.541 330.747C187.836 330.498 187.983 330.168 187.983 329.756C187.983 329.454 187.911 329.188 187.765 328.957C187.619 328.726 187.412 328.545 187.142 328.414C186.875 328.282 186.558 328.217 186.188 328.217H184.255V331.114ZM184.255 326.656H185.964C186.281 326.656 186.561 326.601 186.806 326.491C187.055 326.377 187.25 326.217 187.392 326.011C187.538 325.805 187.61 325.559 187.61 325.271C187.61 324.877 187.47 324.559 187.19 324.317C186.913 324.076 186.518 323.955 186.007 323.955H184.255V326.656ZM191.226 322.091H193.809L196.297 326.789H196.403L198.891 322.091H201.475L197.495 329.143V333H195.205V329.143L191.226 322.091ZM215.331 322.091V333H213.338L208.592 326.134H208.512V333H206.206V322.091H208.23L212.939 328.952H213.035V322.091H215.331ZM227.261 327.545C227.261 328.735 227.036 329.747 226.585 330.582C226.137 331.416 225.526 332.054 224.752 332.494C223.982 332.931 223.115 333.149 222.153 333.149C221.183 333.149 220.313 332.929 219.543 332.489C218.772 332.048 218.163 331.411 217.716 330.576C217.268 329.742 217.044 328.732 217.044 327.545C217.044 326.356 217.268 325.344 217.716 324.509C218.163 323.675 218.772 323.039 219.543 322.602C220.313 322.162 221.183 321.942 222.153 321.942C223.115 321.942 223.982 322.162 224.752 322.602C225.526 323.039 226.137 323.675 226.585 324.509C227.036 325.344 227.261 326.356 227.261 327.545ZM224.923 327.545C224.923 326.775 224.807 326.125 224.576 325.596C224.349 325.067 224.028 324.665 223.612 324.392C223.197 324.119 222.71 323.982 222.153 323.982C221.595 323.982 221.109 324.119 220.693 324.392C220.278 324.665 219.955 325.067 219.724 325.596C219.497 326.125 219.383 326.775 219.383 327.545C219.383 328.316 219.497 328.966 219.724 329.495C219.955 330.024 220.278 330.425 220.693 330.699C221.109 330.972 221.595 331.109 222.153 331.109C222.71 331.109 223.197 330.972 223.612 330.699C224.028 330.425 224.349 330.024 224.576 329.495C224.807 328.966 224.923 328.316 224.923 327.545ZM231.015 333L227.894 322.091H230.413L232.219 329.671H232.309L234.302 322.091H236.459L238.446 329.687H238.542L240.347 322.091H242.867L239.746 333H237.498L235.42 325.868H235.335L233.263 333H231.015Z" fill="#560146"></path><path d="M96.8114 234.545V252H93.9989L85.7745 240.111H85.6296V252H82.4677V234.545H85.2972L93.5131 246.443H93.6665V234.545H96.8114ZM105.916 252.256C104.603 252.256 103.47 251.983 102.515 251.438C101.566 250.886 100.836 250.108 100.325 249.102C99.8136 248.091 99.5579 246.901 99.5579 245.531C99.5579 244.185 99.8136 243.003 100.325 241.986C100.842 240.963 101.564 240.168 102.49 239.599C103.416 239.026 104.504 238.739 105.754 238.739C106.561 238.739 107.322 238.869 108.038 239.131C108.76 239.386 109.396 239.784 109.947 240.324C110.504 240.864 110.941 241.551 111.26 242.386C111.578 243.216 111.737 244.205 111.737 245.352V246.298H101.007V244.219H108.779C108.774 243.628 108.646 243.102 108.396 242.642C108.146 242.176 107.797 241.81 107.348 241.543C106.904 241.276 106.387 241.142 105.797 241.142C105.166 241.142 104.612 241.295 104.135 241.602C103.657 241.903 103.285 242.301 103.018 242.795C102.757 243.284 102.623 243.821 102.618 244.406V246.222C102.618 246.983 102.757 247.636 103.035 248.182C103.314 248.722 103.703 249.136 104.203 249.426C104.703 249.71 105.288 249.852 105.958 249.852C106.407 249.852 106.814 249.79 107.177 249.665C107.541 249.534 107.856 249.344 108.123 249.094C108.39 248.844 108.592 248.534 108.728 248.165L111.609 248.489C111.427 249.25 111.081 249.915 110.569 250.483C110.064 251.045 109.416 251.483 108.626 251.795C107.836 252.102 106.933 252.256 105.916 252.256ZM116.978 252L113.279 238.909H116.424L118.725 248.114H118.845L121.197 238.909H124.308L126.66 248.062H126.788L129.055 238.909H132.208L128.501 252H125.288L122.833 243.153H122.654L120.2 252H116.978ZM144.709 242.369L141.897 242.676C141.817 242.392 141.678 242.125 141.479 241.875C141.286 241.625 141.025 241.423 140.695 241.27C140.365 241.116 139.962 241.04 139.485 241.04C138.843 241.04 138.303 241.179 137.865 241.457C137.434 241.736 137.221 242.097 137.226 242.54C137.221 242.92 137.36 243.23 137.644 243.469C137.934 243.707 138.411 243.903 139.076 244.057L141.309 244.534C142.547 244.801 143.468 245.224 144.07 245.804C144.678 246.384 144.985 247.142 144.99 248.08C144.985 248.903 144.743 249.631 144.266 250.261C143.794 250.886 143.138 251.375 142.297 251.727C141.456 252.08 140.49 252.256 139.4 252.256C137.797 252.256 136.507 251.92 135.53 251.25C134.553 250.574 133.971 249.634 133.783 248.429L136.792 248.139C136.928 248.73 137.218 249.176 137.661 249.477C138.104 249.778 138.681 249.929 139.391 249.929C140.124 249.929 140.712 249.778 141.155 249.477C141.604 249.176 141.828 248.804 141.828 248.361C141.828 247.986 141.684 247.676 141.394 247.432C141.11 247.187 140.667 247 140.064 246.869L137.831 246.401C136.576 246.139 135.647 245.699 135.044 245.08C134.442 244.455 134.144 243.665 134.15 242.71C134.144 241.903 134.363 241.205 134.806 240.614C135.255 240.017 135.877 239.557 136.672 239.233C137.473 238.903 138.397 238.739 139.442 238.739C140.976 238.739 142.184 239.065 143.064 239.719C143.951 240.372 144.499 241.256 144.709 242.369ZM158.703 252.256C157.51 252.256 156.485 252.04 155.627 251.608C154.769 251.176 154.107 250.594 153.641 249.861C153.181 249.122 152.951 248.29 152.951 247.364C152.951 246.665 153.093 246.045 153.377 245.506C153.667 244.966 154.064 244.466 154.57 244.006C155.081 243.545 155.672 243.088 156.343 242.634L159.436 240.528C159.891 240.233 160.235 239.92 160.468 239.591C160.706 239.261 160.826 238.875 160.826 238.432C160.826 238.057 160.667 237.702 160.348 237.366C160.036 237.031 159.604 236.864 159.053 236.864C158.684 236.864 158.357 236.952 158.073 237.128C157.794 237.298 157.576 237.523 157.417 237.801C157.263 238.08 157.186 238.375 157.186 238.688C157.186 239.068 157.292 239.455 157.502 239.847C157.718 240.239 157.996 240.645 158.337 241.065C158.684 241.486 159.053 241.932 159.445 242.403L167.635 252H164.294L157.493 244.21C156.988 243.619 156.499 243.037 156.027 242.463C155.561 241.889 155.178 241.293 154.877 240.673C154.581 240.048 154.434 239.372 154.434 238.645C154.434 237.821 154.624 237.085 155.005 236.438C155.385 235.784 155.917 235.27 156.598 234.895C157.286 234.52 158.09 234.332 159.01 234.332C159.931 234.332 160.721 234.514 161.38 234.878C162.039 235.241 162.547 235.724 162.905 236.327C163.263 236.929 163.442 237.585 163.442 238.295C163.442 239.119 163.238 239.858 162.828 240.511C162.419 241.159 161.851 241.747 161.124 242.276L157.596 244.858C157.016 245.278 156.601 245.705 156.351 246.136C156.101 246.562 155.976 246.926 155.976 247.227C155.976 247.687 156.093 248.105 156.326 248.48C156.559 248.855 156.885 249.156 157.306 249.384C157.732 249.605 158.229 249.716 158.797 249.716C159.422 249.716 160.039 249.577 160.647 249.298C161.255 249.014 161.809 248.611 162.309 248.088C162.809 247.565 163.206 246.94 163.502 246.213C163.797 245.48 163.945 244.668 163.945 243.776H166.596C166.596 244.878 166.473 245.838 166.229 246.656C165.985 247.469 165.669 248.156 165.283 248.719C164.897 249.276 164.488 249.722 164.056 250.057C163.919 250.153 163.789 250.25 163.664 250.347C163.539 250.443 163.408 250.54 163.272 250.636C162.658 251.193 161.939 251.602 161.115 251.864C160.297 252.125 159.493 252.256 158.703 252.256ZM175.491 234.545H179.36L184.542 247.193H184.747L189.929 234.545H193.798V252H190.764V240.009H190.602L185.778 251.949H183.511L178.687 239.983H178.525V252H175.491V234.545ZM200.872 252.264C200.042 252.264 199.295 252.116 198.63 251.821C197.971 251.52 197.449 251.077 197.062 250.491C196.681 249.906 196.491 249.185 196.491 248.327C196.491 247.588 196.627 246.977 196.9 246.494C197.173 246.011 197.545 245.625 198.017 245.335C198.488 245.045 199.02 244.827 199.61 244.679C200.207 244.526 200.824 244.415 201.46 244.347C202.227 244.267 202.849 244.196 203.326 244.134C203.804 244.065 204.15 243.963 204.366 243.827C204.588 243.685 204.699 243.466 204.699 243.17V243.119C204.699 242.477 204.508 241.98 204.127 241.628C203.747 241.276 203.199 241.099 202.483 241.099C201.727 241.099 201.127 241.264 200.684 241.594C200.247 241.923 199.951 242.312 199.798 242.761L196.917 242.352C197.145 241.557 197.52 240.892 198.042 240.358C198.565 239.818 199.204 239.415 199.96 239.148C200.716 238.875 201.551 238.739 202.466 238.739C203.096 238.739 203.724 238.812 204.349 238.96C204.974 239.108 205.545 239.352 206.062 239.693C206.579 240.028 206.994 240.486 207.306 241.065C207.625 241.645 207.784 242.369 207.784 243.239V252H204.818V250.202H204.716C204.528 250.565 204.264 250.906 203.923 251.224C203.588 251.537 203.164 251.79 202.653 251.983C202.147 252.17 201.554 252.264 200.872 252.264ZM201.673 249.997C202.292 249.997 202.829 249.875 203.284 249.631C203.738 249.381 204.088 249.051 204.332 248.642C204.582 248.233 204.707 247.787 204.707 247.304V245.761C204.61 245.841 204.446 245.915 204.213 245.983C203.985 246.051 203.73 246.111 203.446 246.162C203.162 246.213 202.88 246.259 202.602 246.298C202.324 246.338 202.082 246.372 201.877 246.401C201.417 246.463 201.005 246.565 200.642 246.707C200.278 246.849 199.991 247.048 199.781 247.304C199.571 247.554 199.466 247.878 199.466 248.276C199.466 248.844 199.673 249.273 200.088 249.562C200.502 249.852 201.031 249.997 201.673 249.997ZM216.579 257.182C215.471 257.182 214.52 257.031 213.724 256.73C212.929 256.435 212.289 256.037 211.806 255.537C211.324 255.037 210.988 254.483 210.801 253.875L213.579 253.202C213.704 253.457 213.886 253.71 214.125 253.96C214.363 254.216 214.684 254.426 215.088 254.591C215.497 254.761 216.011 254.847 216.63 254.847C217.505 254.847 218.23 254.634 218.804 254.207C219.377 253.787 219.664 253.094 219.664 252.128V249.648H219.511C219.352 249.966 219.119 250.293 218.812 250.628C218.511 250.963 218.11 251.244 217.61 251.472C217.116 251.699 216.494 251.812 215.744 251.812C214.738 251.812 213.826 251.577 213.008 251.105C212.196 250.628 211.548 249.918 211.065 248.974C210.588 248.026 210.349 246.838 210.349 245.412C210.349 243.974 210.588 242.761 211.065 241.773C211.548 240.778 212.199 240.026 213.017 239.514C213.835 238.997 214.747 238.739 215.752 238.739C216.52 238.739 217.15 238.869 217.645 239.131C218.145 239.386 218.542 239.696 218.838 240.06C219.133 240.418 219.358 240.756 219.511 241.074H219.681V238.909H222.724V252.213C222.724 253.332 222.457 254.259 221.923 254.991C221.389 255.724 220.659 256.273 219.733 256.636C218.806 257 217.755 257.182 216.579 257.182ZM216.605 249.392C217.258 249.392 217.815 249.233 218.275 248.915C218.735 248.597 219.085 248.139 219.324 247.543C219.562 246.946 219.681 246.23 219.681 245.395C219.681 244.571 219.562 243.849 219.324 243.23C219.091 242.611 218.744 242.131 218.284 241.79C217.829 241.443 217.27 241.27 216.605 241.27C215.917 241.27 215.343 241.449 214.883 241.807C214.423 242.165 214.076 242.656 213.843 243.281C213.61 243.901 213.494 244.605 213.494 245.395C213.494 246.196 213.61 246.898 213.843 247.5C214.082 248.097 214.431 248.562 214.892 248.898C215.358 249.227 215.929 249.392 216.605 249.392ZM229.653 252.264C228.824 252.264 228.076 252.116 227.412 251.821C226.752 251.52 226.23 251.077 225.843 250.491C225.463 249.906 225.272 249.185 225.272 248.327C225.272 247.588 225.409 246.977 225.681 246.494C225.954 246.011 226.326 245.625 226.798 245.335C227.27 245.045 227.801 244.827 228.392 244.679C228.988 244.526 229.605 244.415 230.241 244.347C231.008 244.267 231.63 244.196 232.108 244.134C232.585 244.065 232.931 243.963 233.147 243.827C233.369 243.685 233.48 243.466 233.48 243.17V243.119C233.48 242.477 233.289 241.98 232.909 241.628C232.528 241.276 231.98 241.099 231.264 241.099C230.508 241.099 229.909 241.264 229.466 241.594C229.028 241.923 228.733 242.312 228.579 242.761L225.699 242.352C225.926 241.557 226.301 240.892 226.824 240.358C227.346 239.818 227.985 239.415 228.741 239.148C229.497 238.875 230.332 238.739 231.247 238.739C231.877 238.739 232.505 238.812 233.13 238.96C233.755 239.108 234.326 239.352 234.843 239.693C235.36 240.028 235.775 240.486 236.088 241.065C236.406 241.645 236.565 242.369 236.565 243.239V252H233.599V250.202H233.497C233.309 250.565 233.045 250.906 232.704 251.224C232.369 251.537 231.946 251.79 231.434 251.983C230.929 252.17 230.335 252.264 229.653 252.264ZM230.454 249.997C231.074 249.997 231.61 249.875 232.065 249.631C232.52 249.381 232.869 249.051 233.113 248.642C233.363 248.233 233.488 247.787 233.488 247.304V245.761C233.392 245.841 233.227 245.915 232.994 245.983C232.767 246.051 232.511 246.111 232.227 246.162C231.943 246.213 231.662 246.259 231.383 246.298C231.105 246.338 230.863 246.372 230.659 246.401C230.199 246.463 229.787 246.565 229.423 246.707C229.059 246.849 228.772 247.048 228.562 247.304C228.352 247.554 228.247 247.878 228.247 248.276C228.247 248.844 228.454 249.273 228.869 249.562C229.284 249.852 229.812 249.997 230.454 249.997ZM239.497 252V250.04L246.247 241.577V241.466H239.718V238.909H250.022V241.014L243.596 249.332V249.443H250.244V252H239.497ZM253.144 252V238.909H256.229V252H253.144ZM254.695 237.051C254.206 237.051 253.786 236.889 253.434 236.565C253.081 236.236 252.905 235.841 252.905 235.381C252.905 234.915 253.081 234.52 253.434 234.196C253.786 233.866 254.206 233.702 254.695 233.702C255.189 233.702 255.61 233.866 255.956 234.196C256.309 234.52 256.485 234.915 256.485 235.381C256.485 235.841 256.309 236.236 255.956 236.565C255.61 236.889 255.189 237.051 254.695 237.051ZM262.487 244.33V252H259.402V238.909H262.35V241.134H262.504C262.805 240.401 263.285 239.818 263.944 239.386C264.609 238.955 265.43 238.739 266.407 238.739C267.311 238.739 268.098 238.932 268.768 239.318C269.444 239.705 269.967 240.264 270.336 240.997C270.711 241.73 270.896 242.619 270.89 243.665V252H267.805V244.142C267.805 243.267 267.578 242.582 267.123 242.088C266.674 241.594 266.052 241.347 265.257 241.347C264.717 241.347 264.237 241.466 263.816 241.705C263.402 241.937 263.075 242.276 262.836 242.719C262.603 243.162 262.487 243.699 262.487 244.33ZM279.822 252.256C278.51 252.256 277.376 251.983 276.422 251.438C275.473 250.886 274.743 250.108 274.231 249.102C273.72 248.091 273.464 246.901 273.464 245.531C273.464 244.185 273.72 243.003 274.231 241.986C274.748 240.963 275.47 240.168 276.396 239.599C277.322 239.026 278.41 238.739 279.66 238.739C280.467 238.739 281.228 238.869 281.944 239.131C282.666 239.386 283.302 239.784 283.853 240.324C284.41 240.864 284.848 241.551 285.166 242.386C285.484 243.216 285.643 244.205 285.643 245.352V246.298H274.913V244.219H282.686C282.68 243.628 282.552 243.102 282.302 242.642C282.052 242.176 281.703 241.81 281.254 241.543C280.811 241.276 280.294 241.142 279.703 241.142C279.072 241.142 278.518 241.295 278.041 241.602C277.564 241.903 277.191 242.301 276.924 242.795C276.663 243.284 276.529 243.821 276.524 244.406V246.222C276.524 246.983 276.663 247.636 276.941 248.182C277.22 248.722 277.609 249.136 278.109 249.426C278.609 249.71 279.194 249.852 279.865 249.852C280.314 249.852 280.72 249.79 281.083 249.665C281.447 249.534 281.762 249.344 282.029 249.094C282.297 248.844 282.498 248.534 282.635 248.165L285.515 248.489C285.333 249.25 284.987 249.915 284.475 250.483C283.97 251.045 283.322 251.483 282.532 251.795C281.743 252.102 280.839 252.256 279.822 252.256ZM294.343 252V234.545H301.025C302.286 234.545 303.334 234.744 304.169 235.142C305.01 235.534 305.638 236.071 306.053 236.753C306.473 237.435 306.684 238.207 306.684 239.071C306.684 239.781 306.547 240.389 306.275 240.895C306.002 241.395 305.635 241.801 305.175 242.114C304.715 242.426 304.201 242.651 303.632 242.787V242.957C304.252 242.991 304.846 243.182 305.414 243.528C305.988 243.869 306.456 244.352 306.82 244.977C307.184 245.602 307.365 246.358 307.365 247.244C307.365 248.148 307.147 248.96 306.709 249.682C306.272 250.398 305.613 250.963 304.732 251.378C303.851 251.793 302.743 252 301.408 252H294.343ZM297.505 249.358H300.905C302.053 249.358 302.88 249.139 303.385 248.702C303.897 248.259 304.152 247.69 304.152 246.997C304.152 246.48 304.025 246.014 303.769 245.599C303.513 245.179 303.15 244.849 302.678 244.611C302.206 244.366 301.644 244.244 300.99 244.244H297.505V249.358ZM297.505 241.969H300.632C301.178 241.969 301.669 241.869 302.107 241.67C302.544 241.466 302.888 241.179 303.138 240.81C303.394 240.435 303.522 239.991 303.522 239.48C303.522 238.804 303.283 238.247 302.806 237.81C302.334 237.372 301.632 237.153 300.701 237.153H297.505V241.969ZM313.065 234.545V252H309.98V234.545H313.065ZM321.948 252.256C320.669 252.256 319.561 251.974 318.624 251.412C317.686 250.849 316.959 250.062 316.442 249.051C315.931 248.04 315.675 246.858 315.675 245.506C315.675 244.153 315.931 242.969 316.442 241.952C316.959 240.935 317.686 240.145 318.624 239.582C319.561 239.02 320.669 238.739 321.948 238.739C323.226 238.739 324.334 239.02 325.272 239.582C326.209 240.145 326.934 240.935 327.445 241.952C327.962 242.969 328.221 244.153 328.221 245.506C328.221 246.858 327.962 248.04 327.445 249.051C326.934 250.062 326.209 250.849 325.272 251.412C324.334 251.974 323.226 252.256 321.948 252.256ZM321.965 249.784C322.658 249.784 323.238 249.594 323.703 249.213C324.169 248.827 324.516 248.31 324.743 247.662C324.976 247.014 325.093 246.293 325.093 245.497C325.093 244.696 324.976 243.972 324.743 243.324C324.516 242.67 324.169 242.151 323.703 241.764C323.238 241.378 322.658 241.185 321.965 241.185C321.255 241.185 320.664 241.378 320.192 241.764C319.726 242.151 319.377 242.67 319.144 243.324C318.917 243.972 318.803 244.696 318.803 245.497C318.803 246.293 318.917 247.014 319.144 247.662C319.377 248.31 319.726 248.827 320.192 249.213C320.664 249.594 321.255 249.784 321.965 249.784ZM336.532 257.182C335.424 257.182 334.473 257.031 333.677 256.73C332.882 256.435 332.243 256.037 331.76 255.537C331.277 255.037 330.941 254.483 330.754 253.875L333.532 253.202C333.657 253.457 333.839 253.71 334.078 253.96C334.316 254.216 334.637 254.426 335.041 254.591C335.45 254.761 335.964 254.847 336.583 254.847C337.458 254.847 338.183 254.634 338.757 254.207C339.331 253.787 339.618 253.094 339.618 252.128V249.648H339.464C339.305 249.966 339.072 250.293 338.765 250.628C338.464 250.963 338.064 251.244 337.564 251.472C337.069 251.699 336.447 251.812 335.697 251.812C334.691 251.812 333.779 251.577 332.961 251.105C332.149 250.628 331.501 249.918 331.018 248.974C330.541 248.026 330.302 246.838 330.302 245.412C330.302 243.974 330.541 242.761 331.018 241.773C331.501 240.778 332.152 240.026 332.97 239.514C333.788 238.997 334.7 238.739 335.706 238.739C336.473 238.739 337.103 238.869 337.598 239.131C338.098 239.386 338.495 239.696 338.791 240.06C339.086 240.418 339.311 240.756 339.464 241.074H339.635V238.909H342.677V252.213C342.677 253.332 342.41 254.259 341.876 254.991C341.342 255.724 340.612 256.273 339.686 256.636C338.76 257 337.708 257.182 336.532 257.182ZM336.558 249.392C337.211 249.392 337.768 249.233 338.228 248.915C338.689 248.597 339.038 248.139 339.277 247.543C339.515 246.946 339.635 246.23 339.635 245.395C339.635 244.571 339.515 243.849 339.277 243.23C339.044 242.611 338.697 242.131 338.237 241.79C337.782 241.443 337.223 241.27 336.558 241.27C335.87 241.27 335.297 241.449 334.836 241.807C334.376 242.165 334.029 242.656 333.797 243.281C333.564 243.901 333.447 244.605 333.447 245.395C333.447 246.196 333.564 246.898 333.797 247.5C334.035 248.097 334.385 248.562 334.845 248.898C335.311 249.227 335.882 249.392 336.558 249.392ZM111.383 282L106.457 264.545H109.858L113.002 277.372H113.164L116.522 264.545H119.616L122.983 277.381H123.136L126.281 264.545H129.681L124.755 282H121.636L118.142 269.753H118.005L114.502 282H111.383ZM136.112 282.256C134.833 282.256 133.725 281.974 132.788 281.412C131.85 280.849 131.123 280.062 130.606 279.051C130.095 278.04 129.839 276.858 129.839 275.506C129.839 274.153 130.095 272.969 130.606 271.952C131.123 270.935 131.85 270.145 132.788 269.582C133.725 269.02 134.833 268.739 136.112 268.739C137.39 268.739 138.498 269.02 139.436 269.582C140.373 270.145 141.098 270.935 141.609 271.952C142.126 272.969 142.385 274.153 142.385 275.506C142.385 276.858 142.126 278.04 141.609 279.051C141.098 280.062 140.373 280.849 139.436 281.412C138.498 281.974 137.39 282.256 136.112 282.256ZM136.129 279.784C136.822 279.784 137.402 279.594 137.868 279.213C138.333 278.827 138.68 278.31 138.907 277.662C139.14 277.014 139.257 276.293 139.257 275.497C139.257 274.696 139.14 273.972 138.907 273.324C138.68 272.67 138.333 272.151 137.868 271.764C137.402 271.378 136.822 271.185 136.129 271.185C135.419 271.185 134.828 271.378 134.356 271.764C133.89 272.151 133.541 272.67 133.308 273.324C133.081 273.972 132.967 274.696 132.967 275.497C132.967 276.293 133.081 277.014 133.308 277.662C133.541 278.31 133.89 278.827 134.356 279.213C134.828 279.594 135.419 279.784 136.129 279.784ZM145.003 282V268.909H147.995V271.091H148.131C148.37 270.335 148.779 269.753 149.358 269.344C149.944 268.929 150.611 268.722 151.361 268.722C151.532 268.722 151.722 268.73 151.932 268.747C152.148 268.759 152.327 268.778 152.469 268.807V271.645C152.338 271.599 152.131 271.56 151.847 271.526C151.569 271.486 151.299 271.466 151.037 271.466C150.475 271.466 149.969 271.588 149.52 271.832C149.077 272.071 148.728 272.403 148.472 272.83C148.216 273.256 148.088 273.747 148.088 274.304V282H145.003ZM158.838 282.23C157.809 282.23 156.889 281.966 156.076 281.438C155.264 280.909 154.622 280.142 154.15 279.136C153.679 278.131 153.443 276.909 153.443 275.472C153.443 274.017 153.681 272.79 154.159 271.79C154.642 270.784 155.292 270.026 156.11 269.514C156.929 268.997 157.841 268.739 158.846 268.739C159.613 268.739 160.244 268.869 160.738 269.131C161.233 269.386 161.625 269.696 161.914 270.06C162.204 270.418 162.429 270.756 162.588 271.074H162.716V264.545H165.809V282H162.775V279.938H162.588C162.429 280.256 162.199 280.594 161.897 280.952C161.596 281.304 161.199 281.605 160.704 281.855C160.21 282.105 159.588 282.23 158.838 282.23ZM159.699 279.699C160.352 279.699 160.909 279.523 161.369 279.17C161.829 278.812 162.179 278.315 162.417 277.679C162.656 277.043 162.775 276.301 162.775 275.455C162.775 274.608 162.656 273.872 162.417 273.247C162.184 272.622 161.838 272.136 161.377 271.79C160.923 271.443 160.363 271.27 159.699 271.27C159.011 271.27 158.437 271.449 157.977 271.807C157.517 272.165 157.17 272.659 156.937 273.29C156.704 273.92 156.588 274.642 156.588 275.455C156.588 276.273 156.704 277.003 156.937 277.645C157.176 278.281 157.525 278.784 157.985 279.153C158.451 279.517 159.022 279.699 159.699 279.699ZM169.233 282V264.545H175.779C177.12 264.545 178.245 264.795 179.154 265.295C180.069 265.795 180.759 266.483 181.225 267.358C181.696 268.227 181.932 269.216 181.932 270.324C181.932 271.443 181.696 272.437 181.225 273.307C180.753 274.176 180.057 274.861 179.137 275.361C178.216 275.855 177.083 276.102 175.736 276.102H171.398V273.503H175.31C176.094 273.503 176.736 273.366 177.236 273.094C177.736 272.821 178.105 272.446 178.344 271.969C178.588 271.491 178.711 270.943 178.711 270.324C178.711 269.705 178.588 269.159 178.344 268.688C178.105 268.216 177.733 267.849 177.228 267.588C176.728 267.321 176.083 267.188 175.293 267.188H172.395V282H169.233ZM184.542 282V268.909H187.534V271.091H187.67C187.909 270.335 188.318 269.753 188.897 269.344C189.483 268.929 190.15 268.722 190.9 268.722C191.071 268.722 191.261 268.73 191.471 268.747C191.687 268.759 191.866 268.778 192.008 268.807V271.645C191.877 271.599 191.67 271.56 191.386 271.526C191.108 271.486 190.838 271.466 190.576 271.466C190.014 271.466 189.508 271.588 189.059 271.832C188.616 272.071 188.267 272.403 188.011 272.83C187.755 273.256 187.627 273.747 187.627 274.304V282H184.542ZM199.314 282.256C198.002 282.256 196.868 281.983 195.914 281.438C194.965 280.886 194.235 280.108 193.723 279.102C193.212 278.091 192.956 276.901 192.956 275.531C192.956 274.185 193.212 273.003 193.723 271.986C194.24 270.963 194.962 270.168 195.888 269.599C196.814 269.026 197.902 268.739 199.152 268.739C199.959 268.739 200.721 268.869 201.436 269.131C202.158 269.386 202.794 269.784 203.346 270.324C203.902 270.864 204.34 271.551 204.658 272.386C204.976 273.216 205.135 274.205 205.135 275.352V276.298H194.405V274.219H202.178C202.172 273.628 202.044 273.102 201.794 272.642C201.544 272.176 201.195 271.81 200.746 271.543C200.303 271.276 199.786 271.142 199.195 271.142C198.564 271.142 198.01 271.295 197.533 271.602C197.056 271.903 196.684 272.301 196.417 272.795C196.155 273.284 196.022 273.821 196.016 274.406V276.222C196.016 276.983 196.155 277.636 196.434 278.182C196.712 278.722 197.101 279.136 197.601 279.426C198.101 279.71 198.686 279.852 199.357 279.852C199.806 279.852 200.212 279.79 200.576 279.665C200.939 279.534 201.255 279.344 201.522 279.094C201.789 278.844 201.99 278.534 202.127 278.165L205.007 278.489C204.826 279.25 204.479 279.915 203.968 280.483C203.462 281.045 202.814 281.483 202.025 281.795C201.235 282.102 200.331 282.256 199.314 282.256ZM218.092 272.369L215.279 272.676C215.2 272.392 215.061 272.125 214.862 271.875C214.669 271.625 214.407 271.423 214.078 271.27C213.748 271.116 213.345 271.04 212.868 271.04C212.225 271.04 211.686 271.179 211.248 271.457C210.816 271.736 210.603 272.097 210.609 272.54C210.603 272.92 210.743 273.23 211.027 273.469C211.316 273.707 211.794 273.903 212.458 274.057L214.691 274.534C215.93 274.801 216.85 275.224 217.453 275.804C218.061 276.384 218.368 277.142 218.373 278.08C218.368 278.903 218.126 279.631 217.649 280.261C217.177 280.886 216.521 281.375 215.68 281.727C214.839 282.08 213.873 282.256 212.782 282.256C211.18 282.256 209.89 281.92 208.913 281.25C207.936 280.574 207.353 279.634 207.166 278.429L210.174 278.139C210.311 278.73 210.6 279.176 211.044 279.477C211.487 279.778 212.064 279.929 212.774 279.929C213.507 279.929 214.095 279.778 214.538 279.477C214.987 279.176 215.211 278.804 215.211 278.361C215.211 277.986 215.066 277.676 214.777 277.432C214.493 277.187 214.049 277 213.447 276.869L211.214 276.401C209.958 276.139 209.029 275.699 208.427 275.08C207.825 274.455 207.527 273.665 207.532 272.71C207.527 271.903 207.745 271.205 208.189 270.614C208.637 270.017 209.26 269.557 210.055 269.233C210.856 268.903 211.779 268.739 212.825 268.739C214.359 268.739 215.566 269.065 216.447 269.719C217.333 270.372 217.882 271.256 218.092 272.369ZM231.264 272.369L228.451 272.676C228.372 272.392 228.233 272.125 228.034 271.875C227.841 271.625 227.579 271.423 227.25 271.27C226.92 271.116 226.517 271.04 226.039 271.04C225.397 271.04 224.858 271.179 224.42 271.457C223.988 271.736 223.775 272.097 223.781 272.54C223.775 272.92 223.914 273.23 224.199 273.469C224.488 273.707 224.966 273.903 225.63 274.057L227.863 274.534C229.102 274.801 230.022 275.224 230.625 275.804C231.233 276.384 231.539 277.142 231.545 278.08C231.539 278.903 231.298 279.631 230.821 280.261C230.349 280.886 229.693 281.375 228.852 281.727C228.011 282.08 227.045 282.256 225.954 282.256C224.352 282.256 223.062 281.92 222.085 281.25C221.108 280.574 220.525 279.634 220.338 278.429L223.346 278.139C223.483 278.73 223.772 279.176 224.216 279.477C224.659 279.778 225.235 279.929 225.946 279.929C226.679 279.929 227.267 279.778 227.71 279.477C228.159 279.176 228.383 278.804 228.383 278.361C228.383 277.986 228.238 277.676 227.949 277.432C227.664 277.187 227.221 277 226.619 276.869L224.386 276.401C223.13 276.139 222.201 275.699 221.599 275.08C220.997 274.455 220.699 273.665 220.704 272.71C220.699 271.903 220.917 271.205 221.36 270.614C221.809 270.017 222.431 269.557 223.227 269.233C224.028 268.903 224.951 268.739 225.997 268.739C227.531 268.739 228.738 269.065 229.619 269.719C230.505 270.372 231.054 271.256 231.264 272.369ZM239.412 267.196V264.545H253.338V267.196H247.943V282H244.806V267.196H239.412ZM258.971 274.33V282H255.886V264.545H258.903V271.134H259.056C259.363 270.395 259.838 269.812 260.48 269.386C261.127 268.955 261.951 268.739 262.951 268.739C263.86 268.739 264.653 268.929 265.329 269.31C266.005 269.69 266.528 270.247 266.897 270.98C267.272 271.713 267.46 272.608 267.46 273.665V282H264.375V274.142C264.375 273.261 264.147 272.577 263.693 272.088C263.244 271.594 262.613 271.347 261.801 271.347C261.255 271.347 260.767 271.466 260.335 271.705C259.909 271.937 259.574 272.276 259.329 272.719C259.091 273.162 258.971 273.699 258.971 274.33ZM276.4 282.256C275.088 282.256 273.954 281.983 273 281.438C272.051 280.886 271.321 280.108 270.809 279.102C270.298 278.091 270.042 276.901 270.042 275.531C270.042 274.185 270.298 273.003 270.809 271.986C271.326 270.963 272.048 270.168 272.974 269.599C273.9 269.026 274.988 268.739 276.238 268.739C277.045 268.739 277.806 268.869 278.522 269.131C279.244 269.386 279.88 269.784 280.431 270.324C280.988 270.864 281.426 271.551 281.744 272.386C282.062 273.216 282.221 274.205 282.221 275.352V276.298H271.491V274.219H279.264C279.258 273.628 279.13 273.102 278.88 272.642C278.63 272.176 278.281 271.81 277.832 271.543C277.389 271.276 276.872 271.142 276.281 271.142C275.65 271.142 275.096 271.295 274.619 271.602C274.142 271.903 273.77 272.301 273.502 272.795C273.241 273.284 273.108 273.821 273.102 274.406V276.222C273.102 276.983 273.241 277.636 273.52 278.182C273.798 278.722 274.187 279.136 274.687 279.426C275.187 279.71 275.772 279.852 276.443 279.852C276.892 279.852 277.298 279.79 277.662 279.665C278.025 279.534 278.341 279.344 278.608 279.094C278.875 278.844 279.076 278.534 279.213 278.165L282.093 278.489C281.912 279.25 281.565 279.915 281.054 280.483C280.548 281.045 279.9 281.483 279.11 281.795C278.321 282.102 277.417 282.256 276.4 282.256ZM284.831 282V268.909H287.78V271.134H287.934C288.206 270.384 288.658 269.798 289.289 269.378C289.919 268.952 290.672 268.739 291.547 268.739C292.434 268.739 293.181 268.955 293.789 269.386C294.402 269.812 294.834 270.395 295.084 271.134H295.221C295.51 270.406 295.999 269.827 296.686 269.395C297.38 268.957 298.201 268.739 299.15 268.739C300.354 268.739 301.337 269.119 302.098 269.881C302.86 270.642 303.24 271.753 303.24 273.213V282H300.147V273.69C300.147 272.878 299.931 272.284 299.499 271.909C299.067 271.528 298.539 271.338 297.914 271.338C297.169 271.338 296.587 271.571 296.167 272.037C295.752 272.497 295.544 273.097 295.544 273.835V282H292.519V273.562C292.519 272.886 292.314 272.347 291.905 271.943C291.502 271.54 290.973 271.338 290.32 271.338C289.877 271.338 289.473 271.452 289.11 271.679C288.746 271.901 288.456 272.216 288.24 272.625C288.025 273.028 287.917 273.5 287.917 274.04V282H284.831ZM312.166 282.256C310.853 282.256 309.72 281.983 308.765 281.438C307.816 280.886 307.086 280.108 306.575 279.102C306.064 278.091 305.808 276.901 305.808 275.531C305.808 274.185 306.064 273.003 306.575 271.986C307.092 270.963 307.814 270.168 308.74 269.599C309.666 269.026 310.754 268.739 312.004 268.739C312.811 268.739 313.572 268.869 314.288 269.131C315.01 269.386 315.646 269.784 316.197 270.324C316.754 270.864 317.191 271.551 317.51 272.386C317.828 273.216 317.987 274.205 317.987 275.352V276.298H307.257V274.219H315.029C315.024 273.628 314.896 273.102 314.646 272.642C314.396 272.176 314.047 271.81 313.598 271.543C313.154 271.276 312.637 271.142 312.047 271.142C311.416 271.142 310.862 271.295 310.385 271.602C309.907 271.903 309.535 272.301 309.268 272.795C309.007 273.284 308.873 273.821 308.868 274.406V276.222C308.868 276.983 309.007 277.636 309.285 278.182C309.564 278.722 309.953 279.136 310.453 279.426C310.953 279.71 311.538 279.852 312.208 279.852C312.657 279.852 313.064 279.79 313.427 279.665C313.791 279.534 314.106 279.344 314.373 279.094C314.64 278.844 314.842 278.534 314.978 278.165L317.859 278.489C317.677 279.25 317.331 279.915 316.819 280.483C316.314 281.045 315.666 281.483 314.876 281.795C314.086 282.102 313.183 282.256 312.166 282.256Z" fill="black"></path><path d="M280.419 206.632V180.824L285.533 180V188.648C285.876 188.534 286.31 188.431 286.837 188.34C287.386 188.225 287.912 188.168 288.415 188.168C289.88 188.168 291.092 188.374 292.053 188.786C293.037 189.175 293.815 189.735 294.387 190.467C294.982 191.2 295.394 192.069 295.622 193.076C295.874 194.082 296 195.203 296 196.439V206.632H290.886V197.057C290.886 195.409 290.669 194.243 290.234 193.556C289.822 192.87 289.045 192.527 287.901 192.527C287.443 192.527 287.008 192.572 286.596 192.664C286.207 192.732 285.853 192.813 285.533 192.904V206.632H280.419Z" fill="#510043"></path><path d="M264.998 184.084L270.112 183.26V188.58H276.255V192.835H270.112V199.185C270.112 200.26 270.295 201.118 270.661 201.758C271.05 202.399 271.816 202.719 272.96 202.719C273.509 202.719 274.07 202.674 274.642 202.582C275.237 202.468 275.774 202.319 276.255 202.136L276.975 206.117C276.358 206.369 275.671 206.586 274.916 206.769C274.161 206.952 273.235 207.044 272.136 207.044C270.741 207.044 269.585 206.861 268.67 206.495C267.755 206.106 267.023 205.579 266.474 204.916C265.925 204.229 265.536 203.406 265.307 202.445C265.101 201.484 264.998 200.42 264.998 199.253V184.084Z" fill="#510043"></path><path d="M253.098 203.063C253.602 203.063 254.082 203.051 254.54 203.028C254.997 203.005 255.363 202.971 255.638 202.925V199.047C255.432 199.001 255.123 198.956 254.711 198.91C254.3 198.864 253.922 198.841 253.579 198.841C253.098 198.841 252.641 198.876 252.206 198.944C251.794 198.99 251.428 199.093 251.108 199.253C250.788 199.413 250.536 199.631 250.353 199.905C250.17 200.18 250.078 200.523 250.078 200.935C250.078 201.736 250.341 202.296 250.868 202.616C251.417 202.914 252.16 203.063 253.098 203.063ZM252.687 188.099C254.197 188.099 255.455 188.271 256.462 188.614C257.468 188.957 258.269 189.449 258.864 190.09C259.482 190.731 259.916 191.508 260.168 192.424C260.42 193.339 260.546 194.357 260.546 195.478V206.117C259.814 206.277 258.795 206.46 257.491 206.666C256.187 206.895 254.608 207.009 252.755 207.009C251.588 207.009 250.524 206.906 249.563 206.7C248.625 206.495 247.813 206.163 247.127 205.705C246.44 205.225 245.914 204.607 245.548 203.852C245.182 203.097 244.999 202.17 244.999 201.072C244.999 200.02 245.205 199.127 245.617 198.395C246.051 197.663 246.623 197.08 247.333 196.645C248.042 196.21 248.854 195.901 249.769 195.718C250.685 195.512 251.634 195.409 252.618 195.409C253.281 195.409 253.865 195.444 254.368 195.512C254.894 195.558 255.318 195.627 255.638 195.718V195.238C255.638 194.368 255.375 193.671 254.849 193.144C254.322 192.618 253.407 192.355 252.103 192.355C251.234 192.355 250.376 192.424 249.529 192.561C248.683 192.675 247.95 192.847 247.333 193.076L246.681 188.957C246.978 188.866 247.344 188.774 247.779 188.683C248.236 188.568 248.728 188.477 249.255 188.408C249.781 188.317 250.33 188.248 250.902 188.202C251.497 188.134 252.092 188.099 252.687 188.099Z" fill="#510043"></path><path d="M237.054 197.743C237.054 196.164 236.699 194.906 235.99 193.968C235.281 193.007 234.228 192.527 232.833 192.527C232.375 192.527 231.952 192.549 231.563 192.595C231.174 192.618 230.854 192.652 230.602 192.698V201.93C230.922 202.136 231.334 202.308 231.837 202.445C232.364 202.582 232.89 202.651 233.416 202.651C235.841 202.651 237.054 201.015 237.054 197.743ZM242.27 197.606C242.27 199.001 242.099 200.271 241.756 201.415C241.412 202.559 240.909 203.543 240.246 204.367C239.582 205.19 238.758 205.831 237.775 206.289C236.791 206.746 235.658 206.975 234.377 206.975C233.668 206.975 233.004 206.906 232.386 206.769C231.769 206.632 231.174 206.437 230.602 206.186V212.981H225.488V189.198C225.946 189.06 226.472 188.934 227.067 188.82C227.662 188.683 228.28 188.568 228.92 188.477C229.584 188.385 230.247 188.317 230.911 188.271C231.597 188.202 232.249 188.168 232.867 188.168C234.354 188.168 235.681 188.397 236.848 188.854C238.015 189.289 238.999 189.918 239.799 190.742C240.6 191.543 241.207 192.527 241.618 193.693C242.053 194.86 242.27 196.164 242.27 197.606Z" fill="#510043"></path><path d="M205.813 197.057C205.813 195.409 205.595 194.242 205.161 193.556C204.749 192.87 204.028 192.527 202.999 192.527C202.678 192.527 202.347 192.549 202.003 192.595C201.66 192.618 201.328 192.652 201.008 192.698V206.632H195.895V189.198C196.329 189.083 196.833 188.969 197.405 188.854C197.999 188.717 198.617 188.603 199.258 188.511C199.921 188.397 200.596 188.317 201.283 188.271C201.969 188.202 202.644 188.168 203.308 188.168C204.612 188.168 205.664 188.34 206.465 188.683C207.289 189.003 207.963 189.392 208.49 189.85C209.222 189.323 210.057 188.912 210.995 188.614C211.956 188.317 212.837 188.168 213.638 188.168C215.079 188.168 216.257 188.374 217.173 188.786C218.111 189.175 218.854 189.735 219.403 190.467C219.952 191.2 220.33 192.069 220.536 193.076C220.742 194.082 220.845 195.203 220.845 196.439V206.632H215.731V197.057C215.731 195.409 215.514 194.242 215.079 193.556C214.667 192.87 213.946 192.527 212.917 192.527C212.642 192.527 212.253 192.595 211.75 192.732C211.27 192.87 210.869 193.041 210.549 193.247C210.709 193.773 210.812 194.334 210.858 194.929C210.904 195.501 210.926 196.119 210.926 196.782V206.632H205.813V197.057Z" fill="#510043"></path><path d="M175.425 206.632V182.849H191.486V187.344H180.779V192.012H190.285V196.405H180.779V202.136H192.276V206.632H175.425Z" fill="#510043"></path><path d="M165 196C165 205.941 156.941 214 147 214C137.059 214 129 205.941 129 196C129 186.059 137.059 178 147 178C156.941 178 165 186.059 165 196Z" fill="#FF184E"></path><path d="M152.84 186H143.191C143.111 186 143.031 186.002 142.951 186.007C141.296 186.113 140 187.53 140 189.231V199.681C140 200.716 140.706 201.589 141.664 201.85V204.406C141.664 204.518 141.696 204.627 141.755 204.721C141.815 204.816 141.9 204.892 142 204.94C142.101 204.989 142.214 205.009 142.325 204.997C142.437 204.985 142.542 204.942 142.63 204.873L146.383 201.93H151.268C152.514 201.93 153.529 200.921 153.529 199.681V190.957H155.403C155.561 190.957 155.713 190.895 155.825 190.783C155.937 190.672 156 190.521 156 190.364V189.144C156 187.41 154.582 186 152.84 186ZM151.268 200.742H146.177C146.042 200.742 145.912 200.787 145.807 200.87L142.858 203.182V201.336C142.858 201.008 142.591 200.742 142.261 200.742C141.673 200.742 141.194 200.266 141.194 199.681V189.231C141.194 188.154 142 187.258 143.028 187.192C143.071 187.189 143.114 187.188 143.156 187.188H143.17C143.669 187.19 144.138 187.375 144.504 187.716C144.906 188.09 145.127 188.597 145.127 189.144V190.364C145.127 190.692 145.394 190.957 145.723 190.957H152.335V199.681H152.335C152.335 200.266 151.856 200.742 151.268 200.742ZM154.806 189.77H146.32V189.144C146.32 188.432 146.074 187.74 145.634 187.188H152.84C153.924 187.188 154.806 188.065 154.806 189.144L154.806 189.77Z" fill="white"></path><path d="M150.547 193H143.453C143.203 193 143 193.204 143 193.456C143 193.707 143.203 193.911 143.453 193.911H150.547C150.797 193.911 151 193.707 151 193.456C151 193.204 150.797 193 150.547 193ZM150.547 195.544H143.453C143.203 195.544 143 195.748 143 196C143 196.252 143.203 196.456 143.453 196.456H150.547C150.797 196.456 151 196.252 151 196C151 195.748 150.797 195.544 150.547 195.544ZM150.547 198.089H143.453C143.203 198.089 143 198.293 143 198.544C143 198.796 143.203 199 143.453 199H150.547C150.797 199 151 198.796 151 198.544C151 198.293 150.797 198.089 150.547 198.089Z" fill="white"></path><path d="M86.6996 118.4C85.7996 118.4 85.0996 117.7 85.0996 116.8V111.6C85.0996 110.7 85.7996 110 86.6996 110C87.5996 110 88.2996 110.7 88.2996 111.6V116.8C88.2996 117.7 87.5996 118.4 86.6996 118.4Z" fill="url(#paint52_linear_9416_1040)"></path><path d="M82.5 120.1C82.1 120.1 81.7 119.9 81.4 119.6L77.7 116C77.1 115.4 77.1 114.4 77.7 113.8C78.3 113.2 79.3 113.2 79.9 113.8L83.6 117.5C84.2 118.1 84.2 119.1 83.6 119.7C83.3 120 82.9 120.1 82.5 120.1Z" fill="url(#paint53_linear_9416_1040)"></path><path d="M80.8 124.3H75.6C74.7 124.3 74 123.6 74 122.7C74 121.8 74.7 121.1 75.6 121.1H80.8C81.7 121.1 82.4 121.8 82.4 122.7C82.4 123.6 81.7 124.3 80.8 124.3Z" fill="url(#paint54_linear_9416_1040)"></path><path d="M78.8996 132.2C78.4996 132.2 78.0996 132 77.7996 131.7C77.1996 131.1 77.1996 130.1 77.7996 129.5L81.4996 125.8C82.0996 125.2 83.0996 125.2 83.6996 125.8C84.2996 126.4 84.2996 127.4 83.6996 128L79.9996 131.7C79.6996 132 79.2996 132.2 78.8996 132.2Z" fill="url(#paint55_linear_9416_1040)"></path><path d="M86.6996 135.5C85.7996 135.5 85.0996 134.8 85.0996 133.9V128.7C85.0996 127.8 85.7996 127.1 86.6996 127.1C87.5996 127.1 88.2996 127.8 88.2996 128.7V133.9C88.2996 134.7 87.5996 135.5 86.6996 135.5Z" fill="url(#paint56_linear_9416_1040)"></path><path d="M94.5996 132.2C94.1996 132.2 93.7996 132 93.4996 131.7L89.7996 128C89.1996 127.4 89.1996 126.4 89.7996 125.8C90.3996 125.2 91.3996 125.2 91.9996 125.8L95.6996 129.5C96.2996 130.1 96.2996 131.1 95.6996 131.7C95.3996 132 94.9996 132.2 94.5996 132.2Z" fill="url(#paint57_linear_9416_1040)"></path><path d="M97.8996 124.3H92.6996C91.7996 124.3 91.0996 123.6 91.0996 122.7C91.0996 121.8 91.7996 121.1 92.6996 121.1H97.8996C98.7996 121.1 99.4996 121.8 99.4996 122.7C99.4996 123.6 98.6996 124.3 97.8996 124.3Z" fill="url(#paint58_linear_9416_1040)"></path><path d="M90.8996 120.1C90.4996 120.1 90.0996 119.9 89.7996 119.6C89.1996 119 89.1996 118 89.7996 117.4L93.4996 113.7C94.0996 113.1 95.0996 113.1 95.6996 113.7C96.2996 114.3 96.2996 115.3 95.6996 115.9L91.9996 119.6C91.7996 120 91.2996 120.1 90.8996 120.1Z" fill="url(#paint59_linear_9416_1040)"></path><path d="M336 366H326.7C325.7 366 325 365.2 325 364.3C325 363.4 325.7 362.6 326.7 362.6H336C336.9 362.6 337.7 363.3 337.7 364.3C337.6 365.2 336.9 366 336 366Z" fill="#FDC901"></path><path d="M331.3 370.6C330.4 370.6 329.6 369.9 329.6 368.9V359.7C329.7 358.7 330.4 358 331.3 358C332.2 358 333 358.7 333 359.7V369C333 369.9 332.2 370.6 331.3 370.6Z" fill="#FDC901"></path><defs><linearGradient id="paint0_linear_9416_1040" x1="152.014" y1="335.633" x2="157.006" y2="333.202" gradientUnits="userSpaceOnUse"><stop offset="0.185" stop-color="#8600BF"></stop><stop offset="1" stop-color="#6527C6"></stop></linearGradient><linearGradient id="paint1_linear_9416_1040" x1="154.194" y1="335.598" x2="159.186" y2="333.167" gradientUnits="userSpaceOnUse"><stop offset="0.185" stop-color="#8600BF"></stop><stop offset="1" stop-color="#6527C6"></stop></linearGradient><linearGradient id="paint2_linear_9416_1040" x1="156.374" y1="335.564" x2="161.366" y2="333.133" gradientUnits="userSpaceOnUse"><stop offset="0.185" stop-color="#8600BF"></stop><stop offset="1" stop-color="#6527C6"></stop></linearGradient><linearGradient id="paint3_linear_9416_1040" x1="158.554" y1="335.529" x2="163.546" y2="333.098" gradientUnits="userSpaceOnUse"><stop offset="0.185" stop-color="#8600BF"></stop><stop offset="1" stop-color="#6527C6"></stop></linearGradient><linearGradient id="paint4_linear_9416_1040" x1="160.733" y1="335.494" x2="165.725" y2="333.064" gradientUnits="userSpaceOnUse"><stop offset="0.185" stop-color="#8600BF"></stop><stop offset="1" stop-color="#6527C6"></stop></linearGradient><linearGradient id="paint5_linear_9416_1040" x1="162.913" y1="335.46" x2="167.906" y2="333.029" gradientUnits="userSpaceOnUse"><stop offset="0.185" stop-color="#8600BF"></stop><stop offset="1" stop-color="#6527C6"></stop></linearGradient><linearGradient id="paint6_linear_9416_1040" x1="165.093" y1="335.425" x2="170.086" y2="332.995" gradientUnits="userSpaceOnUse"><stop offset="0.185" stop-color="#8600BF"></stop><stop offset="1" stop-color="#6527C6"></stop></linearGradient><linearGradient id="paint7_linear_9416_1040" x1="167.273" y1="335.391" x2="172.266" y2="332.96" gradientUnits="userSpaceOnUse"><stop offset="0.185" stop-color="#8600BF"></stop><stop offset="1" stop-color="#6527C6"></stop></linearGradient><linearGradient id="paint8_linear_9416_1040" x1="169.453" y1="335.356" x2="174.446" y2="332.925" gradientUnits="userSpaceOnUse"><stop offset="0.185" stop-color="#8600BF"></stop><stop offset="1" stop-color="#6527C6"></stop></linearGradient><linearGradient id="paint9_linear_9416_1040" x1="171.633" y1="335.321" x2="176.626" y2="332.891" gradientUnits="userSpaceOnUse"><stop offset="0.185" stop-color="#8600BF"></stop><stop offset="1" stop-color="#6527C6"></stop></linearGradient><linearGradient id="paint10_linear_9416_1040" x1="173.812" y1="335.287" x2="178.805" y2="332.856" gradientUnits="userSpaceOnUse"><stop offset="0.185" stop-color="#8600BF"></stop><stop offset="1" stop-color="#6527C6"></stop></linearGradient><linearGradient id="paint11_linear_9416_1040" x1="175.992" y1="335.252" x2="180.985" y2="332.822" gradientUnits="userSpaceOnUse"><stop offset="0.185" stop-color="#8600BF"></stop><stop offset="1" stop-color="#6527C6"></stop></linearGradient><linearGradient id="paint12_linear_9416_1040" x1="178.172" y1="335.218" x2="183.165" y2="332.787" gradientUnits="userSpaceOnUse"><stop offset="0.185" stop-color="#8600BF"></stop><stop offset="1" stop-color="#6527C6"></stop></linearGradient><linearGradient id="paint13_linear_9416_1040" x1="180.353" y1="335.183" x2="185.345" y2="332.752" gradientUnits="userSpaceOnUse"><stop offset="0.185" stop-color="#8600BF"></stop><stop offset="1" stop-color="#6527C6"></stop></linearGradient><linearGradient id="paint14_linear_9416_1040" x1="182.532" y1="335.149" x2="187.525" y2="332.718" gradientUnits="userSpaceOnUse"><stop offset="0.185" stop-color="#8600BF"></stop><stop offset="1" stop-color="#6527C6"></stop></linearGradient><linearGradient id="paint15_linear_9416_1040" x1="184.713" y1="335.114" x2="189.705" y2="332.683" gradientUnits="userSpaceOnUse"><stop offset="0.185" stop-color="#8600BF"></stop><stop offset="1" stop-color="#6527C6"></stop></linearGradient><linearGradient id="paint16_linear_9416_1040" x1="186.893" y1="335.079" x2="191.885" y2="332.649" gradientUnits="userSpaceOnUse"><stop offset="0.185" stop-color="#8600BF"></stop><stop offset="1" stop-color="#6527C6"></stop></linearGradient><linearGradient id="paint17_linear_9416_1040" x1="189.072" y1="335.045" x2="194.064" y2="332.614" gradientUnits="userSpaceOnUse"><stop offset="0.185" stop-color="#8600BF"></stop><stop offset="1" stop-color="#6527C6"></stop></linearGradient><linearGradient id="paint18_linear_9416_1040" x1="191.252" y1="335.01" x2="196.244" y2="332.58" gradientUnits="userSpaceOnUse"><stop offset="0.185" stop-color="#8600BF"></stop><stop offset="1" stop-color="#6527C6"></stop></linearGradient><linearGradient id="paint19_linear_9416_1040" x1="193.432" y1="334.976" x2="198.424" y2="332.545" gradientUnits="userSpaceOnUse"><stop offset="0.185" stop-color="#8600BF"></stop><stop offset="1" stop-color="#6527C6"></stop></linearGradient><linearGradient id="paint20_linear_9416_1040" x1="195.612" y1="334.941" x2="200.604" y2="332.51" gradientUnits="userSpaceOnUse"><stop offset="0.185" stop-color="#8600BF"></stop><stop offset="1" stop-color="#6527C6"></stop></linearGradient><linearGradient id="paint21_linear_9416_1040" x1="197.792" y1="334.907" x2="202.784" y2="332.476" gradientUnits="userSpaceOnUse"><stop offset="0.185" stop-color="#8600BF"></stop><stop offset="1" stop-color="#6527C6"></stop></linearGradient><linearGradient id="paint22_linear_9416_1040" x1="199.972" y1="334.872" x2="204.964" y2="332.441" gradientUnits="userSpaceOnUse"><stop offset="0.185" stop-color="#8600BF"></stop><stop offset="1" stop-color="#6527C6"></stop></linearGradient><linearGradient id="paint23_linear_9416_1040" x1="202.152" y1="334.837" x2="207.144" y2="332.407" gradientUnits="userSpaceOnUse"><stop offset="0.185" stop-color="#8600BF"></stop><stop offset="1" stop-color="#6527C6"></stop></linearGradient><linearGradient id="paint24_linear_9416_1040" x1="204.331" y1="334.803" x2="209.323" y2="332.372" gradientUnits="userSpaceOnUse"><stop offset="0.185" stop-color="#8600BF"></stop><stop offset="1" stop-color="#6527C6"></stop></linearGradient><linearGradient id="paint25_linear_9416_1040" x1="206.511" y1="334.768" x2="211.503" y2="332.338" gradientUnits="userSpaceOnUse"><stop offset="0.185" stop-color="#8600BF"></stop><stop offset="1" stop-color="#6527C6"></stop></linearGradient><linearGradient id="paint26_linear_9416_1040" x1="208.691" y1="334.734" x2="213.683" y2="332.303" gradientUnits="userSpaceOnUse"><stop offset="0.185" stop-color="#8600BF"></stop><stop offset="1" stop-color="#6527C6"></stop></linearGradient><linearGradient id="paint27_linear_9416_1040" x1="210.871" y1="334.699" x2="215.863" y2="332.268" gradientUnits="userSpaceOnUse"><stop offset="0.185" stop-color="#8600BF"></stop><stop offset="1" stop-color="#6527C6"></stop></linearGradient><linearGradient id="paint28_linear_9416_1040" x1="213.051" y1="334.664" x2="218.043" y2="332.234" gradientUnits="userSpaceOnUse"><stop offset="0.185" stop-color="#8600BF"></stop><stop offset="1" stop-color="#6527C6"></stop></linearGradient><linearGradient id="paint29_linear_9416_1040" x1="215.231" y1="334.63" x2="220.223" y2="332.199" gradientUnits="userSpaceOnUse"><stop offset="0.185" stop-color="#8600BF"></stop><stop offset="1" stop-color="#6527C6"></stop></linearGradient><linearGradient id="paint30_linear_9416_1040" x1="217.411" y1="334.595" x2="222.403" y2="332.165" gradientUnits="userSpaceOnUse"><stop offset="0.185" stop-color="#8600BF"></stop><stop offset="1" stop-color="#6527C6"></stop></linearGradient><linearGradient id="paint31_linear_9416_1040" x1="219.59" y1="334.561" x2="224.582" y2="332.13" gradientUnits="userSpaceOnUse"><stop offset="0.185" stop-color="#8600BF"></stop><stop offset="1" stop-color="#6527C6"></stop></linearGradient><linearGradient id="paint32_linear_9416_1040" x1="221.77" y1="334.526" x2="226.762" y2="332.095" gradientUnits="userSpaceOnUse"><stop offset="0.185" stop-color="#8600BF"></stop><stop offset="1" stop-color="#6527C6"></stop></linearGradient><linearGradient id="paint33_linear_9416_1040" x1="223.95" y1="334.492" x2="228.942" y2="332.061" gradientUnits="userSpaceOnUse"><stop offset="0.185" stop-color="#8600BF"></stop><stop offset="1" stop-color="#6527C6"></stop></linearGradient><linearGradient id="paint34_linear_9416_1040" x1="226.13" y1="334.457" x2="231.122" y2="332.026" gradientUnits="userSpaceOnUse"><stop offset="0.185" stop-color="#8600BF"></stop><stop offset="1" stop-color="#6527C6"></stop></linearGradient><linearGradient id="paint35_linear_9416_1040" x1="228.31" y1="334.422" x2="233.302" y2="331.992" gradientUnits="userSpaceOnUse"><stop offset="0.185" stop-color="#8600BF"></stop><stop offset="1" stop-color="#6527C6"></stop></linearGradient><linearGradient id="paint36_linear_9416_1040" x1="230.49" y1="334.388" x2="235.482" y2="331.957" gradientUnits="userSpaceOnUse"><stop offset="0.185" stop-color="#8600BF"></stop><stop offset="1" stop-color="#6527C6"></stop></linearGradient><linearGradient id="paint37_linear_9416_1040" x1="232.67" y1="334.353" x2="237.663" y2="331.923" gradientUnits="userSpaceOnUse"><stop offset="0.185" stop-color="#8600BF"></stop><stop offset="1" stop-color="#6527C6"></stop></linearGradient><linearGradient id="paint38_linear_9416_1040" x1="234.849" y1="334.319" x2="239.842" y2="331.888" gradientUnits="userSpaceOnUse"><stop offset="0.185" stop-color="#8600BF"></stop><stop offset="1" stop-color="#6527C6"></stop></linearGradient><linearGradient id="paint39_linear_9416_1040" x1="237.029" y1="334.284" x2="242.022" y2="331.853" gradientUnits="userSpaceOnUse"><stop offset="0.185" stop-color="#8600BF"></stop><stop offset="1" stop-color="#6527C6"></stop></linearGradient><linearGradient id="paint40_linear_9416_1040" x1="239.209" y1="334.249" x2="244.202" y2="331.819" gradientUnits="userSpaceOnUse"><stop offset="0.185" stop-color="#8600BF"></stop><stop offset="1" stop-color="#6527C6"></stop></linearGradient><linearGradient id="paint41_linear_9416_1040" x1="241.389" y1="334.215" x2="246.382" y2="331.784" gradientUnits="userSpaceOnUse"><stop offset="0.185" stop-color="#8600BF"></stop><stop offset="1" stop-color="#6527C6"></stop></linearGradient><linearGradient id="paint42_linear_9416_1040" x1="243.569" y1="334.18" x2="248.562" y2="331.75" gradientUnits="userSpaceOnUse"><stop offset="0.185" stop-color="#8600BF"></stop><stop offset="1" stop-color="#6527C6"></stop></linearGradient><linearGradient id="paint43_linear_9416_1040" x1="245.749" y1="334.146" x2="250.742" y2="331.715" gradientUnits="userSpaceOnUse"><stop offset="0.185" stop-color="#8600BF"></stop><stop offset="1" stop-color="#6527C6"></stop></linearGradient><linearGradient id="paint44_linear_9416_1040" x1="247.929" y1="334.111" x2="252.922" y2="331.681" gradientUnits="userSpaceOnUse"><stop offset="0.185" stop-color="#8600BF"></stop><stop offset="1" stop-color="#6527C6"></stop></linearGradient><linearGradient id="paint45_linear_9416_1040" x1="250.109" y1="334.077" x2="255.101" y2="331.646" gradientUnits="userSpaceOnUse"><stop offset="0.185" stop-color="#8600BF"></stop><stop offset="1" stop-color="#6527C6"></stop></linearGradient><linearGradient id="paint46_linear_9416_1040" x1="252.289" y1="334.042" x2="257.281" y2="331.611" gradientUnits="userSpaceOnUse"><stop offset="0.185" stop-color="#8600BF"></stop><stop offset="1" stop-color="#6527C6"></stop></linearGradient><linearGradient id="paint47_linear_9416_1040" x1="254.469" y1="334.007" x2="259.461" y2="331.577" gradientUnits="userSpaceOnUse"><stop offset="0.185" stop-color="#8600BF"></stop><stop offset="1" stop-color="#6527C6"></stop></linearGradient><linearGradient id="paint48_linear_9416_1040" x1="256.649" y1="333.973" x2="261.641" y2="331.542" gradientUnits="userSpaceOnUse"><stop offset="0.185" stop-color="#8600BF"></stop><stop offset="1" stop-color="#6527C6"></stop></linearGradient><linearGradient id="paint49_linear_9416_1040" x1="258.829" y1="333.938" x2="263.821" y2="331.508" gradientUnits="userSpaceOnUse"><stop offset="0.185" stop-color="#8600BF"></stop><stop offset="1" stop-color="#6527C6"></stop></linearGradient><linearGradient id="paint50_linear_9416_1040" x1="261.009" y1="333.904" x2="266.001" y2="331.473" gradientUnits="userSpaceOnUse"><stop offset="0.185" stop-color="#8600BF"></stop><stop offset="1" stop-color="#6527C6"></stop></linearGradient><linearGradient id="paint51_linear_9416_1040" x1="263.189" y1="333.869" x2="268.181" y2="331.438" gradientUnits="userSpaceOnUse"><stop offset="0.185" stop-color="#8600BF"></stop><stop offset="1" stop-color="#6527C6"></stop></linearGradient><linearGradient id="paint52_linear_9416_1040" x1="85.1402" y1="114.182" x2="88.315" y2="114.182" gradientUnits="userSpaceOnUse"><stop stop-color="#428D00"></stop><stop offset="0.9947" stop-color="#59C408"></stop></linearGradient><linearGradient id="paint53_linear_9416_1040" x1="77.2633" y1="116.685" x2="84.1096" y2="116.685" gradientUnits="userSpaceOnUse"><stop stop-color="#428D00"></stop><stop offset="0.9947" stop-color="#59C408"></stop></linearGradient><linearGradient id="paint54_linear_9416_1040" x1="74" y1="122.73" x2="82.3642" y2="122.73" gradientUnits="userSpaceOnUse"><stop stop-color="#428D00"></stop><stop offset="0.9947" stop-color="#59C408"></stop></linearGradient><linearGradient id="paint55_linear_9416_1040" x1="77.263" y1="128.772" x2="84.1092" y2="128.772" gradientUnits="userSpaceOnUse"><stop stop-color="#428D00"></stop><stop offset="0.9947" stop-color="#59C408"></stop></linearGradient><linearGradient id="paint56_linear_9416_1040" x1="85.1402" y1="131.275" x2="88.315" y2="131.275" gradientUnits="userSpaceOnUse"><stop stop-color="#428D00"></stop><stop offset="0.9947" stop-color="#59C408"></stop></linearGradient><linearGradient id="paint57_linear_9416_1040" x1="89.3499" y1="128.771" x2="96.1942" y2="128.771" gradientUnits="userSpaceOnUse"><stop stop-color="#428D00"></stop><stop offset="0.9947" stop-color="#59C408"></stop></linearGradient><linearGradient id="paint58_linear_9416_1040" x1="91.0943" y1="122.73" x2="99.4556" y2="122.73" gradientUnits="userSpaceOnUse"><stop stop-color="#428D00"></stop><stop offset="0.9947" stop-color="#59C408"></stop></linearGradient><linearGradient id="paint59_linear_9416_1040" x1="89.3499" y1="116.685" x2="96.1942" y2="116.685" gradientUnits="userSpaceOnUse"><stop stop-color="#428D00"></stop><stop offset="0.9947" stop-color="#59C408"></stop></linearGradient></defs></svg>