<svg xmlns="http://www.w3.org/2000/svg" width="570" height="64" viewBox="0 0 570 64" fill="none"><rect width="570" height="64" rx="5" fill="white"></rect><mask id="mask0_7063_220" style="mask-type:alpha" maskUnits="userSpaceOnUse" x="0" y="0" width="570" height="64"><rect width="570" height="64" rx="5" fill="#D9D9D9"></rect></mask><g mask="url(#mask0_7063_220)"><path d="M-31.7034 64.0608C-39.477 46.9822 -38.6359 27.1127 -29.5625 10.6743C-28.0587 7.96014 -26.3766 5.52766 -24.2612 4.11938C-19.2657 0.79073 -12.9704 -0.950412 -7.13383 0.534679C-0.91497 2.12219 3.92758 7.06396 7.36834 12.4922C10.8091 17.9205 13.2049 23.9633 16.5692 29.4428C18.6846 32.8994 21.6666 36.3817 25.6681 36.8426C31.1223 37.4571 35.3532 32.3617 38.3861 27.7528C41.4191 23.1439 45.3696 17.9461 50.8493 18.1509C55.2331 18.3046 58.6994 22.0941 60.458 26.1141C62.2166 30.1597 62.7773 34.615 64.4085 38.7118C66.0397 42.8086 69.1746 46.7774 73.5074 47.3919C77.4069 47.9552 81.1535 45.6763 84.0335 42.9878C86.9136 40.2993 89.3858 37.0987 92.7247 35.0503C97.975 31.824 104.907 31.952 110.464 34.6662C116.02 37.3803 120.225 42.3733 122.825 48.0064C127.438 58.0436 127.005 70.2828 121.653 79.9359C113.777 94.1723 97.2868 101.162 81.4848 104.901C62.7008 109.356 42.9229 110.662 24.0624 106.386C5.20193 102.11 -12.5881 91.9958 -24.2612 76.556C-27.1922 72.7153 -29.6899 68.4904 -31.7034 64.0608Z" fill="#FFB978"></path><path d="M154 -0.648055C156.879 -8.53028 161.099 -17.2759 169.232 -19.5041C177.364 -21.7323 185.832 -16.134 190.444 -9.05947C195.027 -2.01282 196.984 6.3986 200.505 14.058C204.026 21.7174 210.007 29.154 218.336 30.5466C225.49 31.7443 232.645 28.1235 238.235 23.5278C243.824 18.9322 248.519 13.2224 254.444 9.04457C260.369 4.86672 268.194 2.3043 274.93 5.00598C281.19 7.51269 284.907 13.8073 288.401 19.5449C298.294 35.8386 309.92 51.1017 323 65" stroke="#344A77" stroke-opacity="0.19" stroke-miterlimit="10"></path><path d="M408.515 21L405 27.3378H412L408.515 21L405 27.3378H412L408.515 21Z" fill="#75B5A9"></path><path d="M408.515 29.8472L405 36.1528H412L408.515 29.8472L405 36.1528H412L408.515 29.8472Z" fill="#75B5A9"></path><path d="M408.515 38.6621L405 44.9999H412L408.515 38.6621L405 44.9999H412L408.515 38.6621Z" fill="#75B5A9"></path><path d="M239.746 53.2965L233.754 50V56.593L239.746 53.2965ZM239.746 53.2965L233.754 50V56.593L239.746 53.2965Z" stroke="#E91037" stroke-miterlimit="10"></path><path d="M231.39 53.2965L225.398 50V56.593L231.39 53.2965ZM231.39 53.2965L225.398 50V56.593" stroke="#E91037" stroke-miterlimit="10"></path><path d="M222.992 53.2965L217 50V56.593L222.992 53.2965ZM222.992 53.2965L217 50V56.593L222.992 53.2965Z" stroke="#E91037" stroke-miterlimit="10"></path><path d="M272.578 53.2965L266.543 50V56.593L272.578 53.2965L266.543 50V56.593L272.578 53.2965Z" fill="#75B5A9"></path><path d="M255.824 53.2965L249.79 50V56.593L255.824 53.2965L249.79 50V56.593L255.824 53.2965Z" fill="#75B5A9"></path><path d="M458.412 38.8239C458.639 38.8239 458.824 38.6394 458.824 38.4119C458.824 38.1844 458.639 38 458.412 38C458.184 38 458 38.1844 458 38.4119C458 38.6394 458.184 38.8239 458.412 38.8239Z" fill="black"></path><path d="M465.977 38.8239C466.204 38.8239 466.388 38.6394 466.388 38.4119C466.388 38.1844 466.204 38 465.977 38C465.749 38 465.565 38.1844 465.565 38.4119C465.565 38.6394 465.749 38.8239 465.977 38.8239Z" fill="black"></path><path d="M473.579 38.8239C473.806 38.8239 473.99 38.6394 473.99 38.4119C473.99 38.1844 473.806 38 473.579 38C473.351 38 473.167 38.1844 473.167 38.4119C473.167 38.6394 473.351 38.8239 473.579 38.8239Z" fill="black"></path><path d="M481.18 38.8239C481.408 38.8239 481.592 38.6394 481.592 38.4119C481.592 38.1844 481.408 38 481.18 38C480.953 38 480.769 38.1844 480.769 38.4119C480.769 38.6394 480.953 38.8239 481.18 38.8239Z" fill="black"></path><path d="M488.745 38.8239C488.973 38.8239 489.157 38.6394 489.157 38.4119C489.157 38.1844 488.973 38 488.745 38C488.518 38 488.333 38.1844 488.333 38.4119C488.333 38.6394 488.518 38.8239 488.745 38.8239Z" fill="black"></path><path d="M496.347 38.8239C496.575 38.8239 496.759 38.6394 496.759 38.4119C496.759 38.1844 496.575 38 496.347 38C496.12 38 495.935 38.1844 495.935 38.4119C495.935 38.6394 496.12 38.8239 496.347 38.8239Z" fill="black"></path><path d="M503.949 38.8239C504.177 38.8239 504.361 38.6394 504.361 38.4119C504.361 38.1844 504.177 38 503.949 38C503.722 38 503.537 38.1844 503.537 38.4119C503.537 38.6394 503.722 38.8239 503.949 38.8239Z" fill="black"></path><path d="M511.514 38.8239C511.741 38.8239 511.926 38.6394 511.926 38.4119C511.926 38.1844 511.741 38 511.514 38C511.286 38 511.102 38.1844 511.102 38.4119C511.102 38.6394 511.286 38.8239 511.514 38.8239Z" fill="black"></path><path d="M519.116 38.8239C519.343 38.8239 519.528 38.6394 519.528 38.4119C519.528 38.1844 519.343 38 519.116 38C518.888 38 518.704 38.1844 518.704 38.4119C518.704 38.6394 518.888 38.8239 519.116 38.8239Z" fill="black"></path><path d="M526.718 38.8239C526.945 38.8239 527.13 38.6394 527.13 38.4119C527.13 38.1844 526.945 38 526.718 38C526.49 38 526.306 38.1844 526.306 38.4119C526.306 38.6394 526.49 38.8239 526.718 38.8239Z" fill="black"></path><path d="M534.282 38.8239C534.51 38.8239 534.694 38.6394 534.694 38.4119C534.694 38.1844 534.51 38 534.282 38C534.055 38 533.87 38.1844 533.87 38.4119C533.87 38.6394 534.055 38.8239 534.282 38.8239Z" fill="black"></path><path d="M541.884 38.8239C542.112 38.8239 542.296 38.6394 542.296 38.4119C542.296 38.1844 542.112 38 541.884 38C541.657 38 541.472 38.1844 541.472 38.4119C541.472 38.6394 541.657 38.8239 541.884 38.8239Z" fill="black"></path><path d="M549.486 38.8239C549.714 38.8239 549.898 38.6394 549.898 38.4119C549.898 38.1844 549.714 38 549.486 38C549.259 38 549.074 38.1844 549.074 38.4119C549.074 38.6394 549.259 38.8239 549.486 38.8239Z" fill="black"></path><path d="M557.051 38.8239C557.278 38.8239 557.463 38.6394 557.463 38.4119C557.463 38.1844 557.278 38 557.051 38C556.823 38 556.639 38.1844 556.639 38.4119C556.639 38.6394 556.823 38.8239 557.051 38.8239Z" fill="black"></path><path d="M564.653 38.8239C564.88 38.8239 565.065 38.6394 565.065 38.4119C565.065 38.1844 564.88 38 564.653 38C564.425 38 564.241 38.1844 564.241 38.4119C564.241 38.6394 564.425 38.8239 564.653 38.8239Z" fill="black"></path><path d="M458.412 45.6019C458.639 45.6019 458.824 45.4175 458.824 45.19C458.824 44.9625 458.639 44.7781 458.412 44.7781C458.184 44.7781 458 44.9625 458 45.19C458 45.4175 458.184 45.6019 458.412 45.6019Z" fill="black"></path><path d="M465.977 45.6019C466.204 45.6019 466.388 45.4175 466.388 45.19C466.388 44.9625 466.204 44.7781 465.977 44.7781C465.749 44.7781 465.565 44.9625 465.565 45.19C465.565 45.4175 465.749 45.6019 465.977 45.6019Z" fill="black"></path><path d="M473.579 45.6019C473.806 45.6019 473.99 45.4175 473.99 45.19C473.99 44.9625 473.806 44.7781 473.579 44.7781C473.351 44.7781 473.167 44.9625 473.167 45.19C473.167 45.4175 473.351 45.6019 473.579 45.6019Z" fill="black"></path><path d="M481.18 45.6019C481.408 45.6019 481.592 45.4175 481.592 45.19C481.592 44.9625 481.408 44.7781 481.18 44.7781C480.953 44.7781 480.769 44.9625 480.769 45.19C480.769 45.4175 480.953 45.6019 481.18 45.6019Z" fill="black"></path><path d="M488.745 45.6019C488.973 45.6019 489.157 45.4175 489.157 45.19C489.157 44.9625 488.973 44.7781 488.745 44.7781C488.518 44.7781 488.333 44.9625 488.333 45.19C488.333 45.4175 488.518 45.6019 488.745 45.6019Z" fill="black"></path><path d="M496.347 45.6019C496.575 45.6019 496.759 45.4175 496.759 45.19C496.759 44.9625 496.575 44.7781 496.347 44.7781C496.12 44.7781 495.935 44.9625 495.935 45.19C495.935 45.4175 496.12 45.6019 496.347 45.6019Z" fill="black"></path><path d="M503.949 45.6019C504.177 45.6019 504.361 45.4175 504.361 45.19C504.361 44.9625 504.177 44.7781 503.949 44.7781C503.722 44.7781 503.537 44.9625 503.537 45.19C503.537 45.4175 503.722 45.6019 503.949 45.6019Z" fill="black"></path><path d="M511.514 45.6019C511.741 45.6019 511.926 45.4175 511.926 45.19C511.926 44.9625 511.741 44.7781 511.514 44.7781C511.286 44.7781 511.102 44.9625 511.102 45.19C511.102 45.4175 511.286 45.6019 511.514 45.6019Z" fill="black"></path><path d="M519.116 45.6019C519.343 45.6019 519.528 45.4175 519.528 45.19C519.528 44.9625 519.343 44.7781 519.116 44.7781C518.888 44.7781 518.704 44.9625 518.704 45.19C518.704 45.4175 518.888 45.6019 519.116 45.6019Z" fill="black"></path><path d="M526.718 45.6019C526.945 45.6019 527.13 45.4175 527.13 45.19C527.13 44.9625 526.945 44.7781 526.718 44.7781C526.49 44.7781 526.306 44.9625 526.306 45.19C526.306 45.4175 526.49 45.6019 526.718 45.6019Z" fill="black"></path><path d="M534.282 45.6019C534.51 45.6019 534.694 45.4175 534.694 45.19C534.694 44.9625 534.51 44.7781 534.282 44.7781C534.055 44.7781 533.87 44.9625 533.87 45.19C533.87 45.4175 534.055 45.6019 534.282 45.6019Z" fill="black"></path><path d="M541.884 45.6019C542.112 45.6019 542.296 45.4175 542.296 45.19C542.296 44.9625 542.112 44.7781 541.884 44.7781C541.657 44.7781 541.472 44.9625 541.472 45.19C541.472 45.4175 541.657 45.6019 541.884 45.6019Z" fill="black"></path><path d="M549.486 45.6019C549.714 45.6019 549.898 45.4175 549.898 45.19C549.898 44.9625 549.714 44.7781 549.486 44.7781C549.259 44.7781 549.074 44.9625 549.074 45.19C549.074 45.4175 549.259 45.6019 549.486 45.6019Z" fill="black"></path><path d="M557.051 45.6019C557.278 45.6019 557.463 45.4175 557.463 45.19C557.463 44.9625 557.278 44.7781 557.051 44.7781C556.823 44.7781 556.639 44.9625 556.639 45.19C556.639 45.4175 556.823 45.6019 557.051 45.6019Z" fill="black"></path><path d="M564.653 45.6019C564.88 45.6019 565.065 45.4175 565.065 45.19C565.065 44.9625 564.88 44.7781 564.653 44.7781C564.425 44.7781 564.241 44.9625 564.241 45.19C564.241 45.4175 564.425 45.6019 564.653 45.6019Z" fill="black"></path><path d="M458.412 52.4176C458.639 52.4176 458.824 52.2332 458.824 52.0057C458.824 51.7782 458.639 51.5938 458.412 51.5938C458.184 51.5938 458 51.7782 458 52.0057C458 52.2332 458.184 52.4176 458.412 52.4176Z" fill="black"></path><path d="M465.977 52.4176C466.204 52.4176 466.388 52.2332 466.388 52.0057C466.388 51.7782 466.204 51.5938 465.977 51.5938C465.749 51.5938 465.565 51.7782 465.565 52.0057C465.565 52.2332 465.749 52.4176 465.977 52.4176Z" fill="black"></path><path d="M473.579 52.4176C473.806 52.4176 473.99 52.2332 473.99 52.0057C473.99 51.7782 473.806 51.5938 473.579 51.5938C473.351 51.5938 473.167 51.7782 473.167 52.0057C473.167 52.2332 473.351 52.4176 473.579 52.4176Z" fill="black"></path><path d="M481.18 52.4176C481.408 52.4176 481.592 52.2332 481.592 52.0057C481.592 51.7782 481.408 51.5938 481.18 51.5938C480.953 51.5938 480.769 51.7782 480.769 52.0057C480.769 52.2332 480.953 52.4176 481.18 52.4176Z" fill="black"></path><path d="M488.745 52.4176C488.973 52.4176 489.157 52.2332 489.157 52.0057C489.157 51.7782 488.973 51.5938 488.745 51.5938C488.518 51.5938 488.333 51.7782 488.333 52.0057C488.333 52.2332 488.518 52.4176 488.745 52.4176Z" fill="black"></path><path d="M496.347 52.4176C496.575 52.4176 496.759 52.2332 496.759 52.0057C496.759 51.7782 496.575 51.5938 496.347 51.5938C496.12 51.5938 495.935 51.7782 495.935 52.0057C495.935 52.2332 496.12 52.4176 496.347 52.4176Z" fill="black"></path><path d="M503.949 52.4176C504.177 52.4176 504.361 52.2332 504.361 52.0057C504.361 51.7782 504.177 51.5938 503.949 51.5938C503.722 51.5938 503.537 51.7782 503.537 52.0057C503.537 52.2332 503.722 52.4176 503.949 52.4176Z" fill="black"></path><path d="M511.514 52.4176C511.741 52.4176 511.926 52.2332 511.926 52.0057C511.926 51.7782 511.741 51.5938 511.514 51.5938C511.286 51.5938 511.102 51.7782 511.102 52.0057C511.102 52.2332 511.286 52.4176 511.514 52.4176Z" fill="black"></path><path d="M519.116 52.4176C519.343 52.4176 519.528 52.2332 519.528 52.0057C519.528 51.7782 519.343 51.5938 519.116 51.5938C518.888 51.5938 518.704 51.7782 518.704 52.0057C518.704 52.2332 518.888 52.4176 519.116 52.4176Z" fill="black"></path><path d="M526.718 52.4176C526.945 52.4176 527.13 52.2332 527.13 52.0057C527.13 51.7782 526.945 51.5938 526.718 51.5938C526.49 51.5938 526.306 51.7782 526.306 52.0057C526.306 52.2332 526.49 52.4176 526.718 52.4176Z" fill="black"></path><path d="M534.282 52.4176C534.51 52.4176 534.694 52.2332 534.694 52.0057C534.694 51.7782 534.51 51.5938 534.282 51.5938C534.055 51.5938 533.87 51.7782 533.87 52.0057C533.87 52.2332 534.055 52.4176 534.282 52.4176Z" fill="black"></path><path d="M541.884 52.4176C542.112 52.4176 542.296 52.2332 542.296 52.0057C542.296 51.7782 542.112 51.5938 541.884 51.5938C541.657 51.5938 541.472 51.7782 541.472 52.0057C541.472 52.2332 541.657 52.4176 541.884 52.4176Z" fill="black"></path><path d="M549.486 52.4176C549.714 52.4176 549.898 52.2332 549.898 52.0057C549.898 51.7782 549.714 51.5938 549.486 51.5938C549.259 51.5938 549.074 51.7782 549.074 52.0057C549.074 52.2332 549.259 52.4176 549.486 52.4176Z" fill="black"></path><path d="M557.051 52.4176C557.278 52.4176 557.463 52.2332 557.463 52.0057C557.463 51.7782 557.278 51.5938 557.051 51.5938C556.823 51.5938 556.639 51.7782 556.639 52.0057C556.639 52.2332 556.823 52.4176 557.051 52.4176Z" fill="black"></path><path d="M564.653 52.4176C564.88 52.4176 565.065 52.2332 565.065 52.0057C565.065 51.7782 564.88 51.5938 564.653 51.5938C564.425 51.5938 564.241 51.7782 564.241 52.0057C564.241 52.2332 564.425 52.4176 564.653 52.4176Z" fill="black"></path><path d="M458.412 59.1957C458.639 59.1957 458.824 59.0113 458.824 58.7838C458.824 58.5563 458.639 58.3718 458.412 58.3718C458.184 58.3718 458 58.5563 458 58.7838C458 59.0113 458.184 59.1957 458.412 59.1957Z" fill="black"></path><path d="M465.977 59.1957C466.204 59.1957 466.388 59.0113 466.388 58.7838C466.388 58.5563 466.204 58.3718 465.977 58.3718C465.749 58.3718 465.565 58.5563 465.565 58.7838C465.565 59.0113 465.749 59.1957 465.977 59.1957Z" fill="black"></path><path d="M473.579 59.1957C473.806 59.1957 473.99 59.0113 473.99 58.7838C473.99 58.5563 473.806 58.3718 473.579 58.3718C473.351 58.3718 473.167 58.5563 473.167 58.7838C473.167 59.0113 473.351 59.1957 473.579 59.1957Z" fill="black"></path><path d="M481.18 59.1957C481.408 59.1957 481.592 59.0113 481.592 58.7838C481.592 58.5563 481.408 58.3718 481.18 58.3718C480.953 58.3718 480.769 58.5563 480.769 58.7838C480.769 59.0113 480.953 59.1957 481.18 59.1957Z" fill="black"></path><path d="M488.745 59.1957C488.973 59.1957 489.157 59.0113 489.157 58.7838C489.157 58.5563 488.973 58.3718 488.745 58.3718C488.518 58.3718 488.333 58.5563 488.333 58.7838C488.333 59.0113 488.518 59.1957 488.745 59.1957Z" fill="black"></path><path d="M496.347 59.1957C496.575 59.1957 496.759 59.0113 496.759 58.7838C496.759 58.5563 496.575 58.3718 496.347 58.3718C496.12 58.3718 495.935 58.5563 495.935 58.7838C495.935 59.0113 496.12 59.1957 496.347 59.1957Z" fill="black"></path><path d="M503.949 59.1957C504.177 59.1957 504.361 59.0113 504.361 58.7838C504.361 58.5563 504.177 58.3718 503.949 58.3718C503.722 58.3718 503.537 58.5563 503.537 58.7838C503.537 59.0113 503.722 59.1957 503.949 59.1957Z" fill="black"></path><path d="M511.514 59.1957C511.741 59.1957 511.926 59.0113 511.926 58.7838C511.926 58.5563 511.741 58.3718 511.514 58.3718C511.286 58.3718 511.102 58.5563 511.102 58.7838C511.102 59.0113 511.286 59.1957 511.514 59.1957Z" fill="black"></path><path d="M519.116 59.1957C519.343 59.1957 519.528 59.0113 519.528 58.7838C519.528 58.5563 519.343 58.3718 519.116 58.3718C518.888 58.3718 518.704 58.5563 518.704 58.7838C518.704 59.0113 518.888 59.1957 519.116 59.1957Z" fill="black"></path><path d="M526.718 59.1957C526.945 59.1957 527.13 59.0113 527.13 58.7838C527.13 58.5563 526.945 58.3718 526.718 58.3718C526.49 58.3718 526.306 58.5563 526.306 58.7838C526.306 59.0113 526.49 59.1957 526.718 59.1957Z" fill="black"></path><path d="M534.282 59.1957C534.51 59.1957 534.694 59.0113 534.694 58.7838C534.694 58.5563 534.51 58.3718 534.282 58.3718C534.055 58.3718 533.87 58.5563 533.87 58.7838C533.87 59.0113 534.055 59.1957 534.282 59.1957Z" fill="black"></path><path d="M541.884 59.1957C542.112 59.1957 542.296 59.0113 542.296 58.7838C542.296 58.5563 542.112 58.3718 541.884 58.3718C541.657 58.3718 541.472 58.5563 541.472 58.7838C541.472 59.0113 541.657 59.1957 541.884 59.1957Z" fill="black"></path><path d="M549.486 59.1957C549.714 59.1957 549.898 59.0113 549.898 58.7838C549.898 58.5563 549.714 58.3718 549.486 58.3718C549.259 58.3718 549.074 58.5563 549.074 58.7838C549.074 59.0113 549.259 59.1957 549.486 59.1957Z" fill="black"></path><path d="M557.051 59.1957C557.278 59.1957 557.463 59.0113 557.463 58.7838C557.463 58.5563 557.278 58.3718 557.051 58.3718C556.823 58.3718 556.639 58.5563 556.639 58.7838C556.639 59.0113 556.823 59.1957 557.051 59.1957Z" fill="black"></path><path d="M564.653 59.1957C564.88 59.1957 565.065 59.0113 565.065 58.7838C565.065 58.5563 564.88 58.3718 564.653 58.3718C564.425 58.3718 564.241 58.5563 564.241 58.7838C564.241 59.0113 564.425 59.1957 564.653 59.1957Z" fill="black"></path><path d="M512.725 -11.3799C510.895 -4.98211 512.65 0.729517 516.628 6.08881C520.587 11.4481 528.02 14.3781 534.369 12.264C537.226 11.3183 539.673 9.48241 542.268 7.96178C544.864 6.44115 547.833 5.21723 550.803 5.66229C554.201 6.16299 556.872 8.68501 559.356 11.0401C561.839 13.3952 564.678 15.806 568.114 15.9914C570.448 16.1027 572.764 15.1199 574.482 13.5621C576.2 12.0044 577.377 9.89038 578.086 7.70216C580.178 1.28584 578.516 -5.94642 574.762 -11.5468C571.008 -17.1657 565.369 -21.3011 559.337 -24.4165C553.697 -27.3279 547.572 -29.4234 541.241 -29.9056C534.91 -30.3692 528.356 -29.1453 522.977 -25.7888C517.599 -22.4323 513.509 -16.8875 512.594 -10.6381L512.725 -11.3799Z" fill="black" fill-opacity="0.1"></path></g><rect x="481" y="19" width="70" height="25" rx="3" fill="#1874FF"></rect><path d="M495.72 36V26.28H498.252C498.668 26.28 499.06 26.312 499.428 26.376C499.804 26.44 500.136 26.564 500.424 26.748C500.712 26.924 500.936 27.18 501.096 27.516C501.264 27.844 501.348 28.28 501.348 28.824C501.348 29.216 501.288 29.548 501.168 29.82C501.056 30.084 500.892 30.296 500.676 30.456C500.468 30.616 500.216 30.724 499.92 30.78C500.296 30.828 500.612 30.952 500.868 31.152C501.124 31.344 501.316 31.604 501.444 31.932C501.58 32.26 501.648 32.656 501.648 33.12C501.648 33.624 501.58 34.06 501.444 34.428C501.316 34.788 501.128 35.084 500.88 35.316C500.632 35.548 500.324 35.72 499.956 35.832C499.596 35.944 499.18 36 498.708 36H495.72ZM497.868 34.5H498.324C498.796 34.5 499.12 34.38 499.296 34.14C499.48 33.9 499.572 33.548 499.572 33.084C499.572 32.716 499.532 32.424 499.452 32.208C499.372 31.992 499.24 31.836 499.056 31.74C498.872 31.636 498.624 31.584 498.312 31.584H497.868V34.5ZM497.868 30.168H498.288C498.616 30.168 498.864 30.12 499.032 30.024C499.2 29.92 499.312 29.772 499.368 29.58C499.432 29.388 499.464 29.156 499.464 28.884C499.464 28.628 499.416 28.416 499.32 28.248C499.232 28.072 499.096 27.94 498.912 27.852C498.736 27.764 498.512 27.72 498.24 27.72H497.868V30.168ZM503.891 36.12C503.611 36.12 503.371 36.052 503.171 35.916C502.979 35.772 502.835 35.576 502.739 35.328C502.643 35.08 502.595 34.804 502.595 34.5V29.064H504.551V34.272C504.551 34.44 504.579 34.572 504.635 34.668C504.699 34.756 504.807 34.8 504.959 34.8C505.047 34.8 505.139 34.78 505.235 34.74C505.331 34.692 505.431 34.64 505.535 34.584V29.064H507.479V36H505.535V35.364C505.287 35.596 505.023 35.78 504.743 35.916C504.471 36.052 504.187 36.12 503.891 36.12ZM508.906 38.016V36.66C509.154 36.66 509.358 36.644 509.518 36.612C509.686 36.58 509.81 36.52 509.89 36.432C509.978 36.344 510.022 36.224 510.022 36.072C510.022 35.936 509.998 35.772 509.95 35.58C509.902 35.38 509.842 35.156 509.77 34.908L508.138 29.064H509.974L510.85 33.072L511.51 29.064H513.358L511.762 36.168C511.658 36.648 511.494 37.02 511.27 37.284C511.046 37.556 510.77 37.744 510.442 37.848C510.122 37.96 509.758 38.016 509.35 38.016H508.906ZM517.271 36V26.28H518.783L520.775 30.96V26.28H522.551V36H521.099L519.107 30.96V36H517.271ZM526.169 36.12C525.673 36.12 525.241 36.036 524.873 35.868C524.513 35.7 524.233 35.448 524.033 35.112C523.841 34.776 523.745 34.356 523.745 33.852V31.212C523.745 30.708 523.841 30.288 524.033 29.952C524.233 29.616 524.513 29.364 524.873 29.196C525.241 29.028 525.673 28.944 526.169 28.944C526.665 28.944 527.093 29.028 527.453 29.196C527.821 29.364 528.105 29.616 528.305 29.952C528.505 30.288 528.605 30.708 528.605 31.212V33.852C528.605 34.356 528.505 34.776 528.305 35.112C528.105 35.448 527.821 35.7 527.453 35.868C527.093 36.036 526.665 36.12 526.169 36.12ZM526.181 34.824C526.309 34.824 526.409 34.792 526.481 34.728C526.553 34.656 526.601 34.56 526.625 34.44C526.657 34.312 526.673 34.16 526.673 33.984V31.08C526.673 30.904 526.657 30.756 526.625 30.636C526.601 30.508 526.553 30.412 526.481 30.348C526.409 30.276 526.309 30.24 526.181 30.24C526.053 30.24 525.953 30.276 525.881 30.348C525.809 30.412 525.757 30.508 525.725 30.636C525.693 30.756 525.677 30.904 525.677 31.08V33.984C525.677 34.16 525.693 34.312 525.725 34.44C525.757 34.56 525.809 34.656 525.881 34.728C525.953 34.792 526.053 34.824 526.181 34.824ZM530.327 36L529.307 29.064H530.939L531.443 33L531.983 29.064H533.399L533.867 33.096L534.455 29.064H535.967L534.935 36H533.255L532.655 32.1L531.983 36H530.327Z" fill="white"></path><path d="M42.54 35.095C42.65 35.105 42.775 35.115 42.915 35.125C43.065 35.125 43.24 35.125 43.44 35.125C44.61 35.125 45.475 34.83 46.035 34.24C46.605 33.65 46.89 32.835 46.89 31.795C46.89 30.705 46.62 29.88 46.08 29.32C45.54 28.76 44.685 28.48 43.515 28.48C43.355 28.48 43.19 28.485 43.02 28.495C42.85 28.495 42.69 28.505 42.54 28.525V35.095ZM49.305 31.795C49.305 32.695 49.165 33.48 48.885 34.15C48.605 34.82 48.205 35.375 47.685 35.815C47.175 36.255 46.55 36.585 45.81 36.805C45.07 37.025 44.24 37.135 43.32 37.135C42.9 37.135 42.41 37.115 41.85 37.075C41.29 37.045 40.74 36.975 40.2 36.865V26.74C40.74 26.64 41.3 26.575 41.88 26.545C42.47 26.505 42.975 26.485 43.395 26.485C44.285 26.485 45.09 26.585 45.81 26.785C46.54 26.985 47.165 27.3 47.685 27.73C48.205 28.16 48.605 28.71 48.885 29.38C49.165 30.05 49.305 30.855 49.305 31.795ZM53.3446 37H51.1096V29.11H53.3446V37ZM53.5546 26.83C53.5546 27.24 53.4196 27.565 53.1496 27.805C52.8896 28.035 52.5796 28.15 52.2196 28.15C51.8596 28.15 51.5446 28.035 51.2746 27.805C51.0146 27.565 50.8846 27.24 50.8846 26.83C50.8846 26.42 51.0146 26.1 51.2746 25.87C51.5446 25.63 51.8596 25.51 52.2196 25.51C52.5796 25.51 52.8896 25.63 53.1496 25.87C53.4196 26.1 53.5546 26.42 53.5546 26.83ZM57.3561 37C56.8461 36 56.3261 34.83 55.7961 33.49C55.2761 32.15 54.7811 30.69 54.3111 29.11H56.6811C56.7811 29.5 56.8961 29.925 57.0261 30.385C57.1661 30.835 57.3061 31.295 57.4461 31.765C57.5961 32.225 57.7411 32.675 57.8811 33.115C58.0311 33.555 58.1761 33.955 58.3161 34.315C58.4461 33.955 58.5861 33.555 58.7361 33.115C58.8861 32.675 59.0311 32.225 59.1711 31.765C59.3211 31.295 59.4611 30.835 59.5911 30.385C59.7311 29.925 59.8511 29.5 59.9511 29.11H62.2611C61.7911 30.69 61.2911 32.15 60.7611 33.49C60.2411 34.83 59.7261 36 59.2161 37H57.3561ZM62.8781 33.115C62.8781 32.415 62.9831 31.805 63.1931 31.285C63.4131 30.755 63.6981 30.315 64.0481 29.965C64.3981 29.615 64.7981 29.35 65.2481 29.17C65.7081 28.99 66.1781 28.9 66.6581 28.9C67.7781 28.9 68.6631 29.245 69.3131 29.935C69.9631 30.615 70.2881 31.62 70.2881 32.95C70.2881 33.08 70.2831 33.225 70.2731 33.385C70.2631 33.535 70.2531 33.67 70.2431 33.79H65.1731C65.2231 34.25 65.4381 34.615 65.8181 34.885C66.1981 35.155 66.7081 35.29 67.3481 35.29C67.7581 35.29 68.1581 35.255 68.5481 35.185C68.9481 35.105 69.2731 35.01 69.5231 34.9L69.8231 36.715C69.7031 36.775 69.5431 36.835 69.3431 36.895C69.1431 36.955 68.9181 37.005 68.6681 37.045C68.4281 37.095 68.1681 37.135 67.8881 37.165C67.6081 37.195 67.3281 37.21 67.0481 37.21C66.3381 37.21 65.7181 37.105 65.1881 36.895C64.6681 36.685 64.2331 36.4 63.8831 36.04C63.5431 35.67 63.2881 35.235 63.1181 34.735C62.9581 34.235 62.8781 33.695 62.8781 33.115ZM68.1281 32.26C68.1181 32.07 68.0831 31.885 68.0231 31.705C67.9731 31.525 67.8881 31.365 67.7681 31.225C67.6581 31.085 67.5131 30.97 67.3331 30.88C67.1631 30.79 66.9481 30.745 66.6881 30.745C66.4381 30.745 66.2231 30.79 66.0431 30.88C65.8631 30.96 65.7131 31.07 65.5931 31.21C65.4731 31.35 65.3781 31.515 65.3081 31.705C65.2481 31.885 65.2031 32.07 65.1731 32.26H68.1281ZM77.8514 37H75.6164V29.11H77.8514V37ZM78.0614 26.83C78.0614 27.24 77.9264 27.565 77.6564 27.805C77.3964 28.035 77.0864 28.15 76.7264 28.15C76.3664 28.15 76.0514 28.035 75.7814 27.805C75.5214 27.565 75.3914 27.24 75.3914 26.83C75.3914 26.42 75.5214 26.1 75.7814 25.87C76.0514 25.63 76.3664 25.51 76.7264 25.51C77.0864 25.51 77.3964 25.63 77.6564 25.87C77.9264 26.1 78.0614 26.42 78.0614 26.83ZM79.9523 29.38C80.3323 29.27 80.8223 29.17 81.4223 29.08C82.0223 28.98 82.6523 28.93 83.3123 28.93C83.9823 28.93 84.5373 29.02 84.9773 29.2C85.4273 29.37 85.7823 29.615 86.0423 29.935C86.3023 30.255 86.4873 30.635 86.5973 31.075C86.7073 31.515 86.7623 32.005 86.7623 32.545V37H84.5273V32.815C84.5273 32.095 84.4323 31.585 84.2423 31.285C84.0523 30.985 83.6973 30.835 83.1773 30.835C83.0173 30.835 82.8473 30.845 82.6673 30.865C82.4873 30.875 82.3273 30.89 82.1873 30.91V37H79.9523V29.38ZM88.7104 27.145L90.9454 26.785V29.11H93.6304V30.97H90.9454V33.745C90.9454 34.215 91.0254 34.59 91.1854 34.87C91.3554 35.15 91.6904 35.29 92.1904 35.29C92.4304 35.29 92.6754 35.27 92.9254 35.23C93.1854 35.18 93.4204 35.115 93.6304 35.035L93.9454 36.775C93.6754 36.885 93.3754 36.98 93.0454 37.06C92.7154 37.14 92.3104 37.18 91.8304 37.18C91.2204 37.18 90.7154 37.1 90.3154 36.94C89.9154 36.77 89.5954 36.54 89.3554 36.25C89.1154 35.95 88.9454 35.59 88.8454 35.17C88.7554 34.75 88.7104 34.285 88.7104 33.775V27.145ZM102.537 33.04C102.537 33.66 102.447 34.23 102.267 34.75C102.087 35.26 101.827 35.7 101.487 36.07C101.147 36.43 100.737 36.71 100.257 36.91C99.7874 37.11 99.2574 37.21 98.6674 37.21C98.0874 37.21 97.5574 37.11 97.0774 36.91C96.6074 36.71 96.2024 36.43 95.8624 36.07C95.5224 35.7 95.2574 35.26 95.0674 34.75C94.8774 34.23 94.7824 33.66 94.7824 33.04C94.7824 32.42 94.8774 31.855 95.0674 31.345C95.2674 30.835 95.5374 30.4 95.8774 30.04C96.2274 29.68 96.6374 29.4 97.1074 29.2C97.5874 29 98.1074 28.9 98.6674 28.9C99.2374 28.9 99.7574 29 100.227 29.2C100.707 29.4 101.117 29.68 101.457 30.04C101.797 30.4 102.062 30.835 102.252 31.345C102.442 31.855 102.537 32.42 102.537 33.04ZM100.257 33.04C100.257 32.35 100.117 31.81 99.8374 31.42C99.5674 31.02 99.1774 30.82 98.6674 30.82C98.1574 30.82 97.7624 31.02 97.4824 31.42C97.2024 31.81 97.0624 32.35 97.0624 33.04C97.0624 33.73 97.2024 34.28 97.4824 34.69C97.7624 35.09 98.1574 35.29 98.6674 35.29C99.1774 35.29 99.5674 35.09 99.8374 34.69C100.117 34.28 100.257 33.73 100.257 33.04ZM110.887 35.44C111.107 35.44 111.317 35.435 111.517 35.425C111.717 35.415 111.877 35.4 111.997 35.38V33.685C111.907 33.665 111.772 33.645 111.592 33.625C111.412 33.605 111.247 33.595 111.097 33.595C110.887 33.595 110.687 33.61 110.497 33.64C110.317 33.66 110.157 33.705 110.017 33.775C109.877 33.845 109.767 33.94 109.687 34.06C109.607 34.18 109.567 34.33 109.567 34.51C109.567 34.86 109.682 35.105 109.912 35.245C110.152 35.375 110.477 35.44 110.887 35.44ZM110.707 28.9C111.367 28.9 111.917 28.975 112.357 29.125C112.797 29.275 113.147 29.49 113.407 29.77C113.677 30.05 113.867 30.39 113.977 30.79C114.087 31.19 114.142 31.635 114.142 32.125V36.775C113.822 36.845 113.377 36.925 112.807 37.015C112.237 37.115 111.547 37.165 110.737 37.165C110.227 37.165 109.762 37.12 109.342 37.03C108.932 36.94 108.577 36.795 108.277 36.595C107.977 36.385 107.747 36.115 107.587 35.785C107.427 35.455 107.347 35.05 107.347 34.57C107.347 34.11 107.437 33.72 107.617 33.4C107.807 33.08 108.057 32.825 108.367 32.635C108.677 32.445 109.032 32.31 109.432 32.23C109.832 32.14 110.247 32.095 110.677 32.095C110.967 32.095 111.222 32.11 111.442 32.14C111.672 32.16 111.857 32.19 111.997 32.23V32.02C111.997 31.64 111.882 31.335 111.652 31.105C111.422 30.875 111.022 30.76 110.452 30.76C110.072 30.76 109.697 30.79 109.327 30.85C108.957 30.9 108.637 30.975 108.367 31.075L108.082 29.275C108.212 29.235 108.372 29.195 108.562 29.155C108.762 29.105 108.977 29.065 109.207 29.035C109.437 28.995 109.677 28.965 109.927 28.945C110.187 28.915 110.447 28.9 110.707 28.9ZM122.898 36.73C122.518 36.84 122.028 36.94 121.428 37.03C120.828 37.13 120.198 37.18 119.538 37.18C118.868 37.18 118.308 37.09 117.858 36.91C117.418 36.73 117.068 36.48 116.808 36.16C116.548 35.83 116.363 35.44 116.253 34.99C116.143 34.54 116.088 34.045 116.088 33.505V29.11H118.323V33.235C118.323 33.955 118.418 34.475 118.608 34.795C118.798 35.115 119.153 35.275 119.673 35.275C119.833 35.275 120.003 35.27 120.183 35.26C120.363 35.24 120.523 35.22 120.663 35.2V29.11H122.898V36.73ZM124.921 27.145L127.156 26.785V29.11H129.841V30.97H127.156V33.745C127.156 34.215 127.236 34.59 127.396 34.87C127.566 35.15 127.901 35.29 128.401 35.29C128.641 35.29 128.886 35.27 129.136 35.23C129.396 35.18 129.631 35.115 129.841 35.035L130.156 36.775C129.886 36.885 129.586 36.98 129.256 37.06C128.926 37.14 128.521 37.18 128.041 37.18C127.431 37.18 126.926 37.1 126.526 36.94C126.126 36.77 125.806 36.54 125.566 36.25C125.326 35.95 125.156 35.59 125.056 35.17C124.966 34.75 124.921 34.285 124.921 33.775V27.145ZM131.661 37V25.72L133.896 25.36V29.14C134.046 29.09 134.236 29.045 134.466 29.005C134.706 28.955 134.936 28.93 135.156 28.93C135.796 28.93 136.326 29.02 136.746 29.2C137.176 29.37 137.516 29.615 137.766 29.935C138.026 30.255 138.206 30.635 138.306 31.075C138.416 31.515 138.471 32.005 138.471 32.545V37H136.236V32.815C136.236 32.095 136.141 31.585 135.951 31.285C135.771 30.985 135.431 30.835 134.931 30.835C134.731 30.835 134.541 30.855 134.361 30.895C134.191 30.925 134.036 30.96 133.896 31V37H131.661ZM140.119 33.115C140.119 32.415 140.224 31.805 140.434 31.285C140.654 30.755 140.939 30.315 141.289 29.965C141.639 29.615 142.039 29.35 142.489 29.17C142.949 28.99 143.419 28.9 143.899 28.9C145.019 28.9 145.904 29.245 146.554 29.935C147.204 30.615 147.529 31.62 147.529 32.95C147.529 33.08 147.524 33.225 147.514 33.385C147.504 33.535 147.494 33.67 147.484 33.79H142.414C142.464 34.25 142.679 34.615 143.059 34.885C143.439 35.155 143.949 35.29 144.589 35.29C144.999 35.29 145.399 35.255 145.789 35.185C146.189 35.105 146.514 35.01 146.764 34.9L147.064 36.715C146.944 36.775 146.784 36.835 146.584 36.895C146.384 36.955 146.159 37.005 145.909 37.045C145.669 37.095 145.409 37.135 145.129 37.165C144.849 37.195 144.569 37.21 144.289 37.21C143.579 37.21 142.959 37.105 142.429 36.895C141.909 36.685 141.474 36.4 141.124 36.04C140.784 35.67 140.529 35.235 140.359 34.735C140.199 34.235 140.119 33.695 140.119 33.115ZM145.369 32.26C145.359 32.07 145.324 31.885 145.264 31.705C145.214 31.525 145.129 31.365 145.009 31.225C144.899 31.085 144.754 30.97 144.574 30.88C144.404 30.79 144.189 30.745 143.929 30.745C143.679 30.745 143.464 30.79 143.284 30.88C143.104 30.96 142.954 31.07 142.834 31.21C142.714 31.35 142.619 31.515 142.549 31.705C142.489 31.885 142.444 32.07 142.414 32.26H145.369ZM149.254 29.38C149.634 29.27 150.124 29.17 150.724 29.08C151.324 28.98 151.954 28.93 152.614 28.93C153.284 28.93 153.839 29.02 154.279 29.2C154.729 29.37 155.084 29.615 155.344 29.935C155.604 30.255 155.789 30.635 155.899 31.075C156.009 31.515 156.064 32.005 156.064 32.545V37H153.829V32.815C153.829 32.095 153.734 31.585 153.544 31.285C153.354 30.985 152.999 30.835 152.479 30.835C152.319 30.835 152.149 30.845 151.969 30.865C151.789 30.875 151.629 30.89 151.489 30.91V37H149.254V29.38ZM158.012 27.145L160.247 26.785V29.11H162.932V30.97H160.247V33.745C160.247 34.215 160.327 34.59 160.487 34.87C160.657 35.15 160.992 35.29 161.492 35.29C161.732 35.29 161.977 35.27 162.227 35.23C162.487 35.18 162.722 35.115 162.932 35.035L163.247 36.775C162.977 36.885 162.677 36.98 162.347 37.06C162.017 37.14 161.612 37.18 161.132 37.18C160.522 37.18 160.017 37.1 159.617 36.94C159.217 36.77 158.897 36.54 158.657 36.25C158.417 35.95 158.247 35.59 158.147 35.17C158.057 34.75 158.012 34.285 158.012 33.775V27.145ZM166.987 37H164.752V29.11H166.987V37ZM167.197 26.83C167.197 27.24 167.062 27.565 166.792 27.805C166.532 28.035 166.222 28.15 165.862 28.15C165.502 28.15 165.187 28.035 164.917 27.805C164.657 27.565 164.527 27.24 164.527 26.83C164.527 26.42 164.657 26.1 164.917 25.87C165.187 25.63 165.502 25.51 165.862 25.51C166.222 25.51 166.532 25.63 166.792 25.87C167.062 26.1 167.197 26.42 167.197 26.83ZM168.713 33.055C168.713 32.485 168.803 31.95 168.983 31.45C169.173 30.94 169.443 30.5 169.793 30.13C170.143 29.75 170.568 29.45 171.068 29.23C171.568 29.01 172.138 28.9 172.778 28.9C173.198 28.9 173.583 28.94 173.933 29.02C174.283 29.09 174.623 29.195 174.953 29.335L174.488 31.12C174.278 31.04 174.048 30.97 173.798 30.91C173.548 30.85 173.268 30.82 172.958 30.82C172.298 30.82 171.803 31.025 171.473 31.435C171.153 31.845 170.993 32.385 170.993 33.055C170.993 33.765 171.143 34.315 171.443 34.705C171.753 35.095 172.288 35.29 173.048 35.29C173.318 35.29 173.608 35.265 173.918 35.215C174.228 35.165 174.513 35.085 174.773 34.975L175.088 36.805C174.828 36.915 174.503 37.01 174.113 37.09C173.723 37.17 173.293 37.21 172.823 37.21C172.103 37.21 171.483 37.105 170.963 36.895C170.443 36.675 170.013 36.38 169.673 36.01C169.343 35.64 169.098 35.205 168.938 34.705C168.788 34.195 168.713 33.645 168.713 33.055ZM185.247 33.115C185.247 32.425 185.092 31.875 184.782 31.465C184.472 31.045 184.012 30.835 183.402 30.835C183.202 30.835 183.017 30.845 182.847 30.865C182.677 30.875 182.537 30.89 182.427 30.91V34.945C182.567 35.035 182.747 35.11 182.967 35.17C183.197 35.23 183.427 35.26 183.657 35.26C184.717 35.26 185.247 34.545 185.247 33.115ZM187.527 33.055C187.527 33.665 187.452 34.22 187.302 34.72C187.152 35.22 186.932 35.65 186.642 36.01C186.352 36.37 185.992 36.65 185.562 36.85C185.132 37.05 184.637 37.15 184.077 37.15C183.767 37.15 183.477 37.12 183.207 37.06C182.937 37 182.677 36.915 182.427 36.805V39.775H180.192V29.38C180.392 29.32 180.622 29.265 180.882 29.215C181.142 29.155 181.412 29.105 181.692 29.065C181.982 29.025 182.272 28.995 182.562 28.975C182.862 28.945 183.147 28.93 183.417 28.93C184.067 28.93 184.647 29.03 185.157 29.23C185.667 29.42 186.097 29.695 186.447 30.055C186.797 30.405 187.062 30.835 187.242 31.345C187.432 31.855 187.527 32.425 187.527 33.055ZM189.244 37V25.72L191.479 25.36V29.14C191.629 29.09 191.819 29.045 192.049 29.005C192.289 28.955 192.519 28.93 192.739 28.93C193.379 28.93 193.909 29.02 194.329 29.2C194.759 29.37 195.099 29.615 195.349 29.935C195.609 30.255 195.789 30.635 195.889 31.075C195.999 31.515 196.054 32.005 196.054 32.545V37H193.819V32.815C193.819 32.095 193.724 31.585 193.534 31.285C193.354 30.985 193.014 30.835 192.514 30.835C192.314 30.835 192.124 30.855 191.944 30.895C191.774 30.925 191.619 30.96 191.479 31V37H189.244ZM205.457 33.04C205.457 33.66 205.367 34.23 205.187 34.75C205.007 35.26 204.747 35.7 204.407 36.07C204.067 36.43 203.657 36.71 203.177 36.91C202.707 37.11 202.177 37.21 201.587 37.21C201.007 37.21 200.477 37.11 199.997 36.91C199.527 36.71 199.122 36.43 198.782 36.07C198.442 35.7 198.177 35.26 197.987 34.75C197.797 34.23 197.702 33.66 197.702 33.04C197.702 32.42 197.797 31.855 197.987 31.345C198.187 30.835 198.457 30.4 198.797 30.04C199.147 29.68 199.557 29.4 200.027 29.2C200.507 29 201.027 28.9 201.587 28.9C202.157 28.9 202.677 29 203.147 29.2C203.627 29.4 204.037 29.68 204.377 30.04C204.717 30.4 204.982 30.835 205.172 31.345C205.362 31.855 205.457 32.42 205.457 33.04ZM203.177 33.04C203.177 32.35 203.037 31.81 202.757 31.42C202.487 31.02 202.097 30.82 201.587 30.82C201.077 30.82 200.682 31.02 200.402 31.42C200.122 31.81 199.982 32.35 199.982 33.04C199.982 33.73 200.122 34.28 200.402 34.69C200.682 35.09 201.077 35.29 201.587 35.29C202.097 35.29 202.487 35.09 202.757 34.69C203.037 34.28 203.177 33.73 203.177 33.04ZM207.114 27.145L209.349 26.785V29.11H212.034V30.97H209.349V33.745C209.349 34.215 209.429 34.59 209.589 34.87C209.759 35.15 210.094 35.29 210.594 35.29C210.834 35.29 211.079 35.27 211.329 35.23C211.589 35.18 211.824 35.115 212.034 35.035L212.349 36.775C212.079 36.885 211.779 36.98 211.449 37.06C211.119 37.14 210.714 37.18 210.234 37.18C209.624 37.18 209.119 37.1 208.719 36.94C208.319 36.77 207.999 36.54 207.759 36.25C207.519 35.95 207.349 35.59 207.249 35.17C207.159 34.75 207.114 34.285 207.114 33.775V27.145ZM220.941 33.04C220.941 33.66 220.851 34.23 220.671 34.75C220.491 35.26 220.231 35.7 219.891 36.07C219.551 36.43 219.141 36.71 218.661 36.91C218.191 37.11 217.661 37.21 217.071 37.21C216.491 37.21 215.961 37.11 215.481 36.91C215.011 36.71 214.606 36.43 214.266 36.07C213.926 35.7 213.661 35.26 213.471 34.75C213.281 34.23 213.186 33.66 213.186 33.04C213.186 32.42 213.281 31.855 213.471 31.345C213.671 30.835 213.941 30.4 214.281 30.04C214.631 29.68 215.041 29.4 215.511 29.2C215.991 29 216.511 28.9 217.071 28.9C217.641 28.9 218.161 29 218.631 29.2C219.111 29.4 219.521 29.68 219.861 30.04C220.201 30.4 220.466 30.835 220.656 31.345C220.846 31.855 220.941 32.42 220.941 33.04ZM218.661 33.04C218.661 32.35 218.521 31.81 218.241 31.42C217.971 31.02 217.581 30.82 217.071 30.82C216.561 30.82 216.166 31.02 215.886 31.42C215.606 31.81 215.466 32.35 215.466 33.04C215.466 33.73 215.606 34.28 215.886 34.69C216.166 35.09 216.561 35.29 217.071 35.29C217.581 35.29 217.971 35.09 218.241 34.69C218.521 34.28 218.661 33.73 218.661 33.04ZM224.577 32.8C224.577 34.05 225.082 34.675 226.092 34.675C226.322 34.675 226.537 34.645 226.737 34.585C226.937 34.525 227.107 34.455 227.247 34.375V30.805C227.137 30.785 227.007 30.77 226.857 30.76C226.707 30.74 226.532 30.73 226.332 30.73C225.742 30.73 225.302 30.925 225.012 31.315C224.722 31.705 224.577 32.2 224.577 32.8ZM229.482 36.01C229.482 37.3 229.152 38.255 228.492 38.875C227.842 39.505 226.832 39.82 225.462 39.82C224.982 39.82 224.502 39.775 224.022 39.685C223.542 39.605 223.097 39.495 222.687 39.355L223.077 37.48C223.427 37.62 223.792 37.73 224.172 37.81C224.562 37.89 225.002 37.93 225.492 37.93C226.132 37.93 226.582 37.79 226.842 37.51C227.112 37.23 227.247 36.87 227.247 36.43V36.145C227.007 36.255 226.757 36.34 226.497 36.4C226.247 36.45 225.972 36.475 225.672 36.475C224.582 36.475 223.747 36.155 223.167 35.515C222.587 34.865 222.297 33.96 222.297 32.8C222.297 32.22 222.387 31.695 222.567 31.225C222.747 30.745 223.007 30.335 223.347 29.995C223.697 29.655 224.122 29.395 224.622 29.215C225.122 29.025 225.687 28.93 226.317 28.93C226.587 28.93 226.862 28.945 227.142 28.975C227.432 28.995 227.717 29.025 227.997 29.065C228.277 29.105 228.542 29.155 228.792 29.215C229.052 29.265 229.282 29.32 229.482 29.38V36.01ZM236.333 31.09C236.133 31.04 235.898 30.99 235.628 30.94C235.358 30.88 235.068 30.85 234.758 30.85C234.618 30.85 234.448 30.865 234.248 30.895C234.058 30.915 233.913 30.94 233.813 30.97V37H231.578V29.53C231.978 29.39 232.448 29.26 232.988 29.14C233.538 29.01 234.148 28.945 234.818 28.945C234.938 28.945 235.083 28.955 235.253 28.975C235.423 28.985 235.593 29.005 235.763 29.035C235.933 29.055 236.103 29.085 236.273 29.125C236.443 29.155 236.588 29.195 236.708 29.245L236.333 31.09ZM240.775 35.44C240.995 35.44 241.205 35.435 241.405 35.425C241.605 35.415 241.765 35.4 241.885 35.38V33.685C241.795 33.665 241.66 33.645 241.48 33.625C241.3 33.605 241.135 33.595 240.985 33.595C240.775 33.595 240.575 33.61 240.385 33.64C240.205 33.66 240.045 33.705 239.905 33.775C239.765 33.845 239.655 33.94 239.575 34.06C239.495 34.18 239.455 34.33 239.455 34.51C239.455 34.86 239.57 35.105 239.8 35.245C240.04 35.375 240.365 35.44 240.775 35.44ZM240.595 28.9C241.255 28.9 241.805 28.975 242.245 29.125C242.685 29.275 243.035 29.49 243.295 29.77C243.565 30.05 243.755 30.39 243.865 30.79C243.975 31.19 244.03 31.635 244.03 32.125V36.775C243.71 36.845 243.265 36.925 242.695 37.015C242.125 37.115 241.435 37.165 240.625 37.165C240.115 37.165 239.65 37.12 239.23 37.03C238.82 36.94 238.465 36.795 238.165 36.595C237.865 36.385 237.635 36.115 237.475 35.785C237.315 35.455 237.235 35.05 237.235 34.57C237.235 34.11 237.325 33.72 237.505 33.4C237.695 33.08 237.945 32.825 238.255 32.635C238.565 32.445 238.92 32.31 239.32 32.23C239.72 32.14 240.135 32.095 240.565 32.095C240.855 32.095 241.11 32.11 241.33 32.14C241.56 32.16 241.745 32.19 241.885 32.23V32.02C241.885 31.64 241.77 31.335 241.54 31.105C241.31 30.875 240.91 30.76 240.34 30.76C239.96 30.76 239.585 30.79 239.215 30.85C238.845 30.9 238.525 30.975 238.255 31.075L237.97 29.275C238.1 29.235 238.26 29.195 238.45 29.155C238.65 29.105 238.865 29.065 239.095 29.035C239.325 28.995 239.565 28.965 239.815 28.945C240.075 28.915 240.335 28.9 240.595 28.9ZM251.106 33.115C251.106 32.425 250.951 31.875 250.641 31.465C250.331 31.045 249.871 30.835 249.261 30.835C249.061 30.835 248.876 30.845 248.706 30.865C248.536 30.875 248.396 30.89 248.286 30.91V34.945C248.426 35.035 248.606 35.11 248.826 35.17C249.056 35.23 249.286 35.26 249.516 35.26C250.576 35.26 251.106 34.545 251.106 33.115ZM253.386 33.055C253.386 33.665 253.311 34.22 253.161 34.72C253.011 35.22 252.791 35.65 252.501 36.01C252.211 36.37 251.851 36.65 251.421 36.85C250.991 37.05 250.496 37.15 249.936 37.15C249.626 37.15 249.336 37.12 249.066 37.06C248.796 37 248.536 36.915 248.286 36.805V39.775H246.051V29.38C246.251 29.32 246.481 29.265 246.741 29.215C247.001 29.155 247.271 29.105 247.551 29.065C247.841 29.025 248.131 28.995 248.421 28.975C248.721 28.945 249.006 28.93 249.276 28.93C249.926 28.93 250.506 29.03 251.016 29.23C251.526 29.42 251.956 29.695 252.306 30.055C252.656 30.405 252.921 30.835 253.101 31.345C253.291 31.855 253.386 32.425 253.386 33.055ZM255.104 37V25.72L257.339 25.36V29.14C257.489 29.09 257.679 29.045 257.909 29.005C258.149 28.955 258.379 28.93 258.599 28.93C259.239 28.93 259.769 29.02 260.189 29.2C260.619 29.37 260.959 29.615 261.209 29.935C261.469 30.255 261.649 30.635 261.749 31.075C261.859 31.515 261.914 32.005 261.914 32.545V37H259.679V32.815C259.679 32.095 259.584 31.585 259.394 31.285C259.214 30.985 258.874 30.835 258.374 30.835C258.174 30.835 257.984 30.855 257.804 30.895C257.634 30.925 257.479 30.96 257.339 31V37H255.104ZM270.707 29.11C270.257 30.63 269.787 32.055 269.297 33.385C268.807 34.715 268.272 36.005 267.692 37.255C267.482 37.705 267.272 38.085 267.062 38.395C266.852 38.715 266.622 38.975 266.372 39.175C266.122 39.385 265.837 39.535 265.517 39.625C265.207 39.725 264.842 39.775 264.422 39.775C264.072 39.775 263.747 39.74 263.447 39.67C263.157 39.61 262.917 39.54 262.727 39.46L263.117 37.675C263.347 37.755 263.552 37.81 263.732 37.84C263.912 37.87 264.102 37.885 264.302 37.885C264.702 37.885 265.007 37.775 265.217 37.555C265.437 37.345 265.622 37.05 265.772 36.67C265.262 35.67 264.752 34.55 264.242 33.31C263.732 32.06 263.252 30.66 262.802 29.11H265.172C265.272 29.5 265.387 29.925 265.517 30.385C265.657 30.835 265.802 31.295 265.952 31.765C266.102 32.225 266.252 32.675 266.402 33.115C266.562 33.555 266.712 33.955 266.852 34.315C266.982 33.955 267.117 33.555 267.257 33.115C267.397 32.675 267.532 32.225 267.662 31.765C267.802 31.295 267.932 30.835 268.052 30.385C268.182 29.925 268.297 29.5 268.397 29.11H270.707ZM278.929 25.36C279.349 25.36 279.734 25.405 280.084 25.495C280.434 25.575 280.704 25.655 280.894 25.735L280.459 27.52C280.259 27.43 280.039 27.365 279.799 27.325C279.569 27.275 279.354 27.25 279.154 27.25C278.884 27.25 278.654 27.29 278.464 27.37C278.284 27.44 278.139 27.54 278.029 27.67C277.929 27.8 277.854 27.955 277.804 28.135C277.764 28.315 277.744 28.51 277.744 28.72V29.11H280.504V30.97H277.744V37H275.509V28.69C275.509 27.67 275.794 26.86 276.364 26.26C276.944 25.66 277.799 25.36 278.929 25.36ZM289.1 33.04C289.1 33.66 289.01 34.23 288.83 34.75C288.65 35.26 288.39 35.7 288.05 36.07C287.71 36.43 287.3 36.71 286.82 36.91C286.35 37.11 285.82 37.21 285.23 37.21C284.65 37.21 284.12 37.11 283.64 36.91C283.17 36.71 282.765 36.43 282.425 36.07C282.085 35.7 281.82 35.26 281.63 34.75C281.44 34.23 281.345 33.66 281.345 33.04C281.345 32.42 281.44 31.855 281.63 31.345C281.83 30.835 282.1 30.4 282.44 30.04C282.79 29.68 283.2 29.4 283.67 29.2C284.15 29 284.67 28.9 285.23 28.9C285.8 28.9 286.32 29 286.79 29.2C287.27 29.4 287.68 29.68 288.02 30.04C288.36 30.4 288.625 30.835 288.815 31.345C289.005 31.855 289.1 32.42 289.1 33.04ZM286.82 33.04C286.82 32.35 286.68 31.81 286.4 31.42C286.13 31.02 285.74 30.82 285.23 30.82C284.72 30.82 284.325 31.02 284.045 31.42C283.765 31.81 283.625 32.35 283.625 33.04C283.625 33.73 283.765 34.28 284.045 34.69C284.325 35.09 284.72 35.29 285.23 35.29C285.74 35.29 286.13 35.09 286.4 34.69C286.68 34.28 286.82 33.73 286.82 33.04ZM295.586 31.09C295.386 31.04 295.151 30.99 294.881 30.94C294.611 30.88 294.321 30.85 294.011 30.85C293.871 30.85 293.701 30.865 293.501 30.895C293.311 30.915 293.166 30.94 293.066 30.97V37H290.831V29.53C291.231 29.39 291.701 29.26 292.241 29.14C292.791 29.01 293.401 28.945 294.071 28.945C294.191 28.945 294.336 28.955 294.506 28.975C294.676 28.985 294.846 29.005 295.016 29.035C295.186 29.055 295.356 29.085 295.526 29.125C295.696 29.155 295.841 29.195 295.961 29.245L295.586 31.09ZM307.768 29.11C307.318 30.63 306.848 32.055 306.358 33.385C305.868 34.715 305.333 36.005 304.753 37.255C304.543 37.705 304.333 38.085 304.123 38.395C303.913 38.715 303.683 38.975 303.433 39.175C303.183 39.385 302.898 39.535 302.578 39.625C302.268 39.725 301.903 39.775 301.483 39.775C301.133 39.775 300.808 39.74 300.508 39.67C300.218 39.61 299.978 39.54 299.788 39.46L300.178 37.675C300.408 37.755 300.613 37.81 300.793 37.84C300.973 37.87 301.163 37.885 301.363 37.885C301.763 37.885 302.068 37.775 302.278 37.555C302.498 37.345 302.683 37.05 302.833 36.67C302.323 35.67 301.813 34.55 301.303 33.31C300.793 32.06 300.313 30.66 299.863 29.11H302.233C302.333 29.5 302.448 29.925 302.578 30.385C302.718 30.835 302.863 31.295 303.013 31.765C303.163 32.225 303.313 32.675 303.463 33.115C303.623 33.555 303.773 33.955 303.913 34.315C304.043 33.955 304.178 33.555 304.318 33.115C304.458 32.675 304.593 32.225 304.723 31.765C304.863 31.295 304.993 30.835 305.113 30.385C305.243 29.925 305.358 29.5 305.458 29.11H307.768ZM316.141 33.04C316.141 33.66 316.051 34.23 315.871 34.75C315.691 35.26 315.431 35.7 315.091 36.07C314.751 36.43 314.341 36.71 313.861 36.91C313.391 37.11 312.861 37.21 312.271 37.21C311.691 37.21 311.161 37.11 310.681 36.91C310.211 36.71 309.806 36.43 309.466 36.07C309.126 35.7 308.861 35.26 308.671 34.75C308.481 34.23 308.386 33.66 308.386 33.04C308.386 32.42 308.481 31.855 308.671 31.345C308.871 30.835 309.141 30.4 309.481 30.04C309.831 29.68 310.241 29.4 310.711 29.2C311.191 29 311.711 28.9 312.271 28.9C312.841 28.9 313.361 29 313.831 29.2C314.311 29.4 314.721 29.68 315.061 30.04C315.401 30.4 315.666 30.835 315.856 31.345C316.046 31.855 316.141 32.42 316.141 33.04ZM313.861 33.04C313.861 32.35 313.721 31.81 313.441 31.42C313.171 31.02 312.781 30.82 312.271 30.82C311.761 30.82 311.366 31.02 311.086 31.42C310.806 31.81 310.666 32.35 310.666 33.04C310.666 33.73 310.806 34.28 311.086 34.69C311.366 35.09 311.761 35.29 312.271 35.29C312.781 35.29 313.171 35.09 313.441 34.69C313.721 34.28 313.861 33.73 313.861 33.04ZM324.607 36.73C324.227 36.84 323.737 36.94 323.137 37.03C322.537 37.13 321.907 37.18 321.247 37.18C320.577 37.18 320.017 37.09 319.567 36.91C319.127 36.73 318.777 36.48 318.517 36.16C318.257 35.83 318.072 35.44 317.962 34.99C317.852 34.54 317.797 34.045 317.797 33.505V29.11H320.032V33.235C320.032 33.955 320.127 34.475 320.317 34.795C320.507 35.115 320.862 35.275 321.382 35.275C321.542 35.275 321.712 35.27 321.892 35.26C322.072 35.24 322.232 35.22 322.372 35.2V29.11H324.607V36.73ZM331.46 31.09C331.26 31.04 331.025 30.99 330.755 30.94C330.485 30.88 330.195 30.85 329.885 30.85C329.745 30.85 329.575 30.865 329.375 30.895C329.185 30.915 329.04 30.94 328.94 30.97V37H326.705V29.53C327.105 29.39 327.575 29.26 328.115 29.14C328.665 29.01 329.275 28.945 329.945 28.945C330.065 28.945 330.21 28.955 330.38 28.975C330.55 28.985 330.72 29.005 330.89 29.035C331.06 29.055 331.23 29.085 331.4 29.125C331.57 29.155 331.715 29.195 331.835 29.245L331.46 31.09ZM338.902 35.395C339.312 35.395 339.602 35.355 339.772 35.275C339.942 35.195 340.027 35.04 340.027 34.81C340.027 34.63 339.917 34.475 339.697 34.345C339.477 34.205 339.142 34.05 338.692 33.88C338.342 33.75 338.022 33.615 337.732 33.475C337.452 33.335 337.212 33.17 337.012 32.98C336.812 32.78 336.657 32.545 336.547 32.275C336.437 32.005 336.382 31.68 336.382 31.3C336.382 30.56 336.657 29.975 337.207 29.545C337.757 29.115 338.512 28.9 339.472 28.9C339.952 28.9 340.412 28.945 340.852 29.035C341.292 29.115 341.642 29.205 341.902 29.305L341.512 31.045C341.252 30.955 340.967 30.875 340.657 30.805C340.357 30.735 340.017 30.7 339.637 30.7C338.937 30.7 338.587 30.895 338.587 31.285C338.587 31.375 338.602 31.455 338.632 31.525C338.662 31.595 338.722 31.665 338.812 31.735C338.902 31.795 339.022 31.865 339.172 31.945C339.332 32.015 339.532 32.095 339.772 32.185C340.262 32.365 340.667 32.545 340.987 32.725C341.307 32.895 341.557 33.085 341.737 33.295C341.927 33.495 342.057 33.72 342.127 33.97C342.207 34.22 342.247 34.51 342.247 34.84C342.247 35.62 341.952 36.21 341.362 36.61C340.782 37.01 339.957 37.21 338.887 37.21C338.187 37.21 337.602 37.15 337.132 37.03C336.672 36.91 336.352 36.81 336.172 36.73L336.547 34.915C336.927 35.065 337.317 35.185 337.717 35.275C338.117 35.355 338.512 35.395 338.902 35.395ZM343.542 33.115C343.542 32.415 343.647 31.805 343.857 31.285C344.077 30.755 344.362 30.315 344.712 29.965C345.062 29.615 345.462 29.35 345.912 29.17C346.372 28.99 346.842 28.9 347.322 28.9C348.442 28.9 349.327 29.245 349.977 29.935C350.627 30.615 350.952 31.62 350.952 32.95C350.952 33.08 350.947 33.225 350.937 33.385C350.927 33.535 350.917 33.67 350.907 33.79H345.837C345.887 34.25 346.102 34.615 346.482 34.885C346.862 35.155 347.372 35.29 348.012 35.29C348.422 35.29 348.822 35.255 349.212 35.185C349.612 35.105 349.937 35.01 350.187 34.9L350.487 36.715C350.367 36.775 350.207 36.835 350.007 36.895C349.807 36.955 349.582 37.005 349.332 37.045C349.092 37.095 348.832 37.135 348.552 37.165C348.272 37.195 347.992 37.21 347.712 37.21C347.002 37.21 346.382 37.105 345.852 36.895C345.332 36.685 344.897 36.4 344.547 36.04C344.207 35.67 343.952 35.235 343.782 34.735C343.622 34.235 343.542 33.695 343.542 33.115ZM348.792 32.26C348.782 32.07 348.747 31.885 348.687 31.705C348.637 31.525 348.552 31.365 348.432 31.225C348.322 31.085 348.177 30.97 347.997 30.88C347.827 30.79 347.612 30.745 347.352 30.745C347.102 30.745 346.887 30.79 346.707 30.88C346.527 30.96 346.377 31.07 346.257 31.21C346.137 31.35 346.042 31.515 345.972 31.705C345.912 31.885 345.867 32.07 345.837 32.26H348.792ZM355.692 35.44C355.912 35.44 356.122 35.435 356.322 35.425C356.522 35.415 356.682 35.4 356.802 35.38V33.685C356.712 33.665 356.577 33.645 356.397 33.625C356.217 33.605 356.052 33.595 355.902 33.595C355.692 33.595 355.492 33.61 355.302 33.64C355.122 33.66 354.962 33.705 354.822 33.775C354.682 33.845 354.572 33.94 354.492 34.06C354.412 34.18 354.372 34.33 354.372 34.51C354.372 34.86 354.487 35.105 354.717 35.245C354.957 35.375 355.282 35.44 355.692 35.44ZM355.512 28.9C356.172 28.9 356.722 28.975 357.162 29.125C357.602 29.275 357.952 29.49 358.212 29.77C358.482 30.05 358.672 30.39 358.782 30.79C358.892 31.19 358.947 31.635 358.947 32.125V36.775C358.627 36.845 358.182 36.925 357.612 37.015C357.042 37.115 356.352 37.165 355.542 37.165C355.032 37.165 354.567 37.12 354.147 37.03C353.737 36.94 353.382 36.795 353.082 36.595C352.782 36.385 352.552 36.115 352.392 35.785C352.232 35.455 352.152 35.05 352.152 34.57C352.152 34.11 352.242 33.72 352.422 33.4C352.612 33.08 352.862 32.825 353.172 32.635C353.482 32.445 353.837 32.31 354.237 32.23C354.637 32.14 355.052 32.095 355.482 32.095C355.772 32.095 356.027 32.11 356.247 32.14C356.477 32.16 356.662 32.19 356.802 32.23V32.02C356.802 31.64 356.687 31.335 356.457 31.105C356.227 30.875 355.827 30.76 355.257 30.76C354.877 30.76 354.502 30.79 354.132 30.85C353.762 30.9 353.442 30.975 353.172 31.075L352.887 29.275C353.017 29.235 353.177 29.195 353.367 29.155C353.567 29.105 353.782 29.065 354.012 29.035C354.242 28.995 354.482 28.965 354.732 28.945C354.992 28.915 355.252 28.9 355.512 28.9ZM365.723 31.09C365.523 31.04 365.288 30.99 365.018 30.94C364.748 30.88 364.458 30.85 364.148 30.85C364.008 30.85 363.838 30.865 363.638 30.895C363.448 30.915 363.303 30.94 363.203 30.97V37H360.968V29.53C361.368 29.39 361.838 29.26 362.378 29.14C362.928 29.01 363.538 28.945 364.208 28.945C364.328 28.945 364.473 28.955 364.643 28.975C364.813 28.985 364.983 29.005 365.153 29.035C365.323 29.055 365.493 29.085 365.663 29.125C365.833 29.155 365.978 29.195 366.098 29.245L365.723 31.09ZM366.775 33.055C366.775 32.485 366.865 31.95 367.045 31.45C367.235 30.94 367.505 30.5 367.855 30.13C368.205 29.75 368.63 29.45 369.13 29.23C369.63 29.01 370.2 28.9 370.84 28.9C371.26 28.9 371.645 28.94 371.995 29.02C372.345 29.09 372.685 29.195 373.015 29.335L372.55 31.12C372.34 31.04 372.11 30.97 371.86 30.91C371.61 30.85 371.33 30.82 371.02 30.82C370.36 30.82 369.865 31.025 369.535 31.435C369.215 31.845 369.055 32.385 369.055 33.055C369.055 33.765 369.205 34.315 369.505 34.705C369.815 35.095 370.35 35.29 371.11 35.29C371.38 35.29 371.67 35.265 371.98 35.215C372.29 35.165 372.575 35.085 372.835 34.975L373.15 36.805C372.89 36.915 372.565 37.01 372.175 37.09C371.785 37.17 371.355 37.21 370.885 37.21C370.165 37.21 369.545 37.105 369.025 36.895C368.505 36.675 368.075 36.38 367.735 36.01C367.405 35.64 367.16 35.205 367 34.705C366.85 34.195 366.775 33.645 366.775 33.055ZM374.65 37V25.72L376.885 25.36V29.14C377.035 29.09 377.225 29.045 377.455 29.005C377.695 28.955 377.925 28.93 378.145 28.93C378.785 28.93 379.315 29.02 379.735 29.2C380.165 29.37 380.505 29.615 380.755 29.935C381.015 30.255 381.195 30.635 381.295 31.075C381.405 31.515 381.46 32.005 381.46 32.545V37H379.225V32.815C379.225 32.095 379.13 31.585 378.94 31.285C378.76 30.985 378.42 30.835 377.92 30.835C377.72 30.835 377.53 30.855 377.35 30.895C377.18 30.925 377.025 30.96 376.885 31V37H374.65Z" fill="black"></path></svg>