<svg xmlns="http://www.w3.org/2000/svg" width="40" height="40" viewBox="0 0 40 40" fill="none"><circle cx="20" cy="20" r="19.5" stroke="#FF184E"></circle><path d="M16.0167 19.4917C17.2167 21.85 19.15 23.7833 21.5083 24.9833L23.3417 23.15C23.575 22.9167 23.9 22.85 24.1917 22.9417C25.125 23.25 26.125 23.4167 27.1667 23.4167C27.3877 23.4167 27.5996 23.5045 27.7559 23.6607C27.9122 23.817 28 24.029 28 24.25V27.1667C28 27.3877 27.9122 27.5996 27.7559 27.7559C27.5996 27.9122 27.3877 28 27.1667 28C23.4094 28 19.8061 26.5074 17.1493 23.8507C14.4926 21.1939 13 17.5906 13 13.8333C13 13.6123 13.0878 13.4004 13.2441 13.2441C13.4004 13.0878 13.6123 13 13.8333 13H16.75C16.971 13 17.183 13.0878 17.3393 13.2441C17.4955 13.4004 17.5833 13.6123 17.5833 13.8333C17.5833 14.875 17.75 15.875 18.0583 16.8083C18.15 17.1 18.0833 17.425 17.85 17.6583L16.0167 19.4917Z" fill="#FF184E"></path></svg>