<svg xmlns="http://www.w3.org/2000/svg" width="40" height="40" viewBox="0 0 40 40" fill="none"><circle cx="20" cy="20" r="19.5" stroke="#FF184E"></circle><path d="M27.883 25.7073C29.0752 24.6448 29.7502 23.2286 29.7502 21.7589C29.7502 20.1971 29.019 18.7364 27.6913 17.6457C26.3991 16.5845 24.6888 16 22.875 16C21.0613 16 19.3509 16.5845 18.0589 17.6457C16.7312 18.7364 16 20.1971 16 21.7589C16 23.3208 16.7312 24.7815 18.0589 25.8722C19.3509 26.9335 21.0613 27.5179 22.875 27.5179C23.1167 27.5179 23.3598 27.5073 23.601 27.4861L24.0129 27.8431C25.4321 29.0729 27.2471 29.7499 29.125 29.75H29.75V28.4196L29.567 28.2366C28.8449 27.5124 28.2726 26.6529 27.883 25.7073ZM24.8316 26.8984L24.005 26.182L23.7294 26.2158C23.4459 26.2504 23.1606 26.2678 22.875 26.2679C19.7734 26.2679 17.25 24.2452 17.25 21.7589C17.25 19.2727 19.7734 17.25 22.875 17.25C25.9766 17.25 28.5 19.2727 28.5 21.7589C28.5 22.9976 27.882 24.154 26.7599 25.0151L26.4 25.2913L26.5661 25.7614C26.9064 26.7216 27.4067 27.6173 28.0458 28.4105C26.8557 28.2119 25.7435 27.6886 24.8316 26.8984Z" fill="#FF184E"></path><path d="M12.726 22.7764C13.311 22.0358 13.7704 21.2041 14.0857 20.3146L14.2505 19.8468L13.8909 19.5708C12.8327 18.7588 12.25 17.6691 12.25 16.5022C12.25 14.1575 14.6332 12.25 17.5625 12.25C19.7175 12.25 21.5768 13.2824 22.4093 14.7617C22.5638 14.7542 22.7191 14.75 22.875 14.75C23.1882 14.75 23.4985 14.7652 23.806 14.7956C23.4843 13.9622 22.9257 13.2014 22.1576 12.5705C20.9247 11.5578 19.293 11 17.5625 11C15.832 11 14.2003 11.5578 12.9673 12.5705C11.6987 13.6127 11 15.009 11 16.5022C11 17.9007 11.6388 19.2481 12.7676 20.2617C12.3992 21.1482 11.8609 21.9541 11.1831 22.6339L11 22.817V24.125H11.625C12.7807 24.1249 13.9206 23.8557 14.9543 23.3389C14.841 22.9092 14.7746 22.4686 14.7563 22.0246C14.1288 22.3923 13.4416 22.6468 12.726 22.7764Z" fill="#FF184E"></path></svg>