<svg xmlns="http://www.w3.org/2000/svg" width="40" height="40" viewBox="0 0 40 40" fill="none"><circle cx="20" cy="20" r="19.5" stroke="#FF184E"></circle><path d="M13.5526 12.5525C15.187 10.9182 17.4036 10 19.7149 10C22.0263 10 24.2429 10.9182 25.8772 12.5525C27.5116 14.1869 28.4298 16.4035 28.4298 18.7148C28.4298 21.0261 27.5116 23.2428 25.8772 24.8771L24.6892 26.0521C23.8135 26.9109 22.6775 28.0158 21.2803 29.367C20.8604 29.773 20.2991 30 19.7149 30C19.1308 30 18.5695 29.773 18.1496 29.367L14.6556 25.9681C14.2152 25.5367 13.8489 25.1734 13.5526 24.8771C12.7434 24.0679 12.1014 23.1072 11.6634 22.0499C11.2254 20.9925 11 19.8593 11 18.7148C11 17.5704 11.2254 16.4371 11.6634 15.3798C12.1014 14.3224 12.7434 13.3617 13.5526 12.5525ZM24.8153 13.6134C24.1454 12.9436 23.3501 12.4122 22.4748 12.0497C21.5996 11.6872 20.6615 11.5007 19.7141 11.5007C18.7667 11.5008 17.8286 11.6874 16.9534 12.05C16.0782 12.4126 15.2829 12.944 14.6131 13.6139C13.9432 14.2838 13.4118 15.0792 13.0493 15.9544C12.6868 16.8297 12.5003 17.7678 12.5003 18.7152C12.5004 19.6625 12.687 20.6006 13.0496 21.4759C13.4122 22.3511 13.9436 23.1463 14.6136 23.8162L16.1028 25.2855C16.9215 26.0872 17.9524 27.088 19.1935 28.2881C19.3334 28.4232 19.5204 28.4987 19.7149 28.4987C19.9095 28.4987 20.0964 28.4232 20.2364 28.2881L23.6343 24.9852C24.1047 24.5238 24.4981 24.1345 24.8153 23.8162C26.168 22.4635 26.9279 20.6288 26.9279 18.7158C26.9279 16.8028 26.168 14.9682 24.8153 13.6154V13.6134ZM19.7149 15.9865C20.1095 15.9865 20.5002 16.0642 20.8647 16.2152C21.2293 16.3662 21.5605 16.5875 21.8395 16.8665C22.1185 17.1455 22.3398 17.4767 22.4908 17.8412C22.6418 18.2058 22.7195 18.5965 22.7195 18.9911C22.7195 19.3856 22.6418 19.7763 22.4908 20.1409C22.3398 20.5054 22.1185 20.8366 21.8395 21.1156C21.5605 21.3946 21.2293 21.6159 20.8647 21.7669C20.5002 21.9179 20.1095 21.9956 19.7149 21.9956C18.9277 21.9813 18.1776 21.6585 17.6259 21.0966C17.0743 20.5348 16.7652 19.7789 16.7652 18.9916C16.7652 18.2042 17.0743 17.4483 17.6259 16.8865C18.1776 16.3247 18.9277 16.0018 19.7149 15.9875V15.9865ZM19.7149 17.4878C19.3162 17.4878 18.9339 17.6461 18.652 17.9281C18.37 18.21 18.2116 18.5924 18.2116 18.9911C18.2116 19.3898 18.37 19.7721 18.652 20.054C18.9339 20.336 19.3162 20.4943 19.7149 20.4943C20.1068 20.4842 20.4792 20.3215 20.7528 20.0407C21.0263 19.76 21.1795 19.3835 21.1795 18.9916C21.1795 18.5996 21.0263 18.2231 20.7528 17.9424C20.4792 17.6616 20.1068 17.4989 19.7149 17.4888V17.4878Z" fill="#FF184E"></path></svg>